<?xml version="1.0" encoding="UTF-8"?>
<svg width="50px" height="50px" viewBox="0 0 50 50" version="1.1" xmlns="http://www.w3.org/2000/svg" xmlns:xlink="http://www.w3.org/1999/xlink">
    <title>icon_weather_temperaturerange</title>
    <g id="首页-和-目的地" stroke="none" stroke-width="1" fill="none" fill-rule="evenodd">
        <path d="M16.5,6 C19.4647919,6 21.8738301,8.39611836 21.9216986,11.3702799 L21.9224306,11.4605697 L21.9224306,27.8010221 C23.8514426,29.410604 25,31.8064358 25,34.3931615 C25,37.8658407 22.9464569,40.8555553 19.9955335,42.1979513 C18.9202225,42.7118175 17.7187129,43 16.4532297,43 C14.1296388,43 12.0217608,42.0284635 10.5151053,40.4712301 C8.96184211,38.9203407 8,36.7698794 8,34.3931615 C8,31.8035708 9.15148565,29.4077389 11.077488,27.8008993 L11.0775694,11.4605697 C11.0775694,8.44478319 13.5052751,6 16.5,6 Z M16.5,8.44785288 C14.8642584,8.44785288 13.5351675,9.76986615 13.5087321,11.4107179 L13.5083254,27.9737434 C13.6713301,28.4668584 13.507512,29.0275476 13.0723038,29.3478595 L13.0471292,29.3659093 C11.4200096,30.5018175 10.430756,32.3625 10.430756,34.3931615 C10.430756,37.7686748 13.1480311,40.5051195 16.5,40.5051195 C19.8519689,40.5051195 22.569244,37.7686748 22.569244,34.3931615 C22.569244,32.4452998 21.6595813,30.6523551 20.1434904,29.5045774 L20.0973708,29.4699513 C19.8819835,29.3105322 19.7250816,29.0838534 19.6511411,28.8252754 C19.5511281,28.6491002 19.4964254,28.4505744 19.492,28.2477235 L19.4916746,11.4605697 C19.4916746,9.79667478 18.1522536,8.44785288 16.5,8.44785288 Z M16.4065,18.1450454 C16.5858541,18.1450454 16.758701,18.1732865 16.9208517,18.225594 C17.6051627,18.4288075 18.1080048,19.0654613 18.1080048,19.8140564 L18.1080861,29.6445962 C20.0591005,30.3478418 21.4549713,32.2260011 21.4549713,34.4325763 C21.4549713,34.716625 21.4318708,34.9952301 21.387378,35.2665498 C21.1130191,37.74424 18.9989187,39.6877223 16.4532703,39.6877223 C14.5327177,39.6877223 12.8577703,38.5815288 12.0331483,36.9742799 C11.6037967,36.2265033 11.3580287,35.3584358 11.3580287,34.4325763 C11.3580287,32.2190022 12.7628469,30.3358496 14.723622,29.6379248 L14.7237033,19.838573 C14.7237033,18.9032588 15.4771124,18.1450454 16.4065,18.1450454 Z M42.0392009,33.4478529 C42.5914856,33.4478529 43.0392009,33.8955681 43.0392009,34.4478529 C43.0392009,34.9606887 42.6531607,35.38336 42.155822,35.4411251 L42.0392009,35.4478529 L30.2408329,35.4478529 C29.6885482,35.4478529 29.2408329,35.0001376 29.2408329,34.4478529 C29.2408329,33.935017 29.6268731,33.5123457 30.1242118,33.4545806 L30.2408329,33.4478529 L42.0392009,33.4478529 Z M36.6128994,14.2097046 L36.7071068,14.2928932 L39.7071068,17.2928932 C40.0976311,17.6834175 40.0976311,18.3165825 39.7071068,18.7071068 C39.3466228,19.0675907 38.7793918,19.0953203 38.3871006,18.7902954 L38.2928932,18.7071068 L36.9998329,17.4148529 L36.9998329,29.5848529 L38.2928932,28.2928932 L38.3871006,28.2097046 C38.7793918,27.9046797 39.3466228,27.9324093 39.7071068,28.2928932 C40.0675907,28.6533772 40.0953203,29.2206082 39.7902954,29.6128994 L39.7071068,29.7071068 L36.7071068,32.7071068 L36.6128994,32.7902954 C36.2532992,33.0699015 35.7467008,33.0699015 35.3871006,32.7902954 L35.2928932,32.7071068 L32.2928932,29.7071068 L32.2097046,29.6128994 C31.9300985,29.2532992 31.9300985,28.7467008 32.2097046,28.3871006 L32.2928932,28.2928932 L32.3871006,28.2097046 C32.7467008,27.9300985 33.2532992,27.9300985 33.6128994,28.2097046 L33.7071068,28.2928932 L34.9998329,29.5848529 L34.9998329,17.4148529 L33.7071068,18.7071068 C33.3466228,19.0675907 32.7793918,19.0953203 32.3871006,18.7902954 L32.2928932,18.7071068 C31.9324093,18.3466228 31.9046797,17.7793918 32.2097046,17.3871006 L32.2928932,17.2928932 L35.2928932,14.2928932 C35.6533772,13.9324093 36.2206082,13.9046797 36.6128994,14.2097046 Z M42.0392009,11.4478529 C42.5914856,11.4478529 43.0392009,11.8955681 43.0392009,12.4478529 C43.0392009,12.9606887 42.6531607,13.38336 42.155822,13.4411251 L42.0392009,13.4478529 L30.2408329,13.4478529 C29.6885482,13.4478529 29.2408329,13.0001376 29.2408329,12.4478529 C29.2408329,11.935017 29.6268731,11.5123457 30.1242118,11.4545806 L30.2408329,11.4478529 L42.0392009,11.4478529 Z" id="形状结合备份-4" fill="#4D4D4D" fill-rule="nonzero"></path>
    </g>
</svg>