<?xml version="1.0" encoding="UTF-8"?>
<svg width="350px" height="66px" viewBox="0 0 350 66" version="1.1" xmlns="http://www.w3.org/2000/svg" xmlns:xlink="http://www.w3.org/1999/xlink">
    <title>icon_Sunandmoon</title>
    <g id="首页-和-目的地" stroke="none" stroke-width="1" fill="none" fill-rule="evenodd">
        <g id="目的地天气" transform="translate(-20.000000, -1207.000000)">
            <g id="编组-21" transform="translate(0.000000, 1172.000000)">
                <g id="icon_Sunandmoon" transform="translate(20.000000, 35.000000)">
                    <polygon id="路径-6" fill="#4D4D4D" fill-rule="nonzero" points="350 62 350 63 0 63 0 62"></polygon>
                    <g id="编组-3" transform="translate(28.684917, 14.500000)">
                        <polygon id="路径-5备份" fill="#4D4D4D" transform="translate(291.315083, 44.250000) rotate(-49.000000) translate(-291.315083, -44.250000) " points="291.315083 48.5 286.815083 40 295.815083 40"></polygon>
                        <path d="M292.779995,44.8609283 C257.683417,20.753572 216.348816,5.07022981 171.692783,0.727493784 M128.193937,0.124074222 C80.8238035,3.39799399 36.9588947,19.409596 0,44.7580904" id="形状" stroke="#4D4D4D" stroke-linecap="round" stroke-linejoin="round" stroke-dasharray="2,4"></path>
                    </g>
                    <g id="icon_sun" transform="translate(165.000000, 0.000000)" fill="#4D4D4D" fill-rule="nonzero">
                        <path d="M13,19.4296029 C9.44604317,19.4296029 6.64028777,16.5198556 6.64028777,13.0469314 C6.64028777,9.57400722 9.53956835,6.66425993 13,6.66425993 C16.4604317,6.66425993 19.3597122,9.57400722 19.3597122,13.0469314 C19.3597122,16.5198556 16.5539568,19.4296029 13,19.4296029 Z M13,8.44765343 C10.4748201,8.44765343 8.51079137,10.5126354 8.51079137,12.9530686 C8.51079137,15.3935018 10.5683453,17.4584838 13,17.4584838 C15.4316547,17.4584838 17.4892086,15.3935018 17.4892086,12.9530686 C17.4892086,10.5126354 15.5251799,8.44765343 13,8.44765343 Z M13,5.25631769 C12.4388489,5.25631769 12.0647482,4.88086643 12.0647482,4.31768953 L12.0647482,0.938628159 C12.0647482,0.375451264 12.4388489,0 13,0 C13.5611511,0 13.9352518,0.375451264 13.9352518,0.938628159 L13.9352518,4.41155235 C13.9352518,4.88086643 13.4676259,5.25631769 13,5.25631769 L13,5.25631769 Z M6.92086331,7.79061372 C6.64028777,7.79061372 6.45323741,7.6967509 6.26618705,7.50902527 L3.83453237,5.06859206 C3.46043165,4.69314079 3.46043165,4.1299639 3.83453237,3.75451264 C4.20863309,3.37906137 4.76978417,3.37906137 5.14388489,3.75451264 L7.57553957,6.19494585 C7.94964029,6.57039711 7.94964029,7.13357401 7.57553957,7.50902527 C7.38848921,7.6967509 7.10791367,7.79061372 6.92086331,7.79061372 L6.92086331,7.79061372 Z M4.39568345,13.8916968 L0.935251799,13.8916968 C0.374100719,13.8916968 0,13.5162455 0,12.9530686 C0,12.3898917 0.374100719,12.0144404 0.935251799,12.0144404 L4.39568345,12.0144404 C4.95683453,12.0144404 5.33093525,12.3898917 5.33093525,12.9530686 C5.33093525,13.5162455 4.86330935,13.8916968 4.39568345,13.8916968 L4.39568345,13.8916968 Z M4.48920863,22.433213 C4.20863309,22.433213 4.02158273,22.3393502 3.83453237,22.1516245 C3.46043165,21.7761733 3.46043165,21.2129964 3.83453237,20.8375451 L6.26618705,18.3971119 C6.64028777,18.0216606 7.20143885,18.0216606 7.57553957,18.3971119 C7.94964029,18.7725632 7.94964029,19.3357401 7.57553957,19.7111913 L5.14388489,22.1516245 C4.95683453,22.3393502 4.67625899,22.433213 4.48920863,22.433213 L4.48920863,22.433213 Z M13,26 C12.4388489,26 12.0647482,25.6245487 12.0647482,25.0613718 L12.0647482,21.5884477 C12.0647482,21.0252708 12.4388489,20.6498195 13,20.6498195 C13.5611511,20.6498195 13.9352518,21.0252708 13.9352518,21.5884477 L13.9352518,25.0613718 C13.9352518,25.6245487 13.4676259,26 13,26 Z M21.5107914,22.433213 C21.2302158,22.433213 21.0431655,22.3393502 20.8561151,22.1516245 L18.4244604,19.7111913 C18.0503597,19.3357401 18.0503597,18.7725632 18.4244604,18.3971119 C18.7985612,18.0216606 19.3597122,18.0216606 19.7338129,18.3971119 L22.1654676,20.8375451 C22.5395683,21.2129964 22.5395683,21.7761733 22.1654676,22.1516245 C21.9784173,22.3393502 21.6978417,22.433213 21.5107914,22.433213 L21.5107914,22.433213 Z M25.0647482,13.8916968 L21.6043165,13.8916968 C21.0431655,13.8916968 20.6690647,13.5162455 20.6690647,12.9530686 C20.6690647,12.3898917 21.0431655,12.0144404 21.6043165,12.0144404 L25.0647482,12.0144404 C25.6258993,12.0144404 26,12.3898917 26,12.9530686 C26,13.5162455 25.5323741,13.8916968 25.0647482,13.8916968 Z M19.0791367,7.79061372 C18.7985612,7.79061372 18.6115108,7.6967509 18.4244604,7.50902527 C18.0503597,7.13357401 18.0503597,6.57039711 18.4244604,6.19494585 L20.8561151,3.75451264 C21.2302158,3.37906137 21.7913669,3.37906137 22.1654676,3.75451264 C22.5395683,4.1299639 22.5395683,4.69314079 22.1654676,5.06859206 L19.7338129,7.50902527 C19.5467626,7.6967509 19.3597122,7.79061372 19.0791367,7.79061372 L19.0791367,7.79061372 Z" id="形状"></path>
                    </g>
                </g>
            </g>
        </g>
    </g>
</svg>