<?xml version="1.0" encoding="UTF-8"?>
<svg width="50px" height="50px" viewBox="0 0 50 50" version="1.1" xmlns="http://www.w3.org/2000/svg" xmlns:xlink="http://www.w3.org/1999/xlink">
    <title>icon_weather_pressure</title>
    <g id="首页-和-目的地" stroke="none" stroke-width="1" fill="none" fill-rule="evenodd">
        <path d="M44.0500524,38.0949035 C45.1269787,38.0949035 46,38.9690891 46,40.0474517 C46,41.1258144 45.1269787,42 44.0500524,42 L4.94994757,42 C3.87302127,42 3,41.1258144 3,40.0474517 C3,38.9690891 3.87302127,38.0949035 4.94994757,38.0949035 L44.0500524,38.0949035 Z M33.3229129,8.26159736 C33.9262336,8.61039384 34.2978772,9.25499507 34.2978772,9.95258122 L34.2991528,27.5311055 C34.3087934,27.6096488 34.3137205,27.6892652 34.3137205,27.7695842 C34.2981988,28.8673138 34.87416,29.8883747 35.8210531,30.4417752 C36.7679462,30.9951758 37.9390657,30.9951758 38.8859588,30.4417752 C39.8328519,29.8883747 40.4088131,28.8673138 40.3932914,27.7695842 C40.3933171,26.6912397 41.2663308,25.8170359 42.343239,25.8170359 C43.4201471,25.8170359 44.2931865,26.6912397 44.2931865,27.7695842 C44.2891562,31.6055343 41.1846514,34.7141796 37.3538106,34.7182153 C33.638917,34.714628 30.6068473,31.7914742 30.4226816,28.116531 C30.4064311,28.0151694 30.397982,27.9110598 30.397982,27.8049741 L30.397982,9.95258122 C30.397982,9.25499506 30.7696256,8.61039384 31.3729463,8.26159736 C31.976267,7.91280088 32.7195922,7.91280088 33.3229129,8.26159736 Z M16.7453023,8.01955842 C17.8222286,8.01955842 18.6952499,8.89374406 18.6952499,9.97210669 L18.6952499,27.8275504 L18.693,27.874 L18.6909824,28.0083625 C18.5615499,31.7337137 15.5069056,34.7142637 11.7558739,34.7182153 C7.92479517,34.7145158 4.81991964,31.6057722 4.8158887,27.7695842 C4.8158887,26.6912438 5.68893222,25.8170359 6.76583625,25.8170359 C7.84274029,25.8170359 8.71575232,26.6912438 8.71578381,27.7695842 C8.70026212,28.8673138 9.27622328,29.8883747 10.2231164,30.4417752 C11.1700095,30.9951758 12.3411291,30.9951758 13.2880221,30.4417752 C14.2349152,29.8883747 14.8108764,28.8673138 14.7953547,27.7695842 L14.7953547,9.97210669 C14.7953547,8.89374406 15.668376,8.01955842 16.7453023,8.01955842 Z M24.5469206,11.8197055 C25.6238469,11.8197055 26.4968682,12.6938911 26.4968682,13.7722538 L26.4968682,32.1762415 C26.4968682,32.6940895 26.2914279,33.1907278 25.9257418,33.5569016 C25.5600557,33.9230755 25.0640789,34.1287898 24.5469206,34.1287898 C23.4699943,34.1287898 22.5969731,33.2546041 22.5969731,32.1762415 L22.5969731,13.7722538 C22.5969731,12.6938911 23.4699943,11.8197055 24.5469206,11.8197055 Z" id="形状结合" fill="#4D4D4D" fill-rule="nonzero"></path>
    </g>
</svg>