<?xml version="1.0" encoding="UTF-8"?>
<svg width="50px" height="50px" viewBox="0 0 50 50" version="1.1" xmlns="http://www.w3.org/2000/svg" xmlns:xlink="http://www.w3.org/1999/xlink">
    <title>icon_weather_UV</title>
    <g id="首页-和-目的地" stroke="none" stroke-width="1" fill="none" fill-rule="evenodd">
        <path d="M24.5,42.2857143 C25.4270494,42.2857143 26.1785714,43.0372363 26.1785714,43.9642857 L26.1785714,43.9642857 L26.1785714,47.3214286 C26.1785714,48.248478 25.4270494,49 24.5,49 C23.5729506,49 22.8214286,48.248478 22.8214286,47.3214286 L22.8214286,47.3214286 L22.8214286,43.9642857 C22.8214286,43.0372363 23.5729506,42.2857143 24.5,42.2857143 Z M10.2567969,37.3695982 C10.9149678,36.7303916 11.9644225,36.7380613 12.6131806,37.3868194 C13.2619387,38.0355775 13.2696084,39.0850322 12.6304018,39.7432031 L12.6304018,39.7432031 L10.2567969,42.116808 C9.60130297,42.7721619 8.53868587,42.7721619 7.88319196,42.116808 C7.22783807,41.4613141 7.22783807,40.398697 7.88319196,39.7432031 L7.88319196,39.7432031 Z M36.3690737,37.3690737 C37.0245676,36.7137198 38.0871847,36.7137198 38.7426786,37.3690737 L38.7426786,37.3690737 L41.1162835,39.7426786 C41.7554901,40.4008495 41.7478204,41.4503042 41.0990623,42.0990623 C40.4503042,42.7478204 39.4008495,42.7554901 38.7426786,42.1162835 L38.7426786,42.1162835 L36.3690737,39.7426786 C35.7137198,39.0871847 35.7137198,38.0245676 36.3690737,37.3690737 Z M24.5,10.3928571 C32.8435491,10.3928571 39.6071429,17.1564509 39.6071429,25.5 C39.6071429,33.8435491 32.8435491,40.6071429 24.5,40.6071429 C16.1564509,40.6071429 9.39285714,33.8435491 9.39285714,25.5 C9.39285714,17.1564509 16.1564509,10.3928571 24.5,10.3928571 Z M24.5,13.75 C18.0107478,13.75 12.75,19.0107478 12.75,25.5 C12.75,31.9892522 18.0107478,37.25 24.5,37.25 C30.9892522,37.25 36.25,31.9892522 36.25,25.5 C36.25,19.0107478 30.9892522,13.75 24.5,13.75 Z M17.9179018,21.7274107 L17.9179018,27.4303571 L17.9214425,27.6614886 C17.937966,28.1819768 18.0123214,28.5707366 18.1445089,28.8277679 C18.3795089,29.348125 18.8914732,29.6083036 19.6804018,29.6083036 C20.4651339,29.6083036 20.975,29.348125 21.21,28.8277679 C21.3610714,28.5340179 21.4366071,28.0682143 21.4366071,27.4303571 L21.4366071,27.4303571 L21.4366071,21.7274107 L23.4068304,21.7274107 L23.4068304,27.4303571 L23.4022353,27.7196589 C23.3746647,28.567925 23.2230268,29.2394375 22.9473214,29.7341964 C22.3766071,30.7413393 21.2876339,31.2449107 19.6804018,31.2449107 C18.0731696,31.2449107 16.9820982,30.7413393 16.4071875,29.7341964 C16.1008482,29.1844643 15.9476786,28.4165179 15.9476786,27.4303571 L15.9476786,27.4303571 L15.9476786,21.7274107 L17.9179018,21.7274107 Z M27.4479911,21.7274107 L29.4622768,28.7711161 L31.4954464,21.7274107 L33.5097321,21.7274107 L30.3435268,31.0057143 L28.5117857,31.0057143 L25.3770536,21.7274107 L27.4479911,21.7274107 Z M6.03571429,23.8214286 C6.96276369,23.8214286 7.71428571,24.5729506 7.71428571,25.5 C7.71428571,26.4270494 6.96276369,27.1785714 6.03571429,27.1785714 L6.03571429,27.1785714 L2.67857143,27.1785714 C1.75152203,27.1785714 1,26.4270494 1,25.5 C1,24.5729506 1.75152203,23.8214286 2.67857143,23.8214286 L2.67857143,23.8214286 Z M46.3214286,23.8214286 C47.248478,23.8214286 48,24.5729506 48,25.5 C48,26.4270494 47.248478,27.1785714 46.3214286,27.1785714 L46.3214286,27.1785714 L42.9642857,27.1785714 C42.0372363,27.1785714 41.2857143,26.4270494 41.2857143,25.5 C41.2857143,24.5729506 42.0372363,23.8214286 42.9642857,23.8214286 L42.9642857,23.8214286 Z M38.7426786,8.88371652 C39.4008495,8.24450989 40.4503042,8.25217963 41.0990623,8.90093771 C41.7478204,9.54969579 41.7554901,10.5991505 41.1162835,11.2573214 L41.1162835,11.2573214 L38.7426786,13.6309263 C38.0871847,14.2862802 37.0245676,14.2862802 36.3690737,13.6309263 C35.7137198,12.9754324 35.7137198,11.9128153 36.3690737,11.2573214 L36.3690737,11.2573214 Z M7.88319196,8.88319196 C8.53868587,8.22783807 9.60130297,8.22783807 10.2567969,8.88319196 L10.2567969,8.88319196 L12.6304018,11.2567969 C13.2696084,11.9149678 13.2619387,12.9644225 12.6131806,13.6131806 C11.9644225,14.2619387 10.9149678,14.2696084 10.2567969,13.6304018 L10.2567969,13.6304018 L7.88319196,11.2567969 C7.22783807,10.601303 7.22783807,9.53868587 7.88319196,8.88319196 Z M24.5,2 C25.4270494,2 26.1785714,2.75152203 26.1785714,3.67857143 L26.1785714,3.67857143 L26.1785714,7.03571429 C26.1785714,7.96276369 25.4270494,8.71428571 24.5,8.71428571 C23.5729506,8.71428571 22.8214286,7.96276369 22.8214286,7.03571429 L22.8214286,7.03571429 L22.8214286,3.67857143 C22.8214286,2.75152203 23.5729506,2 24.5,2 Z" id="形状结合备份-3" fill="#4D4D4D" fill-rule="nonzero"></path>
    </g>
</svg>