<?xml version="1.0" encoding="UTF-8"?>
<svg width="50px" height="50px" viewBox="0 0 50 50" version="1.1" xmlns="http://www.w3.org/2000/svg" xmlns:xlink="http://www.w3.org/1999/xlink">
    <title>icon_weather_humidity</title>
    <g id="首页-和-目的地" stroke="none" stroke-width="1" fill="none" fill-rule="evenodd">
        <path d="M37.0535307,18.1745325 L25.6275627,4.56099734 C25.0261959,3.81300089 23.8234624,3.81300089 23.3724374,4.56099734 L11.9464693,18.1745325 C6.68451025,24.4577026 6.68451025,33.7328584 11.9464693,40.0160285 C14.953303,43.90561 19.6138952,46 24.4248292,46 C29.2357631,46 33.8963553,43.90561 37.0535307,40.1656278 C42.3154898,33.7328584 42.3154898,24.6073019 37.0535307,18.1745325 Z M34.6480638,38.220837 C32.0922551,41.2128228 28.333713,43.0080142 24.4248292,43.0080142 C20.5159453,43.0080142 16.7574032,41.2128228 14.2015945,38.220837 C9.84168564,32.9848619 9.84168564,25.3552983 14.2015945,20.1193233 L24.4248292,8.00178097 L34.6480638,20.2689225 C39.1583144,25.3552983 39.1583144,32.9848619 34.6480638,38.220837 Z M23.2220957,26.1032947 C23.2220957,22.9617097 22.0193622,22.064114 20.0649203,22.064114 C18.1104784,22.064114 16.9077449,22.9617097 16.9077449,26.1032947 C16.9077449,29.2448798 18.1104784,30.1424755 20.0649203,30.1424755 C22.0193622,29.9928762 23.2220957,29.2448798 23.2220957,26.1032947 Z M18.8621868,26.1032947 C18.8621868,24.158504 19.1628702,23.7097062 20.0649203,23.7097062 C20.9669704,23.7097062 21.2676538,24.158504 21.2676538,26.1032947 C21.2676538,28.0480855 20.9669704,28.4968834 20.0649203,28.4968834 C19.1628702,28.4968834 18.8621868,28.0480855 18.8621868,26.1032947 Z M27.5820046,22.2137133 L19.3132119,36.7248442 L21.2676538,36.7248442 L29.5364465,22.2137133 L27.5820046,22.2137133 Z M28.7847381,29.0952805 C26.8302962,29.0952805 25.6275627,29.9928762 25.6275627,33.1344613 C25.6275627,36.2760463 26.8302962,37.173642 28.7847381,37.173642 C30.73918,37.173642 31.9419135,36.2760463 31.9419135,33.1344613 C31.9419135,29.9928762 30.73918,29.0952805 28.7847381,29.0952805 Z M28.7847381,35.5280498 C27.8826879,35.5280498 27.5820046,35.079252 27.5820046,33.1344613 C27.5820046,31.1896705 27.8826879,30.7408727 28.7847381,30.7408727 C29.6867882,30.7408727 29.9874715,31.1896705 29.9874715,33.1344613 C29.9874715,34.9296527 29.6867881,35.5280498 28.7847381,35.5280498 Z" id="形状备份-2" fill="#4D4D4D" fill-rule="nonzero"></path>
    </g>
</svg>