<?xml version="1.0" encoding="UTF-8"?>
<svg width="50px" height="50px" viewBox="0 0 50 50" version="1.1" xmlns="http://www.w3.org/2000/svg" xmlns:xlink="http://www.w3.org/1999/xlink">
    <title>icon_weather_rainprobability</title>
    <g id="首页-和-目的地" stroke="none" stroke-width="1" fill="none" fill-rule="evenodd">
        <path d="M15.8441831,38.6553664 C18.7122074,41.1317708 19.1460557,43.1987184 19.1951662,44.0106097 C19.2093984,44.1318644 19.2174977,44.2549917 19.2174977,44.3800386 C19.2174977,46.1417895 17.7667954,47.569973 15.9772823,47.569973 C14.1877692,47.569973 12.737066,46.1417895 12.737066,44.3800386 C12.737066,44.3320049 12.7385651,44.283503 12.7408123,44.2348607 C12.7415146,44.2196922 12.7424509,44.2045705 12.7433404,44.1894487 L12.7433404,44.1894487 L12.7513928,44.0854693 L12.7513928,44.0854693 L12.7553722,44.0418364 C13.0090707,41.637857 15.8432467,38.657239 15.8432467,38.657239 L15.8432467,38.657239 Z M29.1998479,38.5617334 C32.0798572,40.8967053 32.5155313,42.8455817 32.5648759,43.6111248 C32.579155,43.7254974 32.587301,43.8416023 32.587301,43.9594862 C32.587301,45.6206285 31.1305595,46.9672577 29.3335557,46.9672577 C27.536552,46.9672577 26.0798064,45.6206285 26.0798064,43.9594862 C26.0797167,43.9141678 26.0812617,43.8684749 26.0835557,43.8225948 C26.084258,43.8082689 26.0851943,43.7940367 26.0860838,43.7797577 C26.0881905,43.7472203 26.0909059,43.7145424 26.0941362,43.681724 C26.0954939,43.6680068 26.0966175,43.6542427 26.0981625,43.6405723 C26.3528909,41.3739057 29.1989115,38.5635124 29.1989115,38.5635124 L29.1989115,38.5635124 Z M23.704155,3.024327 C29.1604752,3.024327 33.9025632,6.08003862 36.3140333,10.5731566 C42.3051381,10.8152446 47.0879097,15.7478289 47.0879097,21.7983907 C47.0879097,27.9173045 42.1963834,32.8934281 36.1103816,33.0305068 L36.1103816,33.0305068 L36.1103816,33.0452072 L34.3580876,33.0452072 C34.370728,33.1553664 34.377891,33.2672109 34.377891,33.3807409 C34.377891,34.9923982 33.0713834,36.2989525 31.4596793,36.2989525 C29.848022,36.2989525 28.5414677,34.992445 28.5414677,33.3807409 C28.5414677,33.2671641 28.5486307,33.1553664 28.5612711,33.0452072 L28.5612711,33.0452072 L21.901346,33.0452072 L21.901346,34.176621 C21.901346,35.7882784 20.5948385,37.0948327 18.9831344,37.0948327 C17.3714771,37.0948327 16.0649228,35.7883251 16.0649228,34.176621 L16.0649228,34.176621 L16.0649228,33.0452072 L13.2307936,33.0452072 C13.0945576,33.0503102 12.9577598,33.0532128 12.8203066,33.0532128 C6.84755386,33.0532128 2.0056999,28.2113589 2.0056999,22.2386061 C2.0056999,17.0377165 5.6772355,12.6949263 10.5696044,11.6592053 C12.7644546,6.57957046 17.8187617,3.024327 23.704155,3.024327 Z M23.7216175,6.24296001 C21.1868797,6.24296001 18.8514396,7.09473901 16.9845389,8.5268083 C16.9616924,8.54431768 16.9387056,8.5617334 16.9159527,8.57943003 C16.8899696,8.59970156 16.8641269,8.62016035 16.8382842,8.64066597 C16.7876756,8.68074087 16.7373479,8.72119033 16.6874415,8.76215474 C16.6817767,8.76683638 16.6760183,8.77137759 16.6703535,8.77605923 C15.7289677,9.55143379 14.9177786,10.4791959 14.2746138,11.5216585 C14.2764864,11.5219394 14.2783591,11.5222671 14.2802317,11.5225012 C13.6605688,12.5290087 13.1970857,13.6418832 12.9241456,14.8277446 L12.9241456,14.8277446 L12.7880969,14.8260124 C8.66838721,14.8260124 5.32868682,18.1657128 5.32868682,22.2854225 C5.32868682,26.3789618 8.62615869,29.7017614 12.7097261,29.7438495 L12.7097261,29.7438495 L12.7097261,29.7446454 L35.0833216,29.7446454 C35.2896887,29.7683345 36.110522,29.7492802 36.110522,29.7492802 C40.477095,29.6912746 43.999052,26.180975 43.999052,21.8006379 C43.999052,18.3057409 41.7568704,15.3349544 38.632713,14.2470799 C38.6216175,14.243241 38.6105688,14.2392147 38.5994265,14.2353758 C38.5663741,14.2240462 38.5331812,14.2130912 38.4999415,14.2021829 C38.4703066,14.1924451 38.4407187,14.1827072 38.4109434,14.1732971 C38.3882842,14.1661342 38.3655782,14.1591118 38.3428254,14.1521829 C38.2993797,14.1388871 38.2558404,14.1259189 38.2121138,14.1133252 L38.2121138,14.1133252 L38.1762523,14.1030724 C37.9894546,14.0502166 37.8000352,14.0034938 37.6079471,13.9641211 C37.6079939,13.9644488 37.6080875,13.9648233 37.6081812,13.9651979 L37.29474,13.9078035 C36.8740089,13.8394169 36.4422636,13.8038214 36.0021887,13.8038214 C35.4145951,13.8038214 34.8419827,13.8677728 34.2904377,13.9880911 C32.8751756,9.49853115 28.6787805,6.24296001 23.7216175,6.24296001 Z" id="形状结合备份-2" fill="#4D4D4D" fill-rule="nonzero"></path>
    </g>
</svg>