<?xml version="1.0" encoding="UTF-8"?>
<svg width="50px" height="50px" viewBox="0 0 50 50" version="1.1" xmlns="http://www.w3.org/2000/svg" xmlns:xlink="http://www.w3.org/1999/xlink">
    <title>icon_weather_wind</title>
    <g id="首页-和-目的地" stroke="none" stroke-width="1" fill="none" fill-rule="evenodd">
        <path d="M30.1759619,31.0132129 C33.9369775,31.0132129 36.4444531,32.9831494 37.0712451,36.296626 C37.6085645,39.2516406 35.9071338,42.2067871 33.1309326,43.1918652 C32.414624,43.3708984 31.6981836,43.4605908 30.8923584,43.4605908 C28.6536523,43.4605908 26.5044629,42.2962598 25.4299561,40.3263232 C25.1612744,39.8785645 24.5343506,38.8038818 25.6984619,38.0875293 C25.9670996,37.90854 26.2357812,37.8188916 26.5044189,37.8188916 C27.1312109,37.8188916 27.5791455,38.3562109 27.8476514,38.8935742 C28.5640039,40.0576855 29.549082,40.6844336 30.8027979,40.6844336 L30.8027979,40.6844336 L31.4297217,40.6844336 C32.8625146,40.5053564 33.847373,39.6099268 34.2952637,38.0875293 C34.5637256,37.1024512 34.3847363,36.117417 33.7579883,35.3115918 C33.220625,34.5055469 32.3251514,33.9682275 31.3401172,33.8788428 C30.2654346,33.7891943 29.1012793,33.7891943 28.2058496,33.7891943 L6.71421875,33.7891943 C6.5351416,33.7891943 6.26645996,33.7891943 5.99782227,33.6101172 C5.63953613,33.431084 5.10234863,32.8937207 5.10234863,32.4460059 C5.10234863,31.998291 5.55010742,31.4608838 5.90826172,31.1922461 C6.17685547,31.0132129 6.44558105,31.0132129 6.71421875,31.0132129 Z M36.8025635,11.9391895 C40.4741064,11.9391895 43.4291211,14.3570166 44.1454736,17.8495264 C44.8618701,21.7895752 42.5336914,25.4611621 38.5936426,26.3565479 C37.7875977,26.5355811 36.9815527,26.5355811 36.1757715,26.5355811 L36.1757715,26.5355811 L6.89342773,26.5355811 C6.89342773,26.7148779 6.80395508,26.7148779 6.62474609,26.7148779 L6.5166002,26.7141607 C6.37048379,26.711292 6.21286426,26.6969482 5.9979541,26.6252295 C5.63966797,26.4462402 5.01291992,25.9984375 5.01291992,25.4611182 C5.01291992,25.0134033 5.46059082,24.3864355 5.81887695,24.1177539 C6.08751465,23.9387207 6.44566895,23.9387207 6.71430664,23.9387207 L6.71430664,23.9387207 L36.444541,23.9387207 C38.9517529,23.9387207 40.742876,22.7746533 41.369624,20.7150244 C42.0860205,18.4762305 40.9219531,15.9690186 38.6831152,15.0733252 C38.145752,14.8943359 37.6086084,14.7152588 36.9816406,14.7152588 C35.1907812,14.7152588 33.5789551,15.7003369 32.8625586,17.3121631 C32.772998,17.4911963 32.6833496,17.6702734 32.6833496,17.8494824 C32.593833,18.0285596 32.593833,18.1181641 32.5042725,18.2972412 C32.2355908,18.9240332 31.7879199,19.2823193 31.3401611,19.2823193 C31.161084,19.2823193 30.8924023,19.1926709 30.7133252,19.1031104 C30.2654785,18.8346484 29.8178076,17.939043 29.9073682,17.4018555 C30.4447314,14.8047754 33.0415918,12.387124 35.8175293,12.0288379 C36.1758154,12.0288379 36.5338818,11.9391895 36.8025635,11.9391895 Z M21.7583691,7.01415039 C25.1612305,7.28278809 27.6685303,10.1483301 27.5791016,13.4616309 C27.4894531,16.8645361 24.8029883,19.4613525 21.4896875,19.551001 L21.4896875,19.551001 L18.6241455,19.551001 C17.9831985,19.6310161 15.6216741,19.6394388 14.6826826,19.6403254 L6.80382324,19.6404297 C6.26645996,19.6404297 5.72914062,19.6404297 5.37107422,19.2824072 C5.10234863,19.0137256 5.01278809,18.6554395 5.01278809,18.2973291 C5.01278809,16.8645801 6.26650391,16.8645801 7.0723291,16.8645801 L21.3106104,16.8645801 C23.1014697,16.8645801 24.5342627,15.6108203 24.8029443,13.8199609 C24.9820215,12.0288818 23.9970752,10.5064404 22.2059961,9.96934082 C21.9373584,9.87969238 21.6686768,9.87969238 21.4000391,9.87969238 C20.3255762,9.87969238 19.2508496,10.4170117 18.6241016,11.3124414 C18.534541,11.4020459 18.4450684,11.5810791 18.3554639,11.6707275 C18.2660791,11.7602002 18.1764746,11.9391895 18.0868262,12.0288818 C17.7286719,12.4765527 17.280957,12.7452344 16.9227148,12.7452344 C16.6540332,12.7452344 16.3853516,12.6556299 16.2063184,12.387124 C15.7586035,12.0288818 15.5794824,11.0437598 15.7586035,10.5960889 C16.5645605,8.53654785 18.8927832,7.01415039 21.3106543,7.01415039 L21.3106543,7.01415039 Z" id="形状结合" fill="#4D4D4D" fill-rule="nonzero"></path>
    </g>
</svg>