<?xml version="1.0" encoding="UTF-8"?>
<svg width="80px" height="80px" viewBox="0 0 80 80" version="1.1" xmlns="http://www.w3.org/2000/svg" xmlns:xlink="http://www.w3.org/1999/xlink">
    <title>icon_tips05</title>
    <g id="首页-和-目的地" stroke="none" stroke-width="1" fill="none" fill-rule="evenodd">
        <g id="目的地疫情" transform="translate(-22.000000, -1287.000000)">
            <g id="icon_tips05" transform="translate(22.000000, 1287.000000)">
                <rect id="矩形" fill="#016F7E" x="0" y="0" width="80" height="80"></rect>
                <path d="M51,15 C52.1045695,15 53,15.8954305 53,17 L53,29 L54,29 L54,22 C54,20.8954305 54.8954305,20 56,20 C57.1045695,20 58,20.8954305 58,22 L58,29 L62,29 C63.1045695,29 64,29.8954305 64,31 C64,32.1045695 63.1045695,33 62,33 L58,33 L58,40 C58,41.1045695 57.1045695,42 56,42 C54.8954305,42 54,41.1045695 54,40 L54,33 L53,33 L53,45 C53,46.1045695 52.1045695,47 51,47 C49.8954305,47 49,46.1045695 49,45 L49,33 L31,33 L31,45 C31,46.1045695 30.1045695,47 29,47 C27.8954305,47 27,46.1045695 27,45 L27,33 L26,33 L26,40 C26,41.1045695 25.1045695,42 24,42 C22.8954305,42 22,41.1045695 22,40 L22,33 L18,33 C16.8954305,33 16,32.1045695 16,31 C16,29.8954305 16.8954305,29 18,29 L22,29 L22,22 C22,20.8954305 22.8954305,20 24,20 C25.1045695,20 26,20.8954305 26,22 L26,29 L27,29 L27,17 C27,15.8954305 27.8954305,15 29,15 C30.1045695,15 31,15.8954305 31,17 L31,29 L49,29 L49,17 C49,15.8954305 49.8954305,15 51,15 Z" id="形状结合" fill="#FFFFFF"></path>
                <path d="M9.628,73.284 L9.628,64.944 C9.856,64.416 10.06,63.864 10.24,63.3 L10.24,64.332 L11.488,64.332 C11.068,65.148 10.6,65.916 10.096,66.612 L10.096,67.5 L11.8,67.5 C11.752,68.316 11.62,69.036 11.416,69.684 C11.128,69.18 10.9,68.604 10.756,67.956 L9.748,68.352 C10.024,69.348 10.396,70.188 10.864,70.884 C10.552,71.388 10.144,71.82 9.664,72.156 L10.276,73.248 C10.816,72.864 11.284,72.384 11.668,71.808 C11.908,72.024 12.172,72.204 12.472,72.372 C13.264,72.816 14.752,73.044 16.936,73.068 L18.34,73.068 L18.568,71.892 C17.752,71.916 16.96,71.94 16.18,71.94 C14.884,71.892 13.924,71.736 13.3,71.472 C12.916,71.304 12.556,71.052 12.22,70.74 C12.628,69.744 12.844,68.544 12.88,67.152 L12.88,66.456 L11.536,66.456 C11.944,65.832 12.376,65.076 12.808,64.176 L12.808,63.156 L10.276,63.156 L10.42,62.664 L9.292,62.136 C8.872,63.888 8.224,65.412 7.336,66.708 L7.756,68.052 C7.996,67.74 8.212,67.44 8.428,67.128 L8.428,73.284 L9.628,73.284 Z M15.844,71.592 L15.844,70.608 L18.364,70.608 L18.364,69.6 L15.844,69.6 L15.844,69 L17.992,69 L17.992,68.04 L15.844,68.04 L15.844,67.38 L17.884,67.38 L17.884,65.712 L18.532,65.712 L18.532,64.728 L17.884,64.728 L17.884,63.048 L15.844,63.048 L15.844,62.22 L14.656,62.22 L14.656,63.048 L13.312,63.048 L13.312,64.032 L14.656,64.032 L14.656,64.728 L12.844,64.728 L12.844,65.712 L14.656,65.712 L14.656,66.396 L13.312,66.396 L13.312,67.38 L14.656,67.38 L14.656,68.04 L13.228,68.04 L13.228,69 L14.656,69 L14.656,69.6 L12.844,69.6 L12.844,70.608 L14.656,70.608 L14.656,71.592 L15.844,71.592 Z M16.78,64.728 L15.844,64.728 L15.844,64.032 L16.78,64.032 L16.78,64.728 Z M16.78,66.396 L15.844,66.396 L15.844,65.712 L16.78,65.712 L16.78,66.396 Z M27.268,73.272 C28.012,73.272 28.384,72.876 28.384,72.084 L28.384,69.636 C29.224,68.856 29.92,67.944 30.496,66.9 L29.428,66.228 C29.188,66.852 28.84,67.44 28.384,68.004 L28.384,63.036 L25.036,63.036 C25.156,62.772 25.252,62.496 25.324,62.208 L24.004,62.028 C23.932,62.376 23.824,62.712 23.704,63.036 L21.268,63.036 L21.268,68.688 L19.924,68.688 L19.924,69.84 L26.356,69.84 C24.988,70.752 22.876,71.448 19.996,71.952 L20.56,73.08 C22.912,72.672 24.928,71.976 26.608,70.98 L27.148,70.632 L27.148,70.632 L27.148,71.808 C27.148,72.024 27.052,72.144 26.872,72.144 L25.672,72.084 L25.984,73.272 L27.268,73.272 Z M27.148,64.944 L22.516,64.944 L22.516,64.14 L27.148,64.14 L27.148,64.944 Z M27.148,66.756 L22.516,66.756 L22.516,65.988 L27.148,65.988 L27.148,66.756 Z M27.148,68.688 L22.516,68.688 L22.516,67.812 L27.148,67.812 L27.148,68.688 Z M32.296,73.26 C33.328,71.592 33.844,69.6 33.856,67.284 L33.856,66.408 L41.8,66.408 L41.8,62.952 L37.888,62.952 C37.78,62.616 37.672,62.304 37.564,62.016 L36.208,62.232 C36.316,62.448 36.424,62.688 36.52,62.952 L32.596,62.952 L32.596,67.284 C32.584,69.384 32.176,71.1 31.36,72.42 L32.296,73.26 Z M40.564,65.256 L33.856,65.256 L33.856,64.116 L40.564,64.116 L40.564,65.256 Z M34.168,73.236 C35.392,72.612 36.244,71.724 36.748,70.584 L40.288,70.584 C40.228,71.244 40.192,71.64 40.168,71.76 C40.12,71.88 40.024,71.964 39.88,72.012 C39.712,72.06 39.34,72.096 38.752,72.096 C38.488,72.096 38.236,72.084 37.972,72.06 L38.308,73.188 L38.428,73.188 C39.592,73.188 40.336,73.128 40.66,73.032 C40.972,72.936 41.188,72.744 41.296,72.456 C41.392,72.168 41.488,71.172 41.56,69.456 L37.084,69.456 C37.132,69.192 37.168,68.916 37.192,68.628 L42.364,68.628 L42.364,67.452 L38.704,67.452 C38.608,67.116 38.512,66.804 38.416,66.528 L37.084,66.744 C37.192,66.96 37.288,67.2 37.384,67.452 L34.192,67.452 L34.192,68.628 L35.92,68.628 C35.776,70.284 34.972,71.46 33.484,72.144 L34.168,73.236 Z M44.512,73.2 L48.676,62.16 L47.5,62.16 L43.324,73.2 L44.512,73.2 Z M58.228,64.308 L58.684,63.168 C57.676,62.688 56.608,62.328 55.492,62.064 L54.976,63.084 C56.104,63.372 57.184,63.78 58.228,64.308 Z M52.06,64.728 L52.912,63.876 C52.384,63.324 51.724,62.772 50.956,62.22 L50.104,63.036 C50.944,63.636 51.604,64.2 52.06,64.728 Z M56.164,73.164 C56.992,73.164 57.412,72.684 57.412,71.736 L57.412,68.328 C58.024,69.732 58.816,70.968 59.8,72.024 L60.664,71.004 C59.692,70.14 58.9,69.096 58.276,67.872 C59.092,67.368 59.824,66.636 60.46,65.7 L59.5,64.908 C59.02,65.7 58.468,66.36 57.832,66.876 C57.676,66.492 57.532,66.108 57.412,65.7 L57.412,64.332 L53.584,64.332 L53.584,65.52 L56.176,65.52 L56.176,71.364 C56.176,71.772 56.044,71.988 55.78,71.988 L54.64,71.94 L54.976,73.164 L56.164,73.164 Z M51.46,67.728 L52.312,66.876 C51.796,66.288 51.16,65.7 50.404,65.112 L49.552,65.928 C50.368,66.576 51.004,67.176 51.46,67.728 Z M52.816,72.108 C54.28,71.136 55.24,69.708 55.696,67.836 L55.696,66.9 L52.756,66.9 L52.756,68.04 L54.472,68.04 C54.028,69.36 53.224,70.38 52.072,71.112 L52.816,72.108 Z M50.92,73.104 C51.472,71.76 51.976,70.32 52.432,68.784 L51.328,68.352 C50.872,69.792 50.32,71.184 49.684,72.552 L50.92,73.104 Z M70.576,72.96 C71.272,72.96 71.752,72.828 72.016,72.576 C72.28,72.3 72.448,71.532 72.544,70.272 L71.368,69.876 C71.32,70.824 71.224,71.376 71.092,71.544 C70.936,71.688 70.684,71.772 70.348,71.772 L67.264,71.772 C66.88,71.772 66.688,71.58 66.688,71.208 L66.688,66.78 L68.008,66.348 L68.008,70.608 L69.244,70.608 L69.244,65.94 L70.66,65.472 C70.66,66.888 70.636,67.716 70.612,67.944 C70.588,68.208 70.504,68.352 70.36,68.352 C70.144,68.352 69.88,68.34 69.58,68.34 L69.928,69.504 L70.12,69.504 C71.032,69.504 71.56,69.216 71.692,68.652 C71.812,68.076 71.872,66.444 71.872,63.756 L69.244,64.632 L69.244,62.124 L68.008,62.124 L68.008,65.052 L66.688,65.496 L66.688,63.192 L65.44,63.192 L65.44,65.916 L64.588,66.204 L64.588,67.464 L65.44,67.188 L65.44,71.4 C65.44,72.432 65.944,72.96 66.976,72.96 L70.576,72.96 Z M63.772,64.98 L64.672,64.092 C64.096,63.492 63.388,62.904 62.56,62.304 L61.672,63.168 C62.584,63.816 63.28,64.428 63.772,64.98 Z M63.412,67.86 L64.3,66.96 C63.772,66.384 63.112,65.82 62.344,65.244 L61.456,66.108 C62.308,66.732 62.956,67.308 63.412,67.86 Z M62.824,73.236 C63.424,71.916 63.976,70.5 64.456,68.988 L63.316,68.532 C62.824,69.948 62.236,71.328 61.564,72.684 L62.824,73.236 Z" id="健身房/泳池" fill="#FFFFFF" fill-rule="nonzero"></path>
            </g>
        </g>
    </g>
</svg>