<?xml version="1.0" encoding="UTF-8"?>
<svg width="80px" height="80px" viewBox="0 0 80 80" version="1.1" xmlns="http://www.w3.org/2000/svg" xmlns:xlink="http://www.w3.org/1999/xlink">
    <title>icon_tips01</title>
    <g id="首页-和-目的地" stroke="none" stroke-width="1" fill="none" fill-rule="evenodd">
        <g id="目的地疫情" transform="translate(-22.000000, -833.000000)">
            <g id="icon_tips01" transform="translate(22.000000, 833.000000)">
                <rect id="矩形" fill="#016F7E" x="0" y="0" width="80" height="80"></rect>
                <path d="M30.2936198,23.4329427 C32.1543781,23.4329427 33.8737897,22.44024 34.8041688,20.8287761 C35.734548,19.2173121 35.734548,17.2319066 34.8041688,15.6204427 C33.8737897,14.0089787 32.1543781,13.016276 30.2936198,13.016276 C27.4171367,13.016276 25.0852864,15.3481263 25.0852864,18.2246094 C25.0852864,21.1010925 27.4171367,23.4329427 30.2936198,23.4329427 L30.2936198,23.4329427 Z M48,8 C51.7854517,8 54.8690987,11.0047834 54.995941,14.7593502 L55,15 L55,19 C55,22.7854517 51.9952166,25.8690987 48.2406498,25.995941 L48,26 L39,26 L39,24 L48,24 C50.6887547,24 52.8818181,21.8776933 52.9953805,19.2168896 L53,19 L53,15 C53,12.3112453 50.8776933,10.1181819 48.2168896,10.0046195 L48,10 L39,10 C37.6524858,10 36.3931801,10.5347723 35.463856,11.4650062 L35.2824626,11.6562845 L33.7959822,10.3182351 C35.0517951,8.92311376 36.8123958,8.08265883 38.7137817,8.00577904 L39,8 L48,8 Z M46.2884115,35.022526 L38.3904948,35.022526 L36.0967448,28.1058594 C34.7425781,22.2454427 26.3259114,23.985026 27.2373698,29.7183594 L29.8957031,37.3329427 C30.2967448,39.2944011 31.7915365,40.9516927 34.3394531,40.9516927 L44.5217448,40.9516927 L44.5217448,50.8089844 C44.5217448,54.5641927 50.0852865,54.5829427 50.0852865,50.875651 L50.0852865,38.8183594 C50.0852865,37.003776 48.7842448,35.0235677 46.2884115,35.0235677 L46.2884115,35.022526 Z M40.7269531,42.291276 L34.3769531,42.291276 C30.5936198,42.291276 30.5936198,41.647526 29.1384115,37.991276 C27.9384115,34.9746094 24.6488281,26.791276 24.6488281,26.791276 C23.6207031,24.5558594 20.4957031,26.0089844 21.1227865,27.938151 L25.4165365,39.2954427 C27.7727865,45.5266927 27.7613281,46.3496094 33.1207031,46.3496094 L40.7634115,46.3496094 C43.4696615,46.3496094 43.4832031,42.291276 40.7269531,42.291276 L40.7269531,42.291276 Z" id="形状" fill="#FFFFFF" fill-rule="nonzero"></path>
                <path d="M13.624,73.26 L13.624,69.876 C14.8,71.028 16.192,71.964 17.8,72.66 L18.508,71.448 C16.48,70.704 14.848,69.696 13.624,68.424 L13.624,65.376 L18.328,65.376 L18.328,64.224 L13.624,64.224 L13.624,63.54 C15.004,63.444 16.216,63.312 17.272,63.144 L16.672,62.088 C14.464,62.412 11.788,62.58 8.62,62.58 L8.992,63.672 C10.192,63.672 11.32,63.648 12.376,63.6 L12.376,64.224 L7.66,64.224 L7.66,65.376 L12.376,65.376 L12.376,68.46 C11.236,69.66 9.604,70.68 7.468,71.544 L8.248,72.708 C9.832,71.964 11.212,71.052 12.376,69.948 L12.376,73.26 L13.624,73.26 Z M17.14,69.276 C17.524,69.276 17.824,69.204 18.016,69.072 C18.208,68.928 18.34,68.484 18.424,67.728 L17.26,67.368 C17.248,67.776 17.212,68.028 17.152,68.112 C17.092,68.184 17.008,68.232 16.9,68.232 L16.084,68.232 C15.808,68.232 15.676,68.052 15.676,67.692 L15.676,67.464 C16.564,67.344 17.368,67.164 18.076,66.924 L17.68,65.88 C17.068,66.132 16.396,66.324 15.676,66.444 L15.676,65.676 L14.452,65.676 L14.452,67.932 C14.452,68.82 14.884,69.276 15.748,69.276 L17.14,69.276 Z M8.068,69.288 C8.86,69.144 9.592,68.988 10.252,68.832 L10.252,69.24 L11.488,69.24 L11.488,65.688 L10.252,65.688 L10.252,66.156 L8.044,66.156 L8.044,67.236 L10.252,67.236 L10.252,67.836 C9.484,67.956 8.644,68.064 7.72,68.16 L8.068,69.288 Z M28.984,73.02 C29.284,73.02 29.572,72.888 29.86,72.648 C30.244,72.192 30.508,71.46 30.628,70.44 L29.428,70.02 C29.368,70.704 29.296,71.148 29.224,71.364 C29.128,71.556 29.02,71.652 28.9,71.664 C28.36,71.64 27.868,71.184 27.436,70.284 C27.196,69.792 27.028,68.94 26.932,67.728 C27.796,68.172 28.636,68.724 29.464,69.372 L30.184,68.268 C29.236,67.62 28.204,67.044 27.076,66.564 C28.12,66.06 29.056,65.472 29.872,64.776 L29.176,63.792 C28.456,64.428 27.676,64.968 26.812,65.4 C26.794,65.058 26.7895,64.69575 26.788375,64.31325 L26.788,62.712 L19.396,62.712 L19.396,63.972 L25.528,63.972 C25.528,67.692 25.864,70.14 26.536,71.292 C27.184,72.432 28,73.008 28.984,73.02 Z M34.54,73.2 L34.54,67.296 C34.792,67.716 35.08,68.232 35.416,68.832 L36.148,67.728 C35.608,67.104 35.068,66.528 34.54,66.012 L34.54,65.568 L35.884,65.568 L35.884,64.356 L34.54,64.356 L34.54,62.148 L33.292,62.148 L33.292,64.356 L31.648,64.356 L31.648,65.568 L33.232,65.568 C32.836,66.912 32.224,68.1 31.384,69.132 L31.924,70.5 C32.464,69.66 32.92,68.748 33.292,67.764 L33.292,73.2 L34.54,73.2 Z M36.172,73.344 C36.736,72.456 37.12,71.52 37.324,70.56 C37.54,69.6 37.648,68.448 37.648,67.092 L37.648,63.696 L39.352,63.696 L39.352,71.772 C39.352,72.564 39.808,72.972 40.732,72.972 L41.272,72.972 C41.692,72.972 42.004,72.888 42.196,72.732 C42.388,72.54 42.508,72.228 42.556,71.772 C42.604,71.316 42.64,70.62 42.64,69.708 L41.488,69.348 C41.488,70.62 41.464,71.352 41.416,71.52 C41.392,71.604 41.368,71.676 41.32,71.724 C41.272,71.772 41.2,71.796 41.104,71.796 L40.744,71.796 C40.66,71.796 40.624,71.736 40.624,71.628 L40.624,62.52 L36.4,62.52 L36.4,67.092 C36.4,68.448 36.316,69.468 36.16,70.152 C35.968,70.944 35.62,71.712 35.14,72.432 L36.172,73.344 Z M44.512,73.2 L48.676,62.16 L47.5,62.16 L43.324,73.2 L44.512,73.2 Z M60.34,64.176 L60.34,63.024 L55.708,63.024 C55.612,62.676 55.504,62.352 55.408,62.064 L54.004,62.304 C54.124,62.52 54.232,62.76 54.34,63.024 L49.648,63.024 L49.648,64.176 L60.34,64.176 Z M58.516,67.212 L58.516,64.668 L51.496,64.668 L51.496,67.212 L58.516,67.212 Z M57.316,66.276 L52.696,66.276 L52.696,65.604 L57.316,65.604 L57.316,66.276 Z M51.34,73.248 L51.34,68.772 L58.66,68.772 L58.66,71.712 C58.66,72 58.444,72.144 58.024,72.144 L57.1,72.108 L57.4,73.212 L58.384,73.212 C59.356,73.212 59.848,72.792 59.848,71.964 L59.848,67.692 L50.152,67.692 L50.152,73.248 L51.34,73.248 Z M57.484,71.844 L57.484,69.252 L52.54,69.252 L52.54,71.844 L57.484,71.844 Z M56.38,70.92 L53.644,70.92 L53.644,70.176 L56.38,70.176 L56.38,70.92 Z M63.268,73.008 C64.336,72.72 65.284,72.36 66.112,71.916 L65.896,70.824 C65.428,71.088 64.96,71.316 64.492,71.484 L64.492,69.204 L65.932,69.204 L65.932,68.052 L64.492,68.052 L64.492,66.924 L65.5,66.924 L65.5,65.808 L62.848,65.808 C63.04,65.412 63.22,64.992 63.388,64.56 L65.728,64.56 L65.728,63.372 L63.784,63.372 C63.868,63.072 63.952,62.76 64.036,62.424 L62.836,62.172 C62.548,63.54 62.044,64.836 61.336,66.036 L62.356,66.684 L62.62,66.228 L62.62,66.924 L63.268,66.924 L63.268,68.052 L61.804,68.052 L61.804,69.204 L63.268,69.204 L63.268,71.46 C63.268,71.688 63.1,71.856 62.764,71.964 L63.268,73.008 Z M66.556,73.32 C67.732,72.708 68.584,71.832 69.112,70.692 C69.208,70.452 69.304,70.188 69.4,69.912 C69.88,71.28 70.708,72.408 71.908,73.296 L72.604,72.168 C71.26,71.28 70.432,70.08 70.132,68.544 L72.376,68.544 L72.376,67.356 L69.904,67.356 C69.952,66.852 69.976,66.324 70,65.76 L70,65.376 L71.98,65.376 L71.98,64.176 L70,64.176 L70,62.184 L68.776,62.184 L68.776,64.176 L67.996,64.176 C68.08,63.828 68.164,63.468 68.236,63.096 L67.084,62.856 C66.856,64.08 66.472,65.244 65.92,66.348 L67.012,67.02 C67.24,66.516 67.456,65.976 67.66,65.376 L68.776,65.376 L68.776,65.76 C68.764,66.324 68.728,66.852 68.68,67.356 L66.232,67.356 L66.232,68.544 L68.5,68.544 C68.404,69 68.284,69.432 68.14,69.828 C67.744,70.8 66.988,71.604 65.872,72.252 L66.556,73.32 Z" id="乘飞机/高铁" fill="#FFFFFF" fill-rule="nonzero"></path>
            </g>
        </g>
    </g>
</svg>