<?xml version="1.0" encoding="UTF-8"?>
<svg width="80px" height="80px" viewBox="0 0 80 80" version="1.1" xmlns="http://www.w3.org/2000/svg" xmlns:xlink="http://www.w3.org/1999/xlink">
    <title>icon_tips12</title>
    <g id="首页-和-目的地" stroke="none" stroke-width="1" fill="none" fill-rule="evenodd">
        <g id="目的地疫情" transform="translate(-22.000000, -2079.000000)">
            <g id="icon_tips12" transform="translate(22.000000, 2079.000000)">
                <rect id="矩形" fill="#016F7E" x="0" y="0" width="80" height="80"></rect>
                <path d="M57.5258789,27.9614258 L57.5258789,51.484375 C57.5258789,53.2099609 56.1269531,54.6088867 54.4013672,54.6088867 L25.2392578,54.6088867 C23.5136719,54.6088867 22.1147461,53.2099609 22.1147461,51.484375 L22.1147461,27.9614258 C21.4026855,28.2141113 20.5928223,27.9186035 20.2209961,27.2336426 C19.809375,26.4753418 20.0903809,25.5269043 20.8486328,25.1152832 L39.0749512,15.2209961 C39.5398165,14.9686311 40.1008085,14.9686311 40.5656738,15.2209961 L58.7919922,25.1152832 C59.550293,25.5269043 59.83125,26.4753418 59.4196289,27.2336426 C59.0478027,27.9186035 58.2379395,28.2141113 57.5258789,27.9614258 Z M25.2392578,26.2870117 L25.2392578,51.484375 L54.4013672,51.484375 L54.4013672,26.2870117 L39.8203125,18.371582 L25.2392578,26.2870117 Z M31.7546875,42.4257813 L33.3048828,39.7129883 C35.5070801,40.9713867 37.6727539,41.5901367 39.8203125,41.5901367 C41.9678711,41.5901367 44.1335449,40.9713867 46.3357422,39.7129883 L47.8859375,42.4257813 C45.2277832,43.9447266 42.5331055,44.7146484 39.8203125,44.7146484 C37.1075195,44.7146484 34.4128418,43.9447266 31.7546875,42.4257813 L31.7546875,42.4257813 Z" id="形状" fill="#FFFFFF" fill-rule="nonzero"></path>
                <path d="M32.68,73.284 L32.68,72.792 L37.216,72.792 L37.216,73.284 L38.404,73.284 L38.404,69.084 L35.464,69.084 L35.464,67.956 L39.208,67.956 L39.208,66.816 L35.464,66.816 L35.464,65.724 L38.74,65.724 L38.74,62.52 L29.572,62.52 L29.572,66.684 C29.56,69.012 29.152,70.92 28.348,72.396 L29.332,73.284 C30.136,71.76 30.616,69.984 30.76,67.956 L34.252,67.956 L34.252,69.084 L31.48,69.084 L31.48,73.284 L32.68,73.284 Z M37.492,64.596 L30.808,64.596 L30.808,63.66 L37.492,63.66 L37.492,64.596 Z M34.252,66.816 L30.808,66.816 L30.808,65.724 L34.252,65.724 L34.252,66.816 Z M37.216,71.664 L32.68,71.664 L32.68,70.212 L37.216,70.212 L37.216,71.664 Z M42.064,65.352 L42.064,64.224 L49.924,64.224 L49.924,65.352 L51.172,65.352 L51.172,63.072 L46.684,63.072 C46.564,62.7 46.444,62.364 46.324,62.064 L45.04,62.28 C45.172,62.52 45.292,62.784 45.412,63.072 L40.828,63.072 L40.828,65.352 L42.064,65.352 Z M45.088,73.236 C46.192,73.236 46.912,73.008 47.236,72.576 C47.5,72.216 47.644,71.556 47.644,70.572 C47.632,69.948 47.548,69.372 47.38,68.82 C47.524,68.784 47.668,68.748 47.812,68.7 C48.376,70.296 49.288,71.628 50.56,72.696 L51.448,71.652 C50.236,70.812 49.36,69.708 48.808,68.352 C49.504,68.076 50.164,67.74 50.776,67.356 L49.936,66.516 C49,67.116 48.016,67.56 46.972,67.86 C46.756,67.452 46.48,67.068 46.144,66.708 C46.408,66.552 46.66,66.384 46.924,66.204 L49.552,66.204 L49.552,65.052 L42.448,65.052 L42.448,66.204 L44.944,66.204 C44.728,66.3 44.5,66.396 44.272,66.492 C43.3,66.888 42.268,67.2 41.176,67.416 L41.812,68.46 C43.252,68.028 44.368,67.62 45.136,67.248 C45.136,67.236 45.16,67.224 45.184,67.224 C45.28,67.344 45.388,67.464 45.484,67.608 C44.404,68.352 42.892,68.976 40.948,69.468 L41.572,70.536 C43.408,70.008 44.884,69.324 46,68.508 C46.084,68.7 46.156,68.904 46.228,69.132 C44.944,70.14 43.132,70.968 40.792,71.628 L41.416,72.696 C43.468,72.072 45.136,71.28 46.432,70.32 C46.432,70.392 46.444,70.476 46.444,70.572 C46.444,71.208 46.336,71.64 46.144,71.868 C45.976,72.036 45.568,72.132 44.92,72.132 L44.296,72.132 L44.716,73.236 L45.088,73.236 Z" id="居家" fill="#FFFFFF" fill-rule="nonzero"></path>
            </g>
        </g>
    </g>
</svg>