<?xml version="1.0" encoding="UTF-8"?>
<svg width="80px" height="80px" viewBox="0 0 80 80" version="1.1" xmlns="http://www.w3.org/2000/svg" xmlns:xlink="http://www.w3.org/1999/xlink">
    <title>icon_tips10</title>
    <g id="首页-和-目的地" stroke="none" stroke-width="1" fill="none" fill-rule="evenodd">
        <g id="目的地疫情" transform="translate(-22.000000, -1837.000000)">
            <g id="icon_tips10" transform="translate(22.000000, 1837.000000)">
                <rect id="矩形" fill="#016F7E" x="0" y="0" width="80" height="80"></rect>
                <path d="M46.4492188,55.0859375 L33.6367188,55.0859375 L33.6367188,42.4492188 L21,42.4492188 L21,29.6367188 L33.6367188,29.6367188 L33.6367188,17 L46.4492188,17 L46.4492188,29.6367188 L59.0859375,29.6367188 L59.0859375,42.4492188 L46.4492188,42.4492188 L46.4492188,55.0859375 Z M35.7705078,52.9521484 L44.3154297,52.9521484 L44.3154297,40.3154297 L56.9521484,40.3154297 L56.9521484,31.7705078 L44.3154297,31.7705078 L44.3154297,19.1337891 L35.7705078,19.1337891 L35.7705078,31.7705078 L23.1337891,31.7705078 L23.1337891,40.3154297 L35.7705078,40.3154297 L35.7705078,52.9521484 Z" id="形状" fill="#FFFFFF" fill-rule="nonzero"></path>
                <path d="M27.268,72.852 L27.268,71.652 L18.436,71.652 L18.436,63.708 L26.884,63.708 L26.884,62.52 L17.224,62.52 L17.224,72.852 L27.268,72.852 Z M19.588,71.556 C20.944,71.136 21.916,70.548 22.516,69.78 C22.816,69.372 23.056,68.892 23.224,68.364 L26.68,68.364 L26.68,67.188 L23.464,67.188 C23.5,66.948 23.524,66.696 23.536,66.432 L23.536,65.964 L25.972,65.964 L25.972,64.824 L21.484,64.824 C21.568,64.608 21.652,64.38 21.736,64.128 L20.596,63.816 C20.272,64.752 19.732,65.58 18.976,66.276 L19.9,67.128 C20.272,66.804 20.608,66.42 20.896,65.964 L22.336,65.964 L22.336,66.432 C22.324,66.684 22.3,66.936 22.252,67.188 L18.988,67.188 L18.988,68.364 L21.916,68.364 C21.82,68.58 21.712,68.784 21.58,68.976 C21.112,69.588 20.224,70.092 18.904,70.5 L19.588,71.556 Z M25.984,71.544 L26.668,70.5 C25.756,69.816 24.76,69.24 23.656,68.76 L23.032,69.684 C24.04,70.14 25.024,70.752 25.984,71.544 Z M30.04,73.2 C31.012,71.664 31.528,69.612 31.576,67.056 L31.576,64.2 L39.208,64.2 L39.208,62.976 L35.548,62.976 C35.452,62.628 35.368,62.304 35.272,62.016 L33.988,62.232 C34.108,62.46 34.216,62.712 34.312,62.976 L30.328,62.976 L30.328,66.216 C30.076,65.496 29.776,64.8 29.428,64.152 L28.408,64.572 C28.768,65.232 29.104,66 29.416,66.888 L30.328,66.48 L30.328,67.056 C30.328,67.164 30.316,67.284 30.316,67.416 C29.716,67.872 29.068,68.292 28.36,68.664 L28.732,69.876 C29.26,69.54 29.752,69.18 30.208,68.796 C30.04,70.236 29.656,71.424 29.08,72.348 L30.04,73.2 Z M34.948,73.236 C35.836,73.236 36.292,72.804 36.292,71.94 L36.292,68.232 C37.204,67.608 38.008,66.948 38.728,66.24 L38.728,65.064 L32.272,65.064 L32.272,66.24 L37.072,66.24 C36.424,66.78 35.752,67.248 35.056,67.644 L35.056,71.568 C35.056,71.964 34.852,72.168 34.456,72.168 C33.988,72.168 33.556,72.156 33.148,72.132 L33.448,73.236 L34.948,73.236 Z M43.54,73.2 L43.54,67.296 C43.792,67.716 44.08,68.232 44.416,68.832 L45.148,67.728 C44.608,67.104 44.068,66.528 43.54,66.012 L43.54,65.568 L44.884,65.568 L44.884,64.356 L43.54,64.356 L43.54,62.148 L42.292,62.148 L42.292,64.356 L40.648,64.356 L40.648,65.568 L42.232,65.568 C41.836,66.912 41.224,68.1 40.384,69.132 L40.924,70.5 C41.464,69.66 41.92,68.748 42.292,67.764 L42.292,73.2 L43.54,73.2 Z M45.172,73.344 C45.736,72.456 46.12,71.52 46.324,70.56 C46.54,69.6 46.648,68.448 46.648,67.092 L46.648,63.696 L48.352,63.696 L48.352,71.772 C48.352,72.564 48.808,72.972 49.732,72.972 L50.272,72.972 C50.692,72.972 51.004,72.888 51.196,72.732 C51.388,72.54 51.508,72.228 51.556,71.772 C51.604,71.316 51.64,70.62 51.64,69.708 L50.488,69.348 C50.488,70.62 50.464,71.352 50.416,71.52 C50.392,71.604 50.368,71.676 50.32,71.724 C50.272,71.772 50.2,71.796 50.104,71.796 L49.744,71.796 C49.66,71.796 49.624,71.736 49.624,71.628 L49.624,62.52 L45.4,62.52 L45.4,67.092 C45.4,68.448 45.316,69.468 45.16,70.152 C44.968,70.944 44.62,71.712 44.14,72.432 L45.172,73.344 Z M55.468,73.212 L55.468,67.548 C55.72,67.92 56.008,68.364 56.332,68.892 L57.052,67.824 C56.524,67.2 55.996,66.636 55.468,66.108 L55.468,65.568 L56.8,65.568 L56.8,64.356 L55.468,64.356 L55.468,62.148 L54.232,62.148 L54.232,64.356 L52.636,64.356 L52.636,65.568 L54.148,65.568 C53.788,66.924 53.2,68.124 52.396,69.18 L52.936,70.572 C53.44,69.732 53.872,68.82 54.232,67.836 L54.232,73.212 L55.468,73.212 Z M61.156,73.164 C62.248,73.164 62.86,72.66 63.004,71.676 C63.124,70.668 63.184,68.04 63.184,63.768 L59.044,63.768 C59.164,63.3 59.26,62.82 59.344,62.316 L58.108,62.16 C57.856,63.78 57.376,65.148 56.668,66.264 L57.484,67.32 C57.964,66.612 58.36,65.82 58.684,64.932 L62.008,64.932 C61.984,68.496 61.936,70.572 61.864,71.16 C61.78,71.748 61.48,72.048 60.952,72.048 C60.556,72.048 60.088,72.024 59.548,71.988 L59.836,73.104 C60.46,73.14 60.892,73.164 61.156,73.164 Z M60.58,71.028 L61.672,70.524 C61.372,69.468 61.024,68.484 60.616,67.572 L59.584,67.932 C59.728,68.292 59.872,68.688 60.016,69.108 C59.572,69.204 59.092,69.312 58.564,69.432 C58.9,68.76 59.332,67.74 59.86,66.372 L58.756,65.964 C57.928,68.292 57.352,69.552 57.028,69.732 L57.256,70.776 C58.396,70.536 59.416,70.296 60.304,70.032 C60.4,70.344 60.484,70.68 60.58,71.028 Z" id="医疗机构" fill="#FFFFFF" fill-rule="nonzero"></path>
            </g>
        </g>
    </g>
</svg>