<?xml version="1.0" encoding="UTF-8"?>
<svg width="80px" height="80px" viewBox="0 0 80 80" version="1.1" xmlns="http://www.w3.org/2000/svg" xmlns:xlink="http://www.w3.org/1999/xlink">
    <title>icon_tips04</title>
    <g id="首页-和-目的地" stroke="none" stroke-width="1" fill="none" fill-rule="evenodd">
        <g id="目的地疫情" transform="translate(-22.000000, -1177.000000)">
            <g id="icon_tips04" transform="translate(22.000000, 1177.000000)">
                <rect id="矩形" fill="#016F7E" x="0" y="0" width="80" height="80"></rect>
                <path d="M60.1222222,32.6722222 C59.4171916,32.6661341 58.7151416,32.7644211 58.0388889,32.9638889 L58.0388889,30.5888889 C58.0388889,27.1371092 55.2406686,24.3388889 51.7888889,24.3388889 L24.2680556,24.3388889 C20.8162759,24.3388889 18.0180556,27.1371092 18.0180556,30.5888889 L18.0180556,42.5680556 C18.0180556,51.7728014 25.4799764,59.2347222 34.6847222,59.2347222 L41.4555556,59.2347222 C49.0431387,59.2195747 55.6628378,54.0813865 57.5597222,46.7347222 C58.3741639,47.0658579 59.2431346,47.242478 60.1222222,47.2555556 C64.1492985,47.2555556 67.4138889,43.9909652 67.4138889,39.9638889 C67.4138889,35.9368126 64.1492985,32.6722222 60.1222222,32.6722222 L60.1222222,32.6722222 Z M53.8722222,42.5680556 C53.8722222,49.4716149 48.2757816,55.0680556 41.3722222,55.0680556 L34.6847222,55.0680556 C27.7811628,55.0680556 22.1847222,49.4716149 22.1847222,42.5680556 L22.1847222,30.5888889 C22.1847222,29.4382956 23.1174623,28.5055556 24.2680556,28.5055556 L51.8722222,28.5055556 C53.0228154,28.5055556 53.9555556,29.4382956 53.9555556,30.5888889 L53.8722222,42.5680556 L53.8722222,42.5680556 Z M60.1222222,43.0888889 C59.4619612,43.0903951 58.818894,42.8784753 58.2888889,42.4847222 L58.1222222,42.4847222 L58.1222222,37.5263889 L58.2680556,37.5263889 C59.3483976,36.6610867 60.8692481,36.6095626 62.0056761,37.399764 C63.1421041,38.1899654 63.6233152,39.6335986 63.1882936,40.9476165 C62.753272,42.2616344 61.5056772,43.1329254 60.1222222,43.0888889 L60.1222222,43.0888889 Z M27.9972222,19.1944444 L27.6013889,19.7986111 C27.293274,20.2595422 27.1815967,20.8242767 27.2910812,21.3677888 C27.4005656,21.9113009 27.7221799,22.3887537 28.1847222,22.6944444 C28.5236946,22.9222622 28.9221526,23.0454219 29.3305556,23.0486111 C30.0274703,23.0450056 30.6764233,22.6931637 31.0597222,22.1111111 L31.4555556,21.5069444 C32.7315422,19.5296912 32.4630624,16.9315005 30.8097222,15.2569444 C30.4063626,14.9262448 30.3415513,14.3336839 30.6638889,13.9236111 L31.1222222,13.1527778 C31.6849182,12.1653246 31.3523676,10.909095 30.3748089,10.32938 C29.3972502,9.74966495 28.135449,10.0604068 27.5388889,11.0277778 L27.0805556,11.8402778 C25.8785502,13.8514123 26.186856,16.4206278 27.8305556,18.0902778 C28.1708333,18.3555556 28.2430556,18.8402778 27.9972222,19.1944444 L27.9972222,19.1944444 Z M36.7263889,19.1944444 L36.3305556,19.7986111 C35.8986409,20.4376059 35.8550938,21.2629375 36.2173668,21.943836 C36.5796397,22.6247346 37.2884485,23.0497743 38.0597222,23.0486135 C38.756637,23.0450056 39.4055899,22.6931637 39.7888889,22.1111111 L40.1847222,21.5069444 C41.4607088,19.5296912 41.1922291,16.9315005 39.5388889,15.2569444 C39.1390304,14.926753 39.065945,14.3420695 39.3722222,13.9236111 L39.8513889,13.1527778 C40.4140841,12.1653247 40.0815332,10.9090958 39.103975,10.329381 C38.1264167,9.74966623 36.864616,10.0604076 36.2680556,11.0277778 L35.8097222,11.8402778 C34.6238063,13.8651716 34.9580012,16.4359018 36.6222222,18.0902778 C36.9236111,18.3819444 36.9680556,18.8513889 36.7263889,19.1944444 L36.7263889,19.1944444 Z M45.4555556,19.1944444 L45.0597222,19.7986111 C44.6278076,20.4376059 44.5842605,21.2629375 44.9465334,21.943836 C45.3088064,22.6247346 46.0176151,23.0497743 46.7888889,23.0486135 C47.4858037,23.0450056 48.1347566,22.6931637 48.5180556,22.1111111 L48.9138889,21.5069444 C50.1898755,19.5296912 49.9213958,16.9315006 48.2680556,15.2569444 C47.8681971,14.926753 47.7951117,14.3420695 48.1013889,13.9236111 L48.6638889,13.1736111 C48.9387622,12.6882737 49.0075403,12.1129826 48.8548263,11.5765255 C48.7021122,11.0400685 48.340661,10.5872514 47.8513889,10.3194444 C46.8672859,9.72919252 45.5911604,10.0458952 44.9972222,11.0277778 L44.4972222,11.8402778 C43.3135288,13.8621383 43.6384627,16.4274057 45.2888889,18.0902778 C45.6106447,18.3660366 45.6815828,18.8360014 45.4555556,19.1944444 L45.4555556,19.1944444 Z" id="形状" fill="#FFFFFF" fill-rule="nonzero"></path>
                <path d="M11.02,73.248 C12.244,71.76 12.868,69.42 12.892,66.228 L12.892,64.86 L13.588,64.86 C13.564,68.1 13.528,69.996 13.468,70.536 C13.42,71.496 13.24,71.988 12.94,71.988 C12.736,71.988 12.496,71.964 12.208,71.928 L12.496,73.056 C12.796,73.104 13.012,73.128 13.144,73.128 C13.984,73.128 14.452,72.456 14.548,71.124 C14.656,70.188 14.716,67.704 14.716,63.684 L12.892,63.684 L12.892,62.124 L11.764,62.124 L11.764,63.684 L11.068,63.684 L11.068,64.86 L11.764,64.86 L11.764,66.228 C11.752,69.084 11.212,71.16 10.132,72.456 L11.02,73.248 Z M8.932,71.808 L8.932,70.92 L10.756,70.92 L10.756,63.132 L7.804,63.132 L7.804,71.808 L8.932,71.808 Z M16.348,73.008 L16.348,72.468 L17.092,72.468 L17.092,72.984 L18.22,72.984 L18.22,63.3 L15.244,63.3 L15.244,73.008 L16.348,73.008 Z M9.664,69.876 L8.932,69.876 L8.932,64.188 L9.664,64.188 L9.664,69.876 Z M17.092,71.376 L16.348,71.376 L16.348,64.404 L17.092,64.404 L17.092,71.376 Z M26.416,73.248 L26.416,62.16 L25.228,62.16 L25.228,63.948 L23.428,63.948 L23.428,65.076 L25.228,65.076 L25.228,66.732 L23.68,66.732 L23.68,67.86 L25.228,67.86 L25.228,69.6 L23.26,69.6 L23.26,70.728 L25.228,70.728 L25.228,73.248 L26.416,73.248 Z M28.468,73.248 L28.468,70.728 L30.52,70.728 L30.52,69.6 L28.468,69.6 L28.468,67.86 L30.124,67.86 L30.124,66.732 L28.468,66.732 L28.468,65.076 L30.436,65.076 L30.436,63.948 L28.468,63.948 L28.468,62.16 L27.268,62.16 L27.268,73.248 L28.468,73.248 Z M21.04,72.312 L21.04,71.4 L21.796,71.4 L21.796,72.024 L22.972,72.024 L22.972,63 L19.84,63 L19.84,72.312 L21.04,72.312 Z M21.796,70.224 L21.04,70.224 L21.04,64.176 L21.796,64.176 L21.796,70.224 Z M32.392,73.224 C33.352,71.712 33.868,69.72 33.916,67.224 L33.916,63.744 L42.196,63.744 L42.196,62.52 L32.656,62.52 L32.656,67.224 C32.62,69.42 32.212,71.136 31.432,72.372 L32.392,73.224 Z M37.828,73.068 C38.704,73.068 39.148,72.588 39.148,71.64 L39.148,66.504 L42.04,66.504 L42.04,65.316 L34.384,65.316 L34.384,66.504 L37.9,66.504 L37.9,71.34 C37.9,71.748 37.732,71.952 37.396,71.952 C37.036,71.952 36.664,71.928 36.268,71.88 L36.556,73.068 L37.828,73.068 Z M44.512,73.2 L48.676,62.16 L47.5,62.16 L43.324,73.2 L44.512,73.2 Z M51.724,64.848 L52.612,63.948 C52.048,63.396 51.364,62.832 50.572,62.268 L49.684,63.132 C50.56,63.744 51.244,64.32 51.724,64.848 Z M54.136,73.248 L54.136,72.792 L59.008,72.792 L59.008,73.212 L60.184,73.212 L60.184,64.788 L58.144,64.788 L58.144,63.696 L60.46,63.696 L60.46,62.52 L52.696,62.52 L52.696,63.696 L54.904,63.696 L54.904,64.788 L52.96,64.788 L52.96,73.248 L54.136,73.248 Z M56.968,64.788 L56.08,64.788 L56.08,63.696 L56.968,63.696 L56.968,64.788 Z M51.388,67.74 L52.276,66.852 C51.736,66.276 51.064,65.712 50.272,65.136 L49.384,66 C50.248,66.624 50.92,67.2 51.388,67.74 Z M54.136,68.316 L54.136,65.916 L55.024,65.916 L55.024,66.444 C55.012,67.26 54.712,67.884 54.136,68.316 Z M59.008,69.696 L54.136,69.696 L54.136,68.664 L54.736,69.18 C55.6,68.604 56.032,67.692 56.056,66.444 L56.056,65.916 L56.992,65.916 L56.992,67.668 C56.992,68.364 57.352,68.724 58.072,68.724 L59.008,68.724 L59.008,69.696 Z M59.008,67.704 L58.384,67.704 C58.144,67.704 58.024,67.596 58.024,67.392 L58.024,65.916 L59.008,65.916 L59.008,67.704 Z M50.68,73.128 C51.328,71.784 51.904,70.332 52.432,68.796 L51.328,68.376 C50.824,69.816 50.212,71.22 49.516,72.612 L50.68,73.128 Z M59.008,71.664 L54.136,71.664 L54.136,70.8 L59.008,70.8 L59.008,71.664 Z M71.068,73.044 C71.668,73.02 72.052,72.708 72.22,72.132 C72.316,71.772 72.412,71.196 72.496,70.38 L71.32,69.984 C71.26,70.836 71.2,71.34 71.14,71.496 C71.056,71.712 70.9,71.832 70.66,71.856 L67.948,71.856 C67.552,71.856 67.36,71.58 67.36,71.04 L67.36,68.316 L71.884,68.316 L71.884,62.604 L66.148,62.604 L66.148,71.532 C66.148,72.54 66.568,73.044 67.42,73.044 L71.068,73.044 Z M63.076,72.108 L63.076,71.328 L64.264,71.328 L64.264,71.844 L65.476,71.844 L65.476,63 L61.828,63 L61.828,72.108 L63.076,72.108 Z M68.416,67.164 L67.36,67.164 L67.36,63.756 L68.416,63.756 L68.416,67.164 Z M70.672,67.164 L69.568,67.164 L69.568,63.756 L70.672,63.756 L70.672,67.164 Z M64.264,70.128 L63.076,70.128 L63.076,64.2 L64.264,64.2 L64.264,70.128 Z" id="咖啡厅/酒吧" fill="#FFFFFF" fill-rule="nonzero"></path>
            </g>
        </g>
    </g>
</svg>