<?xml version="1.0" encoding="UTF-8"?>
<svg width="80px" height="80px" viewBox="0 0 80 80" version="1.1" xmlns="http://www.w3.org/2000/svg" xmlns:xlink="http://www.w3.org/1999/xlink">
    <title>icon_tips07</title>
    <g id="首页-和-目的地" stroke="none" stroke-width="1" fill="none" fill-rule="evenodd">
        <g id="目的地疫情" transform="translate(-22.000000, -1507.000000)">
            <g id="icon_tips07" transform="translate(22.000000, 1507.000000)">
                <rect id="矩形" fill="#016F7E" x="0" y="0" width="80" height="80"></rect>
                <path d="M58.550625,44.1385781 L21.304125,44.1385781 C20.8248405,44.1320053 20.3791238,44.3839354 20.1375641,44.7979472 C19.8960043,45.2119589 19.8960043,45.7239474 20.1375641,46.1379591 C20.3791238,46.5519708 20.8248405,46.8039009 21.304125,46.7973281 L58.550625,46.7973281 C59.2777095,46.7873571 59.8618943,46.195106 59.8618943,45.4679531 C59.8618943,44.7408002 59.2777095,44.1485492 58.550625,44.1385781 L58.550625,44.1385781 Z M54.559625,49.4563281 L25.295125,49.4563281 C24.5609315,49.4563281 23.96575,50.0515096 23.96575,50.7857031 C23.96575,51.5198967 24.5609315,52.1150781 25.295125,52.1150781 L54.559625,52.1150781 C55.034565,52.1150781 55.4734276,51.8617007 55.7108976,51.4503906 C55.9483676,51.0390806 55.9483676,50.5323257 55.7108976,50.1210156 C55.4734276,49.7097055 55.034565,49.4563281 54.559625,49.4563281 Z M58.494875,35.6140781 C58.606125,35.6448281 58.720125,35.6670781 58.834125,35.6670781 C59.264424,35.6679026 59.6685548,35.4605749 59.918875,35.1105781 C61.6254233,32.7490247 62.5423014,29.9087061 62.538636,26.9950781 C62.526375,19.2878281 56.278375,13.0448281 48.571375,13.0388281 C43.0236472,13.0686064 38.0125631,16.3591504 35.780375,21.4380781 L33.752875,18.6013281 C33.4959287,18.2391028 33.074763,18.0294914 32.6308615,18.0429095 C32.18696,18.0563276 31.7792238,18.2909946 31.544625,18.6680781 L18.241875,39.9335781 C17.8524453,40.5564863 18.0417169,41.3771483 18.664625,41.7665781 C19.2875332,42.1560079 20.1081952,41.9667363 20.497625,41.3438281 L32.746125,21.7638281 L44.891875,38.7543281 C45.1313813,39.0889353 45.512636,39.2934164 45.923875,39.3078281 C46.340875,39.3413281 46.730375,39.1463281 46.994375,38.8320781 L52.568125,32.1490781 L59.540875,41.4355781 C59.8210307,41.8281116 60.2917834,42.0381578 60.7710404,41.9844684 C61.2502973,41.9307791 61.6629026,41.6217736 61.8492556,41.1769789 C62.0356086,40.7321842 61.9664859,40.221352 61.668625,39.8420781 L58.494875,35.6140781 L58.494875,35.6140781 Z M57.529875,34.3290781 L53.686375,29.2088281 C53.4415645,28.8849898 53.0627246,28.6901124 52.6569096,28.6792653 C52.2510947,28.6684183 51.8623853,28.8427799 51.600625,29.1530781 L46.054625,35.8055781 L37.365875,23.6520781 C37.6690923,23.5103445 37.9061396,23.2573627 38.027875,22.9455781 C39.7208883,18.5934775 43.9018794,15.7182841 48.571625,15.6948281 C54.810375,15.6995781 59.868375,20.7535781 59.877375,26.9923281 C59.877375,29.3590781 59.142875,31.6285781 57.755375,33.5590781 C57.6021342,33.7861296 57.523326,34.0552311 57.529875,34.3290781 L57.529875,34.3290781 Z" id="形状" fill="#FFFFFF" fill-rule="nonzero"></path>
                <path d="M24.376,67.62 L24.376,66.576 L19.744,66.576 C19.672,66.408 19.6,66.252 19.528,66.108 L23.128,66.108 L23.128,62.436 L14.884,62.436 L14.884,66.108 L18.088,66.108 C18.184,66.252 18.28,66.408 18.376,66.576 L13.624,66.576 L13.624,67.62 L24.376,67.62 Z M21.904,63.84 L16.108,63.84 L16.108,63.396 L21.904,63.396 L21.904,63.84 Z M21.904,65.148 L16.108,65.148 L16.108,64.704 L21.904,64.704 L21.904,65.148 Z M18.676,73.2 C19.408,73.2 19.78,72.792 19.78,71.988 L19.78,70.656 L22.984,70.656 L22.984,68.04 L15.136,68.04 L15.136,70.656 L18.544,70.656 L18.544,71.688 C18.544,71.976 18.448,72.132 18.268,72.132 C17.848,72.132 17.404,72.096 16.936,72.048 L17.2,73.2 L18.676,73.2 Z M21.76,69.684 L16.348,69.684 L16.348,69 L21.76,69 L21.76,69.684 Z M14.188,73.164 C15.4,72.756 16.408,72.228 17.2,71.58 L16.42,70.776 C15.772,71.316 14.788,71.772 13.492,72.144 L14.188,73.164 Z M24.064,73.152 L24.532,72.012 C23.44,71.508 22.312,71.124 21.136,70.86 L20.62,71.844 C21.82,72.156 22.96,72.6 24.064,73.152 Z M35.236,69.744 L35.236,65.592 L31.432,65.592 L31.432,64.416 L35.968,64.416 L35.968,63.252 L31.432,63.252 L31.432,62.232 L30.196,62.232 L30.196,65.592 L26.956,65.592 L26.956,69.744 L35.236,69.744 Z M33.988,68.592 L28.204,68.592 L28.204,66.756 L33.988,66.756 L33.988,68.592 Z M35.44,73.308 L36.496,72.588 C36.088,71.868 35.512,71.016 34.768,70.032 L33.748,70.68 C34.456,71.64 35.02,72.516 35.44,73.308 Z M26.476,73.248 C27.052,72.504 27.544,71.616 27.976,70.596 L26.932,70.092 C26.512,71.028 26.02,71.82 25.444,72.492 L26.476,73.248 Z M32.032,73.236 L33.28,72.936 C33.016,72 32.716,71.124 32.38,70.32 L31.204,70.56 C31.54,71.328 31.816,72.228 32.032,73.236 Z M29.272,73.26 L30.532,72.96 C30.34,72.072 30.136,71.256 29.896,70.488 L28.72,70.728 C28.936,71.46 29.128,72.3 29.272,73.26 Z M38.512,73.2 L42.676,62.16 L41.5,62.16 L37.324,73.2 L38.512,73.2 Z M53.644,68.484 L54.544,67.44 C52.912,66.072 51.772,64.308 51.124,62.148 L50.044,62.748 C50.728,65.1 51.928,67.008 53.644,68.484 Z M44.476,68.46 C45.856,67.128 46.972,65.22 47.812,62.724 L46.648,62.244 C45.964,64.464 44.908,66.252 43.48,67.596 L44.476,68.46 Z M52.336,73.26 L53.512,72.732 C52.9,71.268 52.168,69.888 51.328,68.604 L50.2,68.988 C50.596,69.612 50.98,70.308 51.352,71.064 C49.816,71.304 48.232,71.472 46.624,71.58 C47.608,70.212 48.568,68.556 49.504,66.624 L48.268,66.192 C46.708,69.636 45.52,71.448 44.716,71.628 L44.932,72.852 C47.488,72.684 49.804,72.456 51.868,72.144 C52.024,72.504 52.18,72.876 52.336,73.26 Z M57.172,73.26 L57.172,72.84 L64.828,72.84 L64.828,73.26 L66.076,73.26 L66.076,62.568 L55.924,62.568 L55.924,73.26 L57.172,73.26 Z M64.828,71.736 L57.172,71.736 L57.172,63.696 L64.828,63.696 L64.828,71.736 Z M63.58,65.592 L63.58,64.488 L58.432,64.488 L58.432,65.592 L63.58,65.592 Z M57.904,71.304 C58.768,70.944 59.404,70.44 59.812,69.816 C60.148,69.288 60.376,68.556 60.496,67.632 L61.324,67.632 L61.324,70.02 C61.324,70.332 61.42,70.584 61.612,70.8 C61.78,70.992 62.044,71.1 62.38,71.1 L63.256,71.1 C63.712,71.088 64.024,71.016 64.192,70.872 C64.36,70.716 64.492,70.176 64.6,69.264 L63.58,68.916 C63.532,69.576 63.46,69.936 63.364,69.984 C63.268,70.044 63.16,70.08 63.028,70.08 L62.764,70.08 C62.56,70.08 62.464,69.972 62.464,69.768 L62.464,67.632 L64.252,67.632 L64.252,66.528 L57.748,66.528 L57.748,67.632 L59.38,67.632 C59.284,68.256 59.104,68.772 58.864,69.156 C58.528,69.66 58.024,70.044 57.328,70.308 L57.904,71.304 Z" id="景点/公园" fill="#FFFFFF" fill-rule="nonzero"></path>
            </g>
        </g>
    </g>
</svg>