<?xml version="1.0" encoding="UTF-8"?>
<svg width="80px" height="80px" viewBox="0 0 80 80" version="1.1" xmlns="http://www.w3.org/2000/svg" xmlns:xlink="http://www.w3.org/1999/xlink">
    <title>icon_tips03</title>
    <g id="首页-和-目的地" stroke="none" stroke-width="1" fill="none" fill-rule="evenodd">
        <g id="目的地疫情" transform="translate(-22.000000, -1067.000000)">
            <g id="icon_tips03" transform="translate(22.000000, 1067.000000)">
                <rect id="矩形" fill="#016F7E" x="0" y="0" width="80" height="80"></rect>
                <path d="M54.1855469,35.8974609 C53.2236328,33.9394531 51.8417969,32.1669922 50.1669922,30.7509766 C50.0644531,30.6044922 49.9375,30.4775391 49.7910156,30.375 C48.1064453,29.2128906 46.7001953,27.6455078 45.7382812,25.8486328 C44.7421875,23.9931641 44.2148437,21.8886719 44.2148437,19.7695312 C44.2148437,17.5136719 44.7958984,15.3164062 45.8945312,13.4267578 C46.1630859,12.9628906 46.1679687,12.3037109 45.8945312,11.8398438 C45.6259766,11.3710938 45.1279297,11.0048828 44.5908203,11.0048828 L34.5322266,11.0048828 C33.9853516,11.0048828 33.4824219,11.3808594 33.21875,11.859375 C32.9550781,12.3378906 32.9648437,12.9580078 33.2529297,13.421875 C34.5029297,15.4482422 35.1669922,17.796875 35.1669922,20.1796875 C35.1669922,22.0693359 34.7666016,23.8955078 33.9804687,25.5898438 C33.21875,27.2255859 32.1396484,28.6708984 30.7675781,29.8720703 C30.5234375,30.0869141 30.2792969,30.2871094 30.0449219,30.4677734 C29.8935547,30.5849609 29.7324219,30.7070312 29.5761719,30.8144531 C29.5273437,30.8486328 29.4785156,30.8876953 29.4345703,30.9267578 C25.9775391,33.9492188 24,38.3144531 24,42.8994141 C24,45.1992188 24.4785156,47.4160156 25.4306641,49.4960938 C26.34375,51.4980469 27.6425781,53.2607422 29.2880859,54.7548828 C29.5664062,55.0039062 29.9228516,55.140625 30.2988281,55.140625 L35.0009766,55.140625 C35.8310547,55.140625 36.5048828,54.2373047 36.5048828,53.4072266 C36.5048828,52.5771484 35.8261719,51.6738281 34.9960937,51.6738281 L30.8945312,51.6738281 C29.7470703,50.9902344 28.8291016,49.4716797 28.1650391,48.0117188 C27.3984375,46.3271484 27.0078125,44.6474609 27.0078125,42.7822266 C27.0078125,39.0908203 28.5898437,35.6337891 31.34375,33.1826172 C31.5292969,33.0556641 31.7001953,32.953125 31.8515625,32.8359375 C32.1445312,32.6162109 32.4472656,32.3818359 32.7402344,32.1230469 C34.4296875,30.6435547 35.7626953,28.8759766 36.7001953,26.8544922 C37.671875,24.7597656 38.1699219,22.3232422 38.1699219,19.9941406 C38.1699219,17.9140625 37.7646484,15.8291016 36.9785156,13.7783203 L42.2128906,13.7783203 C41.5488281,15.8291016 41.2021484,17.6357422 41.2021484,19.5693359 C41.2021484,22.1865234 41.8515625,24.8818359 43.0869141,27.171875 C44.2099609,29.2617187 45.8115234,31.1464844 47.7304687,32.5478516 C47.7988281,32.6308594 47.8720703,32.7285156 47.9550781,32.796875 C51.03125,35.2626953 52.7988281,38.9443359 52.7988281,42.8847656 C52.7988281,44.75 52.4082031,46.3173828 51.6416016,48.0019531 C50.9775391,49.4570312 50.0644531,50.9853516 48.9169922,51.6689453 L44.7177734,51.6689453 C43.8876953,51.6689453 43.2138672,52.5722656 43.2138672,53.4023438 C43.2138672,54.2324219 43.8876953,55.1357422 44.7177734,55.1357422 L49.5126953,55.1357422 C49.8886719,55.1357422 50.2451172,55.0039062 50.5234375,54.75 C52.1689453,53.2558594 53.4677734,51.4882813 54.3808594,49.4863281 C55.328125,47.40625 55.8066406,45.1894531 55.8066406,42.8945312 C55.8066406,40.4433594 55.2597656,38.0898438 54.1855469,35.8974609 L54.1855469,35.8974609 Z" id="路径" fill="#FFFFFF" fill-rule="nonzero"></path>
                <path d="M9.976,73.248 L9.976,66.18 L11.008,66.18 L11.008,64.956 L9.976,64.956 L9.976,62.16 L8.74,62.16 L8.74,64.956 L7.624,64.956 L7.624,66.18 L8.74,66.18 L8.74,73.248 L9.976,73.248 Z M12.616,69.024 L12.616,68.232 L14.104,68.232 L14.104,68.94 L15.292,68.94 L15.292,68.232 L16.792,68.232 L16.792,69.012 L17.944,69.012 L17.944,64.536 L15.292,64.536 L15.292,63.948 L18.304,63.948 L18.304,62.904 L17.32,62.904 C17.236,62.64 17.152,62.388 17.068,62.172 L16.012,62.34 C16.108,62.508 16.204,62.7 16.3,62.904 L15.292,62.904 L15.292,62.184 L14.104,62.184 L14.104,62.904 L11.104,62.904 L11.104,63.948 L14.104,63.948 L14.104,64.536 L11.464,64.536 L11.464,69.024 L12.616,69.024 Z M14.104,66.036 L12.616,66.036 L12.616,65.472 L14.104,65.472 L14.104,66.036 Z M16.792,66.036 L15.292,66.036 L15.292,65.472 L16.792,65.472 L16.792,66.036 Z M14.104,67.416 L12.616,67.416 L12.616,66.864 L14.104,66.864 L14.104,67.416 Z M16.792,67.416 L15.292,67.416 L15.292,66.864 L16.792,66.864 L16.792,67.416 Z M16.012,73.236 C16.732,73.236 17.104,72.864 17.104,72.132 L17.104,70.656 L18.544,70.656 L18.544,69.576 L17.104,69.576 L17.104,69.132 L15.904,69.132 L15.904,69.576 L10.828,69.576 L10.828,70.656 L12.532,70.656 L12.016,71.16 C12.712,71.7 13.24,72.204 13.624,72.672 L14.404,71.904 C14.02,71.496 13.564,71.076 13.024,70.656 L15.904,70.656 L15.904,71.832 C15.904,72.048 15.796,72.168 15.604,72.168 C15.232,72.168 14.836,72.132 14.416,72.084 L14.692,73.236 L16.012,73.236 Z M27.952,73.2 C29.176,73.2 29.86,72.684 30.004,71.652 C30.124,70.692 30.184,68.124 30.184,63.948 L25.648,63.948 C25.78,63.468 25.9,62.964 26.02,62.424 L24.844,62.112 C24.532,63.864 24.004,65.22 23.26,66.156 L24.172,66.936 C24.568,66.456 24.916,65.856 25.216,65.148 L25.72,65.148 C25.276,67.272 24.472,68.82 23.32,69.804 L24.124,70.74 C25.432,69.564 26.332,67.692 26.836,65.148 L27.436,65.148 C27.208,66.828 26.884,68.172 26.464,69.192 C25.972,70.296 25.24,71.28 24.256,72.168 L25.036,73.164 C26.116,72.156 26.944,71.004 27.496,69.732 C27.952,68.604 28.3,67.068 28.552,65.148 L28.984,65.148 C28.96,68.544 28.924,70.524 28.852,71.088 C28.756,71.748 28.384,72.084 27.748,72.084 C27.46,72.084 27.136,72.06 26.752,72.024 L27.04,73.14 C27.472,73.176 27.784,73.2 27.952,73.2 Z M22.696,73.248 L22.696,69.288 C22.948,69.168 23.2,69.06 23.464,68.94 L23.464,67.764 C23.2,67.884 22.948,68.004 22.696,68.124 L22.696,65.724 L23.512,65.724 L23.512,64.524 L22.696,64.524 L22.696,62.16 L21.472,62.16 L21.472,64.524 L20.956,64.524 C20.992,64.068 21.016,63.612 21.04,63.156 L19.924,63.072 C19.876,64.464 19.696,65.796 19.372,67.056 L20.476,67.368 C20.608,66.84 20.716,66.288 20.812,65.724 L21.472,65.724 L21.472,68.592 C20.824,68.808 20.176,68.988 19.516,69.12 L19.816,70.332 C20.38,70.164 20.932,69.972 21.472,69.78 L21.472,73.248 L22.696,73.248 Z M32.512,73.2 L36.676,62.16 L35.5,62.16 L31.324,73.2 L32.512,73.2 Z M48.292,68.244 L48.292,67.092 L43.636,67.092 L43.636,66.264 L47.26,66.264 L47.26,65.184 L43.636,65.184 L43.636,64.368 L47.896,64.368 L47.896,63.24 L45.472,63.24 C45.64,62.928 45.784,62.592 45.88,62.232 L44.536,62.052 C44.44,62.46 44.308,62.856 44.14,63.24 L41.908,63.24 C41.764,62.82 41.608,62.436 41.452,62.088 L40.12,62.304 C40.3,62.592 40.468,62.904 40.612,63.24 L38.104,63.24 L38.104,64.368 L42.364,64.368 L42.364,65.184 L38.776,65.184 L38.776,66.264 L42.364,66.264 L42.364,67.092 L37.708,67.092 L37.708,68.244 L48.292,68.244 Z M37.924,73.344 C39.916,72.936 41.32,72.384 42.112,71.688 C42.448,71.388 42.748,71.04 42.988,70.644 C43.792,71.928 45.46,72.816 47.992,73.308 L48.652,72.12 C46.48,71.808 44.98,71.208 44.164,70.344 L48.028,70.344 L48.028,69.168 L43.6,69.168 C43.648,68.976 43.684,68.772 43.72,68.568 L42.448,68.448 C42.4,68.688 42.352,68.928 42.28,69.168 L37.984,69.168 L37.984,70.344 L41.62,70.344 C41.464,70.512 41.284,70.68 41.08,70.848 C40.336,71.4 39.112,71.82 37.408,72.12 L37.924,73.344 Z M55.624,73.236 L55.624,66.24 C56.416,68.352 57.772,70.26 59.668,71.988 L60.52,70.92 C58.732,69.48 57.472,67.86 56.728,66.048 L60.16,66.048 L60.16,64.86 L55.624,64.86 L55.624,62.112 L54.376,62.112 L54.376,64.86 L49.852,64.86 L49.852,66.048 L53.272,66.048 C52.456,68.016 51.172,69.624 49.432,70.896 L50.128,72.012 C52.084,70.5 53.5,68.58 54.376,66.252 L54.376,73.236 L55.624,73.236 Z M58.132,64.68 L59.128,63.972 C58.768,63.444 58.252,62.832 57.58,62.124 L56.596,62.736 C57.244,63.456 57.748,64.104 58.132,64.68 Z M71.836,73.248 L71.836,69.312 L67.66,69.312 L67.66,68.472 L71.524,68.472 L71.524,65.628 L72.196,65.628 L72.196,63.252 L69.544,63.252 C69.424,62.82 69.304,62.436 69.172,62.076 L67.948,62.268 C68.092,62.568 68.224,62.892 68.344,63.252 L65.836,63.252 L65.836,65.628 L66.484,65.628 L66.484,73.236 L67.66,73.236 L67.66,72.72 L70.672,72.72 L70.672,73.248 L71.836,73.248 Z M62.14,67.596 C62.608,66.948 63.004,66.144 63.316,65.208 L64.264,65.208 C64.108,65.568 63.94,65.868 63.748,66.132 L64.636,66.84 C64.972,66.36 65.284,65.748 65.56,65.028 L65.56,64.056 L63.64,64.056 C63.76,63.552 63.856,63 63.952,62.424 L62.728,62.22 C62.488,64.044 62.02,65.508 61.324,66.6 L62.14,67.596 Z M71.02,65.16 L67.012,65.16 L67.012,64.38 L71.02,64.38 L71.02,65.16 Z M70.348,67.428 L67.66,67.428 L67.66,66.216 L70.348,66.216 L70.348,67.428 Z M63.124,73.056 C64.072,72.684 64.912,72.204 65.644,71.628 L65.404,70.464 C64.996,70.872 64.576,71.196 64.144,71.46 L64.144,66.6 L62.944,66.6 L62.944,71.376 C62.944,71.664 62.836,71.868 62.632,72.012 L63.124,73.056 Z M70.672,71.64 L67.66,71.64 L67.66,70.392 L70.672,70.392 L70.672,71.64 Z" id="博物/美术馆" fill="#FFFFFF" fill-rule="nonzero"></path>
            </g>
        </g>
    </g>
</svg>