<?xml version="1.0" encoding="UTF-8"?>
<svg width="80px" height="80px" viewBox="0 0 80 80" version="1.1" xmlns="http://www.w3.org/2000/svg" xmlns:xlink="http://www.w3.org/1999/xlink">
    <title>icon_tips08</title>
    <g id="首页-和-目的地" stroke="none" stroke-width="1" fill="none" fill-rule="evenodd">
        <g id="目的地疫情" transform="translate(-22.000000, -1612.000000)">
            <g id="icon_tips08" transform="translate(22.000000, 1612.000000)">
                <rect id="矩形" fill="#016F7E" x="0" y="0" width="80" height="80"></rect>
                <path d="M39.1894531,7.01445313 C44.0644531,7.01445313 48.0394531,10.9894531 48.0394531,15.8644531 L48.0388198,18.6884531 L51.1894531,18.6894531 C52.8769531,18.6894531 54.3269531,19.9519531 54.5769531,21.6269531 L58.3269531,47.9644531 C58.4644531,48.9394531 58.1769531,49.9394531 57.5269531,50.6894531 C56.8644531,51.4394531 55.9269531,51.8644531 54.9394531,51.8644531 L23.4394531,51.8644531 C22.4519531,51.8644531 21.5144531,51.4394531 20.8644531,50.6894531 C20.2144531,49.9394531 19.9269531,48.9519531 20.0644531,47.9644531 L23.8144531,21.6269531 C24.0519531,19.9519531 25.5019531,18.6894531 27.2019531,18.6894531 L30.3388198,18.6884531 L30.3394531,15.8644531 C30.3394531,14.7644531 30.6019531,11.9519531 32.9394531,9.61445313 C34.6144531,7.93945313 36.8394531,7.01445313 39.1894531,7.01445313 Z M51.1644531,21.4519531 L48.0388198,21.4514531 L48.039855,23.8146177 C48.4584425,24.1292059 48.7410671,24.6149466 48.7838119,25.167923 L48.7894531,25.3144531 C48.7894531,26.349987 47.949987,27.1894531 46.9144531,27.1894531 C45.8789192,27.1894531 45.0394531,26.349987 45.0394531,25.3144531 C45.0394531,24.7013957 45.3336762,24.1570578 45.7886197,23.8149422 L45.7888198,21.4514531 L32.5888198,21.4514531 L32.589855,23.8146177 C33.0084425,24.1292059 33.2910671,24.6149466 33.3338119,25.167923 L33.3394531,25.3144531 C33.3394531,26.349987 32.499987,27.1894531 31.4644531,27.1894531 C30.4289192,27.1894531 29.5894531,26.349987 29.5894531,25.3144531 C29.5894531,24.7013957 29.8836762,24.1570578 30.3386197,23.8149422 L30.3388198,21.4514531 L27.1894531,21.4519531 C26.8644531,21.4519531 26.5769531,21.7019531 26.5269531,22.0269531 L22.7769531,48.3644531 C22.7394531,48.6269531 22.8644531,48.8144531 22.9269531,48.8894531 C22.9894531,48.9644531 23.1644531,49.1144531 23.4269531,49.1144531 L54.9269531,49.1144531 C55.1894531,49.1144531 55.3519531,48.9769531 55.4269531,48.8894531 C55.5019531,48.8019531 55.6144531,48.6269531 55.5769531,48.3644531 L51.8269531,22.0269531 C51.7769531,21.7019531 51.5019531,21.4519531 51.1644531,21.4519531 Z M39.1894531,9.26445313 C37.4394531,9.26445313 35.7769531,9.95195313 34.5269531,11.2019531 C32.7394531,12.9894531 32.5894531,15.2269531 32.5894531,15.8644531 L32.5888198,18.6884531 L45.7888198,18.6884531 L45.7894531,15.8644531 C45.7894531,12.2269531 42.8269531,9.26445313 39.1894531,9.26445313 Z" id="形状结合" fill="#FFFFFF" fill-rule="nonzero"></path>
                <path d="M22.648,73.188 C23.464,73.188 23.884,72.696 23.884,71.736 L23.884,65.316 L21.316,65.316 C21.508,64.968 21.688,64.584 21.856,64.176 L24.364,64.176 L24.364,62.976 L19.672,62.976 C19.576,62.628 19.468,62.304 19.348,62.016 L17.98,62.232 C18.088,62.46 18.196,62.712 18.292,62.976 L13.636,62.976 L13.636,64.176 L16.048,64.176 C16.24,64.536 16.408,64.908 16.564,65.316 L14.092,65.316 L14.092,73.164 L15.304,73.164 L15.304,68.34 L16,69.24 C16.192,69.12 16.396,68.988 16.6,68.844 L16.6,71.88 L21.388,71.88 L21.388,68.772 C21.532,68.916 21.664,69.06 21.796,69.216 L22.672,68.352 L22.672,71.472 C22.672,71.892 22.528,72.108 22.264,72.108 L21.112,72.06 L21.424,73.188 L22.648,73.188 Z M19.96,65.316 L17.848,65.316 C17.704,64.908 17.56,64.536 17.416,64.176 L20.488,64.176 C20.32,64.56 20.152,64.944 19.96,65.316 Z M22.672,68.208 C22.048,67.632 21.292,67.032 20.428,66.42 L22.672,66.42 L22.672,68.208 Z M21.256,68.64 L16.876,68.64 C17.476,68.196 18.004,67.692 18.472,67.14 L17.668,66.42 L20.248,66.42 L19.48,67.164 C20.176,67.668 20.764,68.16 21.256,68.64 Z M15.304,68.136 L15.304,66.42 L17.536,66.42 C16.936,67.068 16.192,67.644 15.304,68.136 Z M20.176,70.776 L17.812,70.776 L17.812,69.744 L20.176,69.744 L20.176,70.776 Z M25.768,72.228 C27.088,71.916 28.312,71.544 29.464,71.112 L29.464,69.804 C29.02,69.972 28.576,70.128 28.132,70.272 L28.132,66.54 L29.5,66.54 L29.5,65.328 L28.132,65.328 L28.132,62.436 L26.86,62.436 L26.86,65.328 L25.552,65.328 L25.552,66.54 L26.86,66.54 L26.86,70.62 C26.38,70.728 25.912,70.824 25.432,70.896 L25.768,72.228 Z M34.084,73.116 C35.044,73.092 35.632,72.684 35.848,71.868 C36.064,71.052 36.22,69.168 36.304,66.24 L32.032,66.24 C33.256,65.46 34.372,64.644 35.392,63.792 L35.392,62.712 L30.088,62.712 L30.088,63.852 L33.532,63.852 C32.416,64.668 31.204,65.448 29.908,66.18 L29.908,67.32 L31.504,67.32 C31.12,68.352 30.508,69.192 29.656,69.852 L30.448,70.824 C31.504,69.972 32.248,68.808 32.68,67.32 L33.316,67.32 C33.076,68.448 32.704,69.36 32.212,70.056 C31.636,70.8 30.796,71.472 29.692,72.072 L30.472,73.068 C31.72,72.348 32.656,71.532 33.28,70.62 C33.808,69.816 34.228,68.712 34.516,67.32 L35.044,67.32 C34.972,69.732 34.864,71.088 34.72,71.376 C34.564,71.736 34.288,71.928 33.904,71.94 C33.472,71.94 33.028,71.916 32.584,71.868 L32.932,73.068 C33.304,73.092 33.688,73.116 34.084,73.116 Z M38.512,73.2 L42.676,62.16 L41.5,62.16 L37.324,73.2 L38.512,73.2 Z M44.368,73.272 C44.596,72.648 44.788,72 44.944,71.304 C45.388,71.904 45.904,72.324 46.48,72.588 C47.24032,72.92208 49.0623232,73.1013312 51.9672433,73.1151368 L54.268,73.116 L54.484,71.868 C53.956,71.916 53.14,71.94 52.06,71.94 C49.516,71.94 47.896,71.82 47.2,71.592 C47.164,71.58 47.128,71.568 47.104,71.556 L47.104,69.804 L48.52,69.804 L48.52,68.676 L47.104,68.676 L47.104,67.32 L48.436,67.32 L48.436,66.192 L46.84,66.192 L46.84,64.752 L48.532,64.752 L48.532,63.648 L46.84,63.648 L46.84,62.136 L45.652,62.136 L45.652,63.648 L43.936,63.648 L43.936,64.752 L45.652,64.752 L45.652,66.192 L43.84,66.192 L43.84,67.32 L45.928,67.32 L45.928,70.776 C45.664,70.512 45.412,70.2 45.184,69.828 C45.256,69.252 45.292,68.664 45.316,68.052 L44.248,67.92 C44.188,69.576 43.924,71.088 43.456,72.456 L44.368,73.272 Z M49.36,67.272 C50.02,66.792 50.524,66.252 50.86,65.652 C51.1,65.172 51.304,64.548 51.46,63.756 L52.888,63.756 C52.876,64.8 52.84,65.436 52.78,65.676 C52.72,65.916 52.564,66.048 52.312,66.06 C52.048,66.036 51.724,66.012 51.328,65.976 L51.64,67.08 C52.012,67.116 52.324,67.14 52.576,67.14 C53.128,67.14 53.512,66.924 53.74,66.492 C53.956,66.06 54.076,64.764 54.088,62.604 L48.82,62.604 L48.82,63.756 L50.296,63.756 C50.176,64.284 50.008,64.704 49.804,65.04 C49.516,65.472 49.108,65.868 48.556,66.228 L49.36,67.272 Z M53.908,71.484 L53.908,67.572 L49.132,67.572 L49.132,71.484 L53.908,71.484 Z M52.78,70.404 L50.248,70.404 L50.248,68.652 L52.78,68.652 L52.78,70.404 Z M61.636,73.248 L61.636,66.984 L64.288,66.984 L64.288,69.996 C64.288,70.236 64.144,70.356 63.88,70.356 L62.74,70.296 L63.064,71.472 L64.288,71.472 C65.116,71.472 65.536,71.064 65.536,70.272 L65.536,65.796 L61.636,65.796 L61.636,64.596 L66.364,64.596 L66.364,63.384 L61.6,63.384 C61.444,62.88 61.276,62.436 61.108,62.04 L59.752,62.256 C59.956,62.604 60.136,62.976 60.304,63.384 L55.636,63.384 L55.636,64.596 L60.364,64.596 L60.364,65.796 L56.62,65.796 L56.62,71.556 L57.856,71.556 L57.856,66.984 L60.364,66.984 L60.364,73.248 L61.636,73.248 Z" id="商场/超市" fill="#FFFFFF" fill-rule="nonzero"></path>
            </g>
        </g>
    </g>
</svg>