<?xml version="1.0" encoding="UTF-8"?>
<svg width="80px" height="80px" viewBox="0 0 80 80" version="1.1" xmlns="http://www.w3.org/2000/svg" xmlns:xlink="http://www.w3.org/1999/xlink">
    <title>icon_tips11</title>
    <g id="首页-和-目的地" stroke="none" stroke-width="1" fill="none" fill-rule="evenodd">
        <g id="目的地疫情" transform="translate(-22.000000, -1947.000000)">
            <g id="icon_tips11" transform="translate(22.000000, 1947.000000)">
                <rect id="矩形" fill="#016F7E" x="0" y="0" width="80" height="80"></rect>
                <path d="M46.0325521,48.0325521 L46.0325521,21.3658854 L29.3658854,21.3658854 L29.3658854,48.0325521 L46.0325521,48.0325521 Z M49.3658854,26.7825521 L58.5825521,32.5425521 C59.0698545,32.847117 59.3658854,33.3812347 59.3658854,33.9558854 L59.3658854,49.6992187 C59.3658854,50.6196933 58.6196933,51.3658854 57.6992188,51.3658854 L27.6992188,51.3658854 C26.7787442,51.3658854 26.0325521,50.6196933 26.0325521,49.6992187 L26.0325521,19.6992187 C26.0325521,18.7787442 26.7787442,18.0325521 27.6992188,18.0325521 L47.6992188,18.0325521 C48.6196933,18.0325521 49.3658854,18.7787442 49.3658854,19.6992187 L49.3658854,26.7825521 L49.3658854,26.7825521 Z M49.3658854,30.7125521 L49.3658854,48.0325521 L56.0325521,48.0325521 L56.0325521,34.8792187 L49.3658854,30.7125521 Z M32.6992188,26.3658854 L42.6992188,26.3658854 L42.6992188,29.6992187 L32.6992188,29.6992187 L32.6992188,26.3658854 Z M32.6992188,33.0325521 L42.6992188,33.0325521 L42.6992188,36.3658854 L32.6992188,36.3658854 L32.6992188,33.0325521 Z" id="形状" fill="#FFFFFF" fill-rule="nonzero"></path>
                <path d="M30.244,65.4 L30.244,64.02 L37.756,64.02 L37.756,65.4 L39.028,65.4 L39.028,62.904 L34.576,62.904 C34.468,62.592 34.36,62.316 34.24,62.052 L32.848,62.268 C32.98,62.46 33.1,62.676 33.22,62.904 L28.972,62.904 L28.972,65.4 L30.244,65.4 Z M39.292,70.512 L39.292,69.324 L36.436,69.324 L36.436,67.836 L37.984,67.836 L37.984,66.684 L31.9,66.684 L31.9,66.084 C33.88,65.952 35.668,65.724 37.252,65.412 L36.616,64.368 C34.876,64.812 32.896,65.052 30.688,65.1 L30.688,69.324 L28.732,69.324 L28.732,70.512 L39.292,70.512 Z M35.224,69.324 L31.9,69.324 L31.9,67.836 L35.224,67.836 L35.224,69.324 Z M38.26,73.332 L38.944,72.276 C37.912,71.652 36.772,71.112 35.524,70.668 L34.888,71.604 C36.052,72.024 37.18,72.6 38.26,73.332 Z M29.74,73.32 C31.072,72.792 32.2,72.168 33.136,71.472 L32.248,70.692 C31.36,71.316 30.256,71.856 28.96,72.324 L29.74,73.32 Z M50.836,73.248 L50.836,69.312 L46.66,69.312 L46.66,68.472 L50.524,68.472 L50.524,65.628 L51.196,65.628 L51.196,63.252 L48.544,63.252 C48.424,62.82 48.304,62.436 48.172,62.076 L46.948,62.268 C47.092,62.568 47.224,62.892 47.344,63.252 L44.836,63.252 L44.836,65.628 L45.484,65.628 L45.484,73.236 L46.66,73.236 L46.66,72.72 L49.672,72.72 L49.672,73.248 L50.836,73.248 Z M41.14,67.596 C41.608,66.948 42.004,66.144 42.316,65.208 L43.264,65.208 C43.108,65.568 42.94,65.868 42.748,66.132 L43.636,66.84 C43.972,66.36 44.284,65.748 44.56,65.028 L44.56,64.056 L42.64,64.056 C42.76,63.552 42.856,63 42.952,62.424 L41.728,62.22 C41.488,64.044 41.02,65.508 40.324,66.6 L41.14,67.596 Z M50.02,65.16 L46.012,65.16 L46.012,64.38 L50.02,64.38 L50.02,65.16 Z M49.348,67.428 L46.66,67.428 L46.66,66.216 L49.348,66.216 L49.348,67.428 Z M42.124,73.056 C43.072,72.684 43.912,72.204 44.644,71.628 L44.404,70.464 C43.996,70.872 43.576,71.196 43.144,71.46 L43.144,66.6 L41.944,66.6 L41.944,71.376 C41.944,71.664 41.836,71.868 41.632,72.012 L42.124,73.056 Z M49.672,71.64 L46.66,71.64 L46.66,70.392 L49.672,70.392 L49.672,71.64 Z" id="宾馆" fill="#FFFFFF" fill-rule="nonzero"></path>
            </g>
        </g>
    </g>
</svg>