<?xml version="1.0" encoding="UTF-8"?>
<svg width="80px" height="80px" viewBox="0 0 80 80" version="1.1" xmlns="http://www.w3.org/2000/svg" xmlns:xlink="http://www.w3.org/1999/xlink">
    <title>icon_tips06</title>
    <g id="首页-和-目的地" stroke="none" stroke-width="1" fill="none" fill-rule="evenodd">
        <g id="目的地疫情" transform="translate(-22.000000, -1397.000000)">
            <g id="icon_tips06" transform="translate(22.000000, 1397.000000)">
                <rect id="矩形" fill="#016F7E" x="0" y="0" width="80" height="80"></rect>
                <path d="M24.4593262,12.4494629 C25.2538086,12.4494629 25.9,13.0849121 25.9183105,13.8757324 L25.9187012,13.9102539 L25.9187012,26.4171875 C25.9187012,28.3701172 27.2094238,30.115918 29.1516113,30.8274414 L29.2106934,30.8486816 C29.8661621,31.0802246 30.2529297,31.7326172 30.1749512,32.395752 C30.1799805,32.4395996 30.1830566,32.4839844 30.184082,32.5288574 L30.1844727,32.5633789 L30.1844727,51.5416016 C30.1844727,51.984375 30.5380371,52.3401367 30.9703125,52.3401367 C31.3937012,52.3401367 31.7416504,51.9987305 31.7556641,51.5686523 L31.7561035,51.5416016 L31.7561035,32.9005371 C31.7426151,32.8680594 31.7302863,32.8351121 31.7191406,32.8017578 C31.467334,32.0478516 31.8641113,31.2333008 32.6069824,30.9648438 L32.6404785,30.9532227 C34.6441895,30.2827148 35.9946777,28.5348145 36.0214844,26.5668945 L36.021875,26.5071777 L36.021875,14.0226074 C36.021875,13.2158691 36.6752441,12.5618164 37.48125,12.5618164 C38.2756836,12.5618164 38.921875,13.1973145 38.9401855,13.9881348 L38.9405762,14.0226074 L38.9405762,26.5071777 C38.9405762,29.3943848 37.2473145,31.9593262 34.6748047,33.2611328 L34.6748047,51.5416016 C34.6748047,53.5944336 33.0179688,55.2617188 30.9703125,55.2617188 C28.9430664,55.2617188 27.2989258,53.6276367 27.2662598,51.6030762 L27.2657715,51.5416016 L27.2657715,33.1876953 C24.7197754,31.8992676 23.0380371,29.3679687 23.0006348,26.5143555 L23,26.4171875 L23,13.9102539 C23,13.1034668 23.6533691,12.4494629 24.4593262,12.4494629 Z M49.8857422,12 C54.459668,12 57.9121094,17.0212891 57.9121094,23.0120605 C57.9121094,27.1932129 56.2241211,30.9830566 53.5341309,32.8431152 L53.534082,51.4818359 C53.534082,53.5593262 51.8859375,55.2617188 49.829541,55.2617188 C47.79375,55.2617188 46.1580566,53.5932129 46.1255371,51.544043 L46.1250488,51.4818359 L46.125,32.7638184 C43.4962402,30.8731445 41.8592773,27.1296875 41.8592773,23.0120605 C41.8592773,17.0212891 45.3117187,12 49.8856934,12 L49.8857422,12 Z M49.8857422,14.921582 C47.205957,14.921582 44.7780273,18.452832 44.7780273,23.0120605 C44.7780273,26.3273438 46.0858887,29.2304688 47.9564453,30.4801758 L48.0132812,30.5175293 C48.0929989,30.5689977 48.1675344,30.6280798 48.2358398,30.6939453 C48.7052246,30.9287109 49.0305176,31.4092285 49.0434082,31.967041 L49.0437988,32.0015137 L49.0437988,51.4818359 C49.0437988,51.9659668 49.4061035,52.3401367 49.8295898,52.3401367 C50.2446777,52.3401367 50.6008789,51.9807617 50.6149902,51.5107422 L50.6154297,51.4818359 L50.6154297,32.0015137 C50.6154297,31.3680176 51.0182617,30.8287109 51.5814941,30.6262695 L51.6083008,30.6101074 C53.580957,29.4489258 54.993457,26.4574219 54.993457,23.0120605 C54.993457,18.4527832 52.5655273,14.921582 49.8857422,14.921582 L49.8857422,14.921582 Z M30.9703125,12.5224609 C31.7647461,12.5224609 32.4109375,13.1579102 32.429248,13.9487305 L32.4296387,13.9832031 L32.4296387,25.5571289 C32.4296387,26.363916 31.7762695,27.0179199 30.9703125,27.0179199 C30.1758301,27.0179199 29.5296387,26.3824707 29.5113281,25.5916504 L29.5109375,25.5571289 L29.5109375,13.983252 C29.5109375,13.1765137 30.1643066,12.5224609 30.9703125,12.5224609 L30.9703125,12.5224609 Z" id="形状" fill="#FFFFFF" fill-rule="nonzero"></path>
                <path d="M29.02,67.212 C31.144,66.732 32.716,65.82 33.748,64.488 L33.748,63.816 L32.2,63.816 L32.2,63.396 L33.748,63.396 L33.748,62.496 L32.2,62.496 L32.2,62.112 L31.144,62.112 L31.144,63.816 L30.616,63.816 C30.712,63.624 30.796,63.432 30.868,63.216 L29.788,63.096 C29.536,63.792 29.068,64.38 28.372,64.86 L29.008,65.664 C29.2,65.52 29.392,65.364 29.584,65.196 C29.872,65.388 30.124,65.592 30.364,65.784 C29.812,66 29.188,66.18 28.504,66.312 L29.02,67.212 Z M38.692,66.864 L39.304,65.916 C38.728,65.52 38.14,65.148 37.516,64.8 C38.068,64.356 38.476,63.84 38.74,63.24 L38.74,62.436 L34.336,62.436 L34.336,63.408 L37.408,63.408 C37.168,63.72 36.868,63.996 36.508,64.248 C35.956,63.972 35.392,63.72 34.816,63.48 L34.324,64.212 C34.72,64.38 35.128,64.572 35.536,64.788 C35.26,64.908 34.96,65.016 34.636,65.124 L35.296,65.988 C35.776,65.82 36.208,65.616 36.616,65.4 C37.312,65.832 37.996,66.312 38.692,66.864 Z M31.24,65.364 C30.904,65.112 30.532,64.86 30.124,64.608 L32.32,64.608 C31.996,64.896 31.636,65.148 31.24,65.364 Z M38.476,73.356 L39.076,72.432 C38.596,72.24 38.116,72.072 37.612,71.916 C38.008,71.556 38.38,71.16 38.74,70.752 L37.756,70.236 C37.624,70.416 37.48,70.596 37.324,70.788 L37.324,68.232 C37.804,68.424 38.332,68.616 38.92,68.82 L39.58,67.812 C37.252,67.284 35.548,66.516 34.444,65.508 L33.556,65.508 C32.368,66.612 30.676,67.428 28.492,67.968 L29.164,68.976 C29.62,68.796 30.052,68.616 30.46,68.448 L30.46,71.82 C30.46,72.06 30.304,72.216 29.992,72.276 L30.316,73.272 C31.852,73.128 33.148,72.96 34.18,72.78 L33.964,71.844 C33.232,71.964 32.476,72.072 31.684,72.168 L31.684,71.004 L34.12,71.004 L33.664,71.664 C35.308,72.072 36.916,72.636 38.476,73.356 Z M33.568,67.836 L31.768,67.836 C32.68,67.356 33.424,66.876 34,66.396 C34.516,66.864 35.32,67.344 36.4,67.836 L34.684,67.836 C34.564,67.548 34.444,67.296 34.3,67.056 L33.16,67.236 C33.304,67.416 33.436,67.62 33.568,67.836 Z M36.16,69.036 L31.684,69.036 L31.684,68.568 L36.16,68.568 L36.16,69.036 Z M36.16,70.26 L31.684,70.26 L31.684,69.744 L36.16,69.744 L36.16,70.26 Z M36.58,71.592 C35.848,71.376 35.092,71.184 34.3,71.004 L37.144,71.004 C36.964,71.196 36.772,71.4 36.58,71.592 Z M41.392,73.224 C42.352,71.712 42.868,69.72 42.916,67.224 L42.916,63.744 L51.196,63.744 L51.196,62.52 L41.656,62.52 L41.656,67.224 C41.62,69.42 41.212,71.136 40.432,72.372 L41.392,73.224 Z M46.828,73.068 C47.704,73.068 48.148,72.588 48.148,71.64 L48.148,66.504 L51.04,66.504 L51.04,65.316 L43.384,65.316 L43.384,66.504 L46.9,66.504 L46.9,71.34 C46.9,71.748 46.732,71.952 46.396,71.952 C46.036,71.952 45.664,71.928 45.268,71.88 L45.556,73.068 L46.828,73.068 Z" id="餐厅" fill="#FFFFFF" fill-rule="nonzero"></path>
            </g>
        </g>
    </g>
</svg>