<?xml version="1.0" encoding="UTF-8"?>
<svg width="80px" height="80px" viewBox="0 0 80 80" version="1.1" xmlns="http://www.w3.org/2000/svg" xmlns:xlink="http://www.w3.org/1999/xlink">
    <title>icon_tips09</title>
    <g id="首页-和-目的地" stroke="none" stroke-width="1" fill="none" fill-rule="evenodd">
        <g id="目的地疫情" transform="translate(-22.000000, -1727.000000)">
            <g id="icon_tips09" transform="translate(22.000000, 1727.000000)">
                <rect id="矩形" fill="#016F7E" x="0" y="0" width="80" height="80"></rect>
                <path d="M57.0371094,51.4908854 C57.9000543,51.4908854 58.5996094,52.1904405 58.5996094,53.0533854 C58.5996094,53.9163303 57.9000543,54.6158854 57.0371094,54.6158854 L22.6621094,54.6158854 C21.7991645,54.6158854 21.0996094,53.9163303 21.0996094,53.0533854 C21.0996094,52.1904405 21.7991645,51.4908854 22.6621094,51.4908854 L57.0371094,51.4908854 Z M54.953776,15.0325521 C58.1178385,15.0325521 60.6829427,17.5976562 60.6829427,20.7617187 L60.6829427,47.1440104 C60.6829427,48.0647367 60.0781558,48.8761361 59.1959563,49.1396908 C58.3137568,49.4032455 57.3631724,49.056446 56.8579427,48.2867187 L47.681901,34.3039062 C45.5371094,35.3523437 42.9214844,35.8658854 39.8496094,35.8658854 C36.7777344,35.8658854 34.1621094,35.3523437 32.0173177,34.3039062 L22.841276,48.2867187 C22.3360464,49.056446 21.3854619,49.4032455 20.5032624,49.1396908 C19.6210629,48.8761361 19.016276,48.0647367 19.016276,47.1440104 L19.016276,20.7617187 C19.016276,17.5976562 21.5813802,15.0325521 24.7454427,15.0325521 L54.953776,15.0325521 Z M54.953776,18.1575521 L24.7454427,18.1575521 C24.0547748,18.1575521 23.3923948,18.4319189 22.9040188,18.9202948 C22.4156428,19.4086708 22.141276,20.0710508 22.141276,20.7617187 L22.141276,43.6575521 L30.210026,31.3627604 C30.4384801,31.0147125 30.7963881,30.7722292 31.2043348,30.6891144 C31.6122815,30.6059997 32.0365292,30.6891272 32.3829427,30.9200521 C34.1845052,32.1210937 36.6641927,32.7408854 39.8496094,32.7408854 C43.035026,32.7408854 45.5147135,32.1210937 47.316276,30.9200521 C47.6626895,30.6891272 48.0869372,30.6059997 48.494884,30.6891144 C48.9028307,30.7722292 49.2607387,31.0147125 49.4891927,31.3627604 L57.5579427,43.6580729 L57.5579427,20.7617187 C57.5579427,20.0710508 57.2835759,19.4086708 56.7952,18.9202948 C56.306824,18.4319189 55.644444,18.1575521 54.953776,18.1575521 L54.953776,18.1575521 Z" id="形状" fill="#FFFFFF" fill-rule="nonzero"></path>
                <path d="M29.452,65.472 C30.856,64.824 32.044,64.02 33.028,63.036 L32.26,62.16 C31.396,63.084 30.292,63.84 28.936,64.416 L29.452,65.472 Z M29.02,67.428 L29.02,66.468 L26.356,66.468 L26.224,65.928 L28.48,65.928 L28.48,62.508 L23.128,62.508 L23.128,65.928 L25.06,65.928 L25.192,66.468 L22.516,66.468 L22.516,67.428 L29.02,67.428 Z M27.352,63.888 L24.244,63.888 L24.244,63.348 L27.352,63.348 L27.352,63.888 Z M27.352,65.124 L24.244,65.124 L24.244,64.608 L27.352,64.608 L27.352,65.124 Z M29.68,68.964 C31.12,68.232 32.332,67.308 33.34,66.192 L32.584,65.316 C31.696,66.384 30.568,67.248 29.176,67.908 L29.68,68.964 Z M25.336,73.14 C26.044,73.14 26.404,72.792 26.404,72.12 L26.404,70.416 L28.408,70.416 L28.408,67.932 L23.224,67.932 L23.224,70.416 L25.216,70.416 L25.216,71.844 C25.216,72.024 25.12,72.12 24.952,72.12 C24.736,72.12 24.496,72.096 24.244,72.06 L24.496,73.14 L25.336,73.14 Z M29.248,73.224 C31.18,72.408 32.644,71.052 33.628,69.168 L32.668,68.436 C31.792,70.116 30.484,71.34 28.744,72.084 L29.248,73.224 Z M27.268,69.564 L24.364,69.564 L24.364,68.772 L27.268,68.772 L27.268,69.564 Z M23.272,73.068 C23.692,72.504 24.052,71.832 24.364,71.064 L23.44,70.608 C23.152,71.316 22.792,71.928 22.384,72.432 L23.272,73.068 Z M27.808,72.828 L28.696,72.216 C28.456,71.76 28.132,71.232 27.724,70.632 L26.872,71.16 C27.268,71.772 27.58,72.324 27.808,72.828 Z M43.924,73.14 C44.752,73.14 45.172,72.72 45.172,71.88 L45.172,62.184 L43.924,62.184 L43.924,71.556 C43.924,71.868 43.78,72.024 43.492,72.024 C42.976,72.024 42.436,72 41.86,71.952 L42.136,73.14 L43.924,73.14 Z M35.284,73.284 C35.932,71.772 36.316,70.008 36.412,67.968 L38.152,67.968 L38.152,69.132 L36.592,69.132 L36.592,73.152 L37.732,73.152 L37.732,72.732 L39.88,72.732 L39.88,73.152 L41.056,73.152 L41.056,69.132 L39.364,69.132 L39.364,67.968 L41.404,67.968 L41.404,66.828 L39.364,66.828 L39.364,65.7 L41.248,65.7 L41.248,62.52 L35.248,62.52 L35.248,67.008 C35.236,69.216 34.936,71.028 34.336,72.432 L35.284,73.284 Z M43.096,70.572 L43.096,63.204 L41.872,63.204 L41.872,70.572 L43.096,70.572 Z M40.072,64.596 L36.436,64.596 L36.436,63.66 L40.072,63.66 L40.072,64.596 Z M38.152,66.828 L36.436,66.828 L36.436,65.7 L38.152,65.7 L38.152,66.828 Z M39.88,71.628 L37.732,71.628 L37.732,70.212 L39.88,70.212 L39.88,71.628 Z M56.32,66.504 L56.32,65.76 L57.292,65.76 L57.292,63.096 L54.58,63.096 C54.46,62.712 54.352,62.376 54.232,62.076 L52.936,62.292 C53.068,62.532 53.188,62.808 53.296,63.096 L50.728,63.096 L50.728,65.76 L51.736,65.76 L51.736,66.504 L56.32,66.504 Z M48.04,73.26 L48.04,70.14 L48.424,71.328 C49.24,71.316 49.804,71.16 50.14,70.848 C50.356,70.596 50.464,70.176 50.464,69.6 C50.404,68.784 50.056,67.824 49.408,66.708 C49.828,65.58 50.188,64.512 50.5,63.504 L50.5,62.52 L46.816,62.52 L46.816,73.26 L48.04,73.26 Z M48.7,70.128 C48.52,70.128 48.304,70.104 48.04,70.068 L48.04,63.696 L49.276,63.696 C49.012,64.644 48.652,65.712 48.196,66.9 C48.892,67.896 49.252,68.796 49.252,69.6 C49.252,69.792 49.216,69.924 49.144,69.996 C49.06,70.068 48.916,70.104 48.7,70.128 Z M56.08,65.388 L51.94,65.388 L51.94,64.272 L56.08,64.272 L56.08,65.388 Z M50.98,73.224 C51.868,72.696 52.516,72.06 52.9,71.34 C53.2,70.764 53.392,69.876 53.488,68.688 L54.268,68.688 L54.268,71.796 C54.268,72.156 54.364,72.456 54.568,72.708 C54.736,72.948 55,73.068 55.36,73.068 L56.332,73.068 C56.74,73.056 57.028,72.96 57.196,72.78 C57.34,72.588 57.472,71.916 57.568,70.788 L56.428,70.404 C56.404,71.268 56.356,71.748 56.284,71.844 C56.224,71.916 56.152,71.964 56.068,71.964 L55.756,71.964 C55.588,71.964 55.504,71.808 55.504,71.496 L55.504,68.688 L57.376,68.688 L57.376,67.512 L50.8,67.512 L50.8,68.688 L52.264,68.688 C52.192,69.624 52.024,70.308 51.772,70.752 C51.46,71.304 50.92,71.772 50.176,72.18 L50.98,73.224 Z" id="影剧院" fill="#FFFFFF" fill-rule="nonzero"></path>
            </g>
        </g>
    </g>
</svg>