<?xml version="1.0" encoding="UTF-8"?>
<svg width="80px" height="80px" viewBox="0 0 80 80" version="1.1" xmlns="http://www.w3.org/2000/svg" xmlns:xlink="http://www.w3.org/1999/xlink">
    <title>icon_tips02</title>
    <g id="首页-和-目的地" stroke="none" stroke-width="1" fill="none" fill-rule="evenodd">
        <g id="目的地疫情" transform="translate(-22.000000, -957.000000)">
            <g id="icon_tips02" transform="translate(22.000000, 957.000000)">
                <rect id="矩形" fill="#016F7E" x="0" y="0" width="80" height="80"></rect>
                <path d="M56.0722656,28.5838281 L52.6372656,19.8138281 C51.9922656,18.1438281 50.5922656,16.7138281 47.9522656,16.7138281 L43.1022656,16.7138281 C43.1022656,16.7138281 41.5322656,13.0438281 40.7222656,13.0438281 L37.2222656,13.0438281 C36.4172656,13.0438281 34.8422656,16.7138281 34.8422656,16.7138281 L29.9372656,16.7138281 C27.2972656,16.7138281 25.8972656,18.1438281 25.2522656,19.8138281 L21.8172656,28.5838281 C19.5878643,29.0642568 18.0089777,31.0535703 18.0472656,33.3338281 L18.0472656,44.4888281 L21.9122656,44.4888281 L21.9122656,47.2688281 C21.9122656,51.6588281 27.1372656,51.6088281 27.1372656,47.2688281 L27.1372656,44.4888281 L50.7522656,44.4888281 L50.7522656,47.2688281 C50.7522656,51.6088281 55.9772656,51.6588281 55.9772656,47.2688281 L55.9772656,44.4888281 L59.8422656,44.4888281 L59.8422656,33.3338281 C59.8805536,31.0535703 58.3016669,29.0642568 56.0722656,28.5838281 Z M26.4522656,37.7338281 C25.2242995,37.7573921 24.1041334,37.035664 23.618073,35.907745 C23.1320127,34.7798259 23.3766845,33.4699407 24.2371303,32.5935338 C25.0975761,31.717127 26.4027436,31.4484238 27.5394048,31.9136734 C28.676066,32.3789231 29.4182584,33.4856364 29.4172656,34.7138281 C29.4255256,35.5077747 29.1175547,36.2723834 28.5613022,36.8389542 C28.0050497,37.4055251 27.2462299,37.7274958 26.4522656,37.7338281 L26.4522656,37.7338281 Z M25.3722656,28.3788281 L27.9572656,21.5938281 C28.2822656,20.6238281 28.7672656,19.9188281 29.8972656,19.9088281 L47.9922656,19.9088281 C49.1222656,19.9188281 49.6072656,20.6238281 49.9322656,21.5938281 L52.5172656,28.3788281 L25.3722656,28.3788281 Z M51.4372656,37.7338281 C50.2092995,37.7573921 49.0891334,37.035664 48.603073,35.907745 C48.1170127,34.7798259 48.3616845,33.4699407 49.2221303,32.5935338 C50.0825761,31.717127 51.3877436,31.4484238 52.5244048,31.9136734 C53.661066,32.3789231 54.4032584,33.4856364 54.4022656,34.7138281 C54.4172464,36.3664567 53.0898904,37.7184348 51.4372656,37.7338281 L51.4372656,37.7338281 Z" id="形状" fill="#FFFFFF" fill-rule="nonzero"></path>
                <path d="M16.624,73.26 L16.624,69.876 C17.8,71.028 19.192,71.964 20.8,72.66 L21.508,71.448 C19.48,70.704 17.848,69.696 16.624,68.424 L16.624,65.376 L21.328,65.376 L21.328,64.224 L16.624,64.224 L16.624,63.54 C18.004,63.444 19.216,63.312 20.272,63.144 L19.672,62.088 C17.464,62.412 14.788,62.58 11.62,62.58 L11.992,63.672 C13.192,63.672 14.32,63.648 15.376,63.6 L15.376,64.224 L10.66,64.224 L10.66,65.376 L15.376,65.376 L15.376,68.46 C14.236,69.66 12.604,70.68 10.468,71.544 L11.248,72.708 C12.832,71.964 14.212,71.052 15.376,69.948 L15.376,73.26 L16.624,73.26 Z M20.14,69.276 C20.524,69.276 20.824,69.204 21.016,69.072 C21.208,68.928 21.34,68.484 21.424,67.728 L20.26,67.368 C20.248,67.776 20.212,68.028 20.152,68.112 C20.092,68.184 20.008,68.232 19.9,68.232 L19.084,68.232 C18.808,68.232 18.676,68.052 18.676,67.692 L18.676,67.464 C19.564,67.344 20.368,67.164 21.076,66.924 L20.68,65.88 C20.068,66.132 19.396,66.324 18.676,66.444 L18.676,65.676 L17.452,65.676 L17.452,67.932 C17.452,68.82 17.884,69.276 18.748,69.276 L20.14,69.276 Z M11.068,69.288 C11.86,69.144 12.592,68.988 13.252,68.832 L13.252,69.24 L14.488,69.24 L14.488,65.688 L13.252,65.688 L13.252,66.156 L11.044,66.156 L11.044,67.236 L13.252,67.236 L13.252,67.836 C12.484,67.956 11.644,68.064 10.72,68.16 L11.068,69.288 Z M24.364,73.164 L24.364,72.636 L31.636,72.636 L31.636,73.164 L32.896,73.164 L32.896,68.292 L31.636,68.292 L31.636,71.424 L28.648,71.424 L28.648,67.392 L32.296,67.392 L32.296,63.036 L31.036,63.036 L31.036,66.192 L28.648,66.192 L28.648,62.136 L27.352,62.136 L27.352,66.192 L24.964,66.192 L24.964,63.036 L23.704,63.036 L23.704,67.392 L27.352,67.392 L27.352,71.424 L24.364,71.424 L24.364,68.292 L23.104,68.292 L23.104,73.164 L24.364,73.164 Z M37.684,73.212 L37.684,68.184 C37.948,68.544 38.272,68.988 38.656,69.54 L39.352,68.484 C38.788,67.908 38.236,67.392 37.684,66.924 L37.684,66.444 L39.208,66.444 L39.208,65.256 L37.684,65.256 L37.684,63.672 C38.212,63.564 38.704,63.444 39.184,63.324 L38.752,62.172 C37.576,62.532 36.232,62.784 34.732,62.904 L34.984,64.032 C35.476,63.984 35.956,63.924 36.436,63.864 L36.436,65.256 L34.684,65.256 L34.684,66.444 L36.304,66.444 C35.884,67.644 35.224,68.712 34.336,69.66 L34.864,70.968 C35.488,70.152 36.016,69.264 36.436,68.28 L36.436,73.212 L37.684,73.212 Z M45.544,72.852 L45.544,71.652 L44.644,71.652 L44.644,62.52 L39.712,62.52 L39.712,71.652 L38.704,71.652 L38.704,72.852 L45.544,72.852 Z M43.396,65.496 L40.924,65.496 L40.924,63.696 L43.396,63.696 L43.396,65.496 Z M43.396,68.568 L40.924,68.568 L40.924,66.672 L43.396,66.672 L43.396,68.568 Z M43.396,71.652 L40.924,71.652 L40.924,69.744 L43.396,69.744 L43.396,71.652 Z M50.296,66.696 C50.56,66.288 50.8,65.844 51.028,65.376 L51.028,66.168 L56.176,66.168 L56.176,65.016 L51.196,65.016 C51.304,64.776 51.412,64.536 51.508,64.272 L56.704,64.272 L56.704,63.072 L51.904,63.072 C51.976,62.832 52.036,62.592 52.108,62.34 L50.956,62.088 C50.632,63.48 50.068,64.8 49.276,66.048 L50.296,66.696 Z M48.808,64.848 L49.684,63.972 C49.12,63.408 48.436,62.844 47.632,62.268 L46.756,63.12 C47.644,63.732 48.328,64.308 48.808,64.848 Z M48.484,67.74 L49.348,66.876 C48.796,66.3 48.124,65.712 47.32,65.136 L46.444,65.988 C47.32,66.612 48.004,67.188 48.484,67.74 Z M56.248,73.212 C56.524,73.212 56.776,73.032 56.992,72.684 C57.208,72.336 57.412,71.628 57.592,70.548 L56.596,70.068 C56.524,70.512 56.464,70.908 56.416,71.256 C56.32,71.664 56.224,71.88 56.14,71.88 C55.972,71.88 55.864,71.724 55.804,71.424 C55.7264615,71.136 55.6898225,70.5310296 55.6846445,69.5902121 L55.684,66.924 L50.188,66.924 L50.188,68.088 L54.58,68.088 L54.58,69.348 C54.58,70.896 54.712,71.916 54.988,72.42 C55.252,72.936 55.672,73.2 56.248,73.212 Z M47.74,73.128 C48.352,71.784 48.904,70.344 49.396,68.808 L48.292,68.376 C47.812,69.816 47.236,71.232 46.576,72.612 L47.74,73.128 Z M64.792,73.332 L64.792,70.884 L69.196,70.884 L69.196,69.66 L64.792,69.66 L64.792,68.244 L68.368,68.244 L68.368,67.092 L64.792,67.092 L64.792,65.544 L63.508,65.544 L63.508,67.092 L61,67.092 C61.528,66.42 62.02,65.64 62.488,64.776 L69.016,64.776 L69.016,63.552 L63.088,63.552 C63.256,63.156 63.424,62.748 63.592,62.328 L62.344,62.04 C62.14,62.568 61.936,63.072 61.72,63.552 L58.972,63.552 L58.972,64.776 L61.096,64.776 C60.568,65.712 60.016,66.48 59.416,67.092 L59.704,68.244 L63.508,68.244 L63.508,69.66 L58.816,69.66 L58.816,70.884 L63.508,70.884 L63.508,73.332 L64.792,73.332 Z" id="乘出租汽车" fill="#FFFFFF" fill-rule="nonzero"></path>
            </g>
        </g>
    </g>
</svg>