<?xml version="1.0" encoding="UTF-8"?>
<svg width="50px" height="50px" viewBox="0 0 50 50" version="1.1" xmlns="http://www.w3.org/2000/svg" xmlns:xlink="http://www.w3.org/1999/xlink">
    <title>icon_weather_thunder</title>
    <defs>
        <filter id="filter-1">
            <feColorMatrix in="SourceGraphic" type="matrix" values="0 0 0 0 1.000000 0 0 0 0 1.000000 0 0 0 0 1.000000 0 0 0 1.000000 0"></feColorMatrix>
        </filter>
    </defs>
    <g id="首页-和-目的地" stroke="none" stroke-width="1" fill="none" fill-rule="evenodd">
        <g filter="url(#filter-1)" id="小雨">
            <g transform="translate(5.000000, 6.000000)">
                <path d="M32.1072443,12.2606534 L30.153608,11.9288352 L29.5172443,10.0624716 C28.1201331,6.02947247 24.3208368,3.32481495 20.0526989,3.32481495 C15.7845609,3.32481495 11.9852646,6.02947247 10.5881534,10.0624716 L9.95178977,11.9288352 L7.9990625,12.2606534 C5.16623309,12.7503421 3.17954323,15.326771 3.42614648,18.1910169 C3.67274973,21.0552627 6.07058449,23.2541968 8.94542613,23.2525933 L31.1672443,23.2525933 C34.0533051,23.2714439 36.4692896,21.069114 36.7168605,18.1936288 C36.9644315,15.3181435 34.9604394,12.7352664 32.113608,12.2606534 L32.1072443,12.2606534 Z M40.0481534,17.7151989 C40.0440582,20.0681524 39.1054217,22.323108 37.4387339,23.9839991 C35.7720462,25.6448902 33.5138342,26.5756649 31.1608807,26.5717003 L8.9381534,26.5717003 C4.32257543,26.5970938 0.461756502,23.072464 0.0678445516,18.4736549 C-0.326067399,13.8748458 2.87910387,9.74497711 7.43178977,8.98519887 C9.29412034,3.60859085 14.3590547,0.00279815419 20.0490625,0.00279815419 C25.7390703,0.00279815419 30.8040047,3.60859085 32.6663352,8.98519887 C36.9232609,9.70937333 40.0397909,13.3943945 40.0472443,17.7124716 L40.0481534,17.7151989 Z M18.863281,24.3703129 C19.278015,23.5639928 20.2613376,23.2372687 21.0761534,23.6350521 C21.8909692,24.0328354 22.2381828,25.0091114 21.857524,25.8320666 L18.8464738,31.9831778 C18.4427694,32.8102607 17.4450192,33.1534768 16.6179363,32.7497725 C15.7908534,32.3460682 15.4476373,31.3483181 15.8513415,30.5212351 L18.863281,24.3703129 Z M19.5939585,30.4471102 C20.0086924,29.6407901 20.9920151,29.314066 21.8068309,29.7118494 C22.6216467,30.1096327 22.9688603,31.0859087 22.5882015,31.9088639 L19.5771512,38.0599751 C19.1734469,38.887058 18.1756967,39.2302742 17.3486138,38.8265698 C16.5215309,38.4228655 16.1783147,37.4251154 16.582019,36.5980324 L19.5939585,30.4471102 Z" id="形状" fill="#000000" fill-rule="nonzero"></path>
            </g>
        </g>
    </g>
</svg>