<?xml version="1.0" encoding="UTF-8"?>
<svg width="50px" height="50px" viewBox="0 0 50 50" version="1.1" xmlns="http://www.w3.org/2000/svg" xmlns:xlink="http://www.w3.org/1999/xlink">
    <title>icon_weather_rain</title>
    <defs>
        <filter id="filter-1">
            <feColorMatrix in="SourceGraphic" type="matrix" values="0 0 0 0 1.000000 0 0 0 0 1.000000 0 0 0 0 1.000000 0 0 0 1.000000 0"></feColorMatrix>
        </filter>
    </defs>
    <g id="首页-和-目的地" stroke="none" stroke-width="1" fill="none" fill-rule="evenodd">
        <g filter="url(#filter-1)" id="中雨">
            <g transform="translate(5.000000, 6.000000)">
                <path d="M32.0911512,12.5491979 L30.1377812,12.2092442 L29.5015043,10.3004136 C28.1797975,6.1900571 24.3558806,3.40291046 20.0382493,3.40291046 C15.7206181,3.40291046 11.8967011,6.1900571 10.5749943,10.3004136 L9.93871746,12.2092442 L7.98534746,12.5491979 C5.13995585,13.1031164 3.16839739,15.7110736 3.4113123,18.5996842 C3.65422722,21.4882949 6.03364368,23.730361 8.93158207,23.8012998 L31.1503704,23.8012998 C34.059973,23.7477064 36.4576129,21.5021378 36.7014739,18.6022772 C36.9453349,15.7024166 34.9563938,13.0879626 32.096605,12.5491979 L32.0911512,12.5491979 Z M40.0309776,18.1347998 C40.079917,23.092181 36.1013787,27.1508842 31.1440076,27.2008363 L8.92612824,27.2008363 C4.27625434,27.1057293 0.449731025,23.513064 0.0619693039,18.8784104 C-0.325792417,14.2437569 2.85054517,10.065192 7.41997,9.19874563 C9.18161728,3.71858965 14.2796317,0.00244949379 20.0359769,0.00244949379 C25.7923222,0.00244949379 30.8903365,3.71858965 32.6519838,9.19874563 C36.9535497,9.99352318 40.0645741,13.7605488 40.0321417,18.1347998 L40.0309776,18.1347998 Z M10.0868791,30.1831568 C10.1909587,29.7523757 10.4626386,29.3809375 10.8416463,29.1512462 C11.220654,28.921555 11.6756507,28.8526029 12.1056947,28.9596873 C13.0007501,29.1987208 13.540388,30.1095616 13.3200745,31.0094078 L11.6539381,37.8093896 C11.5500597,38.2403385 11.2784634,38.6119976 10.8994322,38.8418737 C10.5204011,39.0717499 10.0652927,39.1408253 9.6351225,39.0337681 C8.73962537,38.7947387 8.19986351,37.8832846 8.42074262,36.9831387 L10.0868791,30.1831568 Z M18.4184702,30.1831568 C18.5225498,29.7523757 18.7942298,29.3809375 19.1732375,29.1512462 C19.5522451,28.921555 20.0072418,28.8526029 20.4372858,28.9596873 C21.3323412,29.1987208 21.8719791,30.1095616 21.6516657,31.0094078 L19.9855293,37.8093896 C19.8816509,38.2403385 19.6100546,38.6119976 19.2310234,38.8418738 C18.8519922,39.0717499 18.3968839,39.1408254 17.9667136,39.0337681 C17.0712165,38.7947387 16.5314547,37.8832845 16.7523338,36.9831387 L18.4184702,30.1831568 Z M26.7500614,30.1831568 C26.854141,29.7523758 27.1258209,29.3809375 27.5048286,29.1512463 C27.8838363,28.921555 28.3388329,28.852603 28.768877,28.9596873 C29.6639324,29.1987207 30.2035703,30.1095616 29.9832568,31.0094078 L28.3171204,37.8093896 C28.2132301,38.240139 27.9417718,38.6116356 27.5629499,38.8414883 C27.1841281,39.071341 26.7292553,39.1405507 26.2992137,39.0337681 C25.4037166,38.7947387 24.8639548,37.8832846 25.0848339,36.9831387 L26.7500614,30.1831568 Z" id="形状" fill="#000000" fill-rule="nonzero"></path>
            </g>
        </g>
    </g>
</svg>