<?xml version="1.0" encoding="UTF-8"?>
<svg width="50px" height="50px" viewBox="0 0 50 50" version="1.1" xmlns="http://www.w3.org/2000/svg" xmlns:xlink="http://www.w3.org/1999/xlink">
    <title>icon_weather_hail</title>
    <g id="首页-和-目的地" stroke="none" stroke-width="1" fill="none" fill-rule="evenodd">
        <path d="M36.5787,43.8268593 L33.2133181,40.4594914 C33.0795936,40.3624101 33.0001237,40.2049462 33.0001237,40.0370617 C33.0001237,39.8691773 33.0795936,39.7117133 33.2133181,39.614632 L36.5787,36.2472642 C36.6800985,36.1145828 36.8354567,36.0370617 36.9999619,36.0370617 C37.1644671,36.0370617 37.3198252,36.1145828 37.4212238,36.2472642 L40.787784,39.614632 C40.921032,39.7120401 41.0001237,39.8693856 41.0001237,40.0370617 C41.0001237,40.2047379 40.921032,40.3620833 40.787784,40.4594914 L37.4212238,43.8268593 C37.3198252,43.9595407 37.1644671,44.0370617 36.9999619,44.0370617 C36.8354567,44.0370617 36.6800985,43.9595407 36.5787,43.8268593 L36.5787,43.8268593 Z M24.5788448,43.8268593 L21.2133267,40.4594914 C21.0795968,40.3624101 21.0001237,40.2049462 21.0001237,40.0370617 C21.0001237,39.8691773 21.0795968,39.7117133 21.2133267,39.614632 L24.5788448,36.2472642 C24.6802474,36.1145828 24.8356118,36.0370617 25.0001237,36.0370617 C25.1646356,36.0370617 25.32,36.1145828 25.4214027,36.2472642 L28.7869207,39.614632 C28.9206506,39.7117133 29.0001237,39.8691773 29.0001237,40.0370617 C29.0001237,40.2049462 28.9206506,40.3624101 28.7869207,40.4594914 L25.4214027,43.8268593 C25.32,43.9595407 25.1646356,44.0370617 25.0001237,44.0370617 C24.8356118,44.0370617 24.6802474,43.9595407 24.5788448,43.8268593 L24.5788448,43.8268593 Z M12.5790236,43.8268593 L9.2124634,40.4594914 C9.07921541,40.3620833 9.00012371,40.2047379 9.00012371,40.0370617 C9.00012371,39.8693856 9.07921541,39.7120401 9.2124634,39.614632 L12.5790236,36.2472642 C12.6804221,36.1145828 12.8357803,36.0370617 13.0002855,36.0370617 C13.1647907,36.0370617 13.3201489,36.1145828 13.4215474,36.2472642 L16.7869293,39.614632 C16.9206538,39.7117133 17.0001237,39.8691773 17.0001237,40.0370617 C17.0001237,40.2049462 16.9206538,40.3624101 16.7869293,40.4594914 L13.4215474,43.8268593 C13.3201489,43.9595407 13.1647907,44.0370617 13.0002855,44.0370617 C12.8357803,44.0370617 12.6804221,43.9595407 12.5790236,43.8268593 L12.5790236,43.8268593 Z M5.03363637,24.623125 C4.63526764,20.014488 7.83031233,15.8676439 12.3881818,15.0776705 C14.219276,9.67341963 19.2907834,6.03706173 24.9968182,6.03706173 C30.702853,6.03706173 35.7743604,9.67341963 37.6054545,15.0776705 C42.1529598,15.8765096 45.3383921,20.0147644 44.9470594,24.6152868 C44.5557267,29.2158093 40.7170961,32.7565786 36.1,32.7758523 L13.88,32.7758523 C9.26069316,32.7686561 5.41620818,29.2255831 5.03272727,24.6222159 L5.03363637,24.623125 Z M15.5390909,16.1603977 L14.9027273,18.0385795 L12.9509091,18.3722159 C10.1193279,18.8840103 8.14233284,21.4665658 8.38737632,24.3335746 C8.6324198,27.2005833 11.0190008,29.4101836 13.8963636,29.4340341 L36.1027273,29.4340341 C38.9937717,29.430987 41.402232,27.2172567 41.6484323,24.3367129 C41.8946326,21.456169 39.8967766,18.8658304 37.0481818,18.3722159 L35.0963636,18.0385795 L34.46,16.1603977 C33.086006,12.107186 29.2820373,9.38009923 25.0022727,9.38009923 C20.7225082,9.38009923 16.9185395,12.107186 15.5445455,16.1603977 L15.5390909,16.1603977 Z" id="形状" fill="#FFFFFF" fill-rule="nonzero"></path>
    </g>
</svg>