<?xml version="1.0" encoding="UTF-8"?>
<svg width="50px" height="50px" viewBox="0 0 50 50" version="1.1" xmlns="http://www.w3.org/2000/svg" xmlns:xlink="http://www.w3.org/1999/xlink">
    <title>icon_weather_fine</title>
    <defs>
        <filter id="filter-1">
            <feColorMatrix in="SourceGraphic" type="matrix" values="0 0 0 0 1.000000 0 0 0 0 1.000000 0 0 0 0 1.000000 0 0 0 1.000000 0"></feColorMatrix>
        </filter>
    </defs>
    <g id="首页-和-目的地" stroke="none" stroke-width="1" fill="none" fill-rule="evenodd">
        <g filter="url(#filter-1)" id="晴天">
            <g transform="translate(5.000000, 5.000000)">
                <path d="M19.9881818,29.1945483 C25.0739466,29.1870169 29.1913763,25.0594177 29.1863637,19.9736498 C29.1813419,14.887882 25.0557764,10.7684146 19.9700067,10.7709192 C14.884237,10.7734261 10.7627273,14.8969569 10.7627273,19.9827273 C10.7644144,22.4276989 11.7373561,24.7718473 13.4674907,26.4994246 C15.1976254,28.2270018 17.5432104,29.196475 19.9881818,29.1945483 Z M19.9881818,32.2654586 C13.2069948,32.2554165 7.7169528,26.7518152 7.72363624,19.970624 C7.73033188,13.1894328 13.2312216,7.69667389 20.0124153,7.70001342 C26.793609,7.703356 32.2890909,13.2015328 32.2890909,19.9827273 C32.2869218,23.2427945 30.98966,26.3684494 28.6827396,28.6719601 C26.3758191,30.9754707 23.2482487,32.2681077 19.9881818,32.2654586 L19.9881818,32.2654586 Z M18.4509091,1.5590909 C18.4510444,0.710174318 19.1392652,0.0220632145 19.9881818,0.0220632145 C20.8370984,0.0220632145 21.5253192,0.710174318 21.5254545,1.5590909 L21.5254545,4.63 C21.5253192,5.47891658 20.8370984,6.16702768 19.9881818,6.16702768 C19.1392652,6.16702768 18.4510444,5.47891658 18.4509091,4.63 L18.4509091,1.5590909 Z M18.4509091,35.3354545 C18.4510444,34.486538 19.1392652,33.7984268 19.9881818,33.7984268 C20.8370984,33.7984268 21.5253192,34.486538 21.5254545,35.3354545 L21.5254545,38.4063636 C21.5253192,39.2552802 20.8370984,39.9433913 19.9881818,39.9433913 C19.1392652,39.9433913 18.4510444,39.2552802 18.4509091,38.4063636 L18.4509091,35.3354545 Z M31.9472727,5.8690909 C32.3322515,5.46719412 32.9044735,5.30491438 33.4431206,5.44487477 C33.9817678,5.58483515 34.4026103,6.00514967 34.5432469,6.54362067 C34.6838834,7.08209167 34.5223222,7.65451698 34.1209091,8.04 L31.9472727,10.2109091 C31.3470755,10.8072048 30.3777342,10.80603 29.7789841,10.2082812 C29.180234,9.6105324 29.1774369,8.64119435 29.7727273,8.04 L31.9472727,5.8690909 Z M8.0290909,29.7527273 C8.41406965,29.3508305 8.98629166,29.1885507 9.52493881,29.3285111 C10.063586,29.4684715 10.4844285,29.888786 10.625065,30.427257 C10.7657016,30.965728 10.6041404,31.5381533 10.2027273,31.9236364 L8.0290909,34.0945455 C7.42889332,34.6908389 6.45955377,34.689663 5.86080466,34.0919152 C5.26205554,33.4941673 5.25925735,32.5248311 5.85454547,31.9236364 L8.0290909,29.7527273 Z M8.0290909,5.8690909 C7.64183213,5.47798965 7.07494756,5.32392223 6.54299871,5.46520198 C6.01104987,5.60648173 5.59531411,6.02152229 5.45314427,6.55323394 C5.31097444,7.08494559 5.4640929,7.65208722 5.85454547,8.04 L8.0290909,10.2109091 C8.63208724,10.7899755 9.58742074,10.7806064 10.1789442,10.1898251 C10.7704676,9.59904387 10.7810362,8.64372287 10.2027273,8.04 L8.0290909,5.8690909 Z M31.9472727,29.7527273 C31.5600137,29.3616274 30.9931298,29.2075611 30.4611818,29.348841 C29.9292339,29.4901209 29.5134988,29.9051608 29.3713288,30.4368716 C29.2291587,30.9685824 29.3822761,31.5357233 29.7727273,31.9236364 L31.9472727,34.0945455 C32.5502691,34.6736119 33.5056026,34.6642428 34.097126,34.0734615 C34.6886495,33.4826802 34.699218,32.5273592 34.1209091,31.9236364 L31.9472727,29.7527273 Z M38.4390909,18.4463636 C39.287099,18.4463636 39.9745454,19.1338101 39.9745454,19.9818182 C39.9745454,20.8298263 39.287099,21.5172727 38.4390909,21.5172727 L35.3645455,21.5172727 C34.5165373,21.5172727 33.8290909,20.8298263 33.8290909,19.9818182 C33.8290909,19.1338101 34.5165373,18.4463636 35.3645455,18.4463636 L38.4390909,18.4463636 Z M4.61272727,18.4463636 C5.4607354,18.4463636 6.14818182,19.1338101 6.14818182,19.9818182 C6.14818182,20.8298263 5.4607354,21.5172727 4.61272727,21.5172727 L1.53727273,21.5172727 C0.689264602,21.5172727 0.00181818359,20.8298263 0.00181818359,19.9818182 C0.00181818359,19.1338101 0.689264602,18.4463636 1.53727273,18.4463636 L4.61272727,18.4463636 Z" id="形状" fill="#000000" fill-rule="nonzero"></path>
            </g>
        </g>
    </g>
</svg>