<?xml version="1.0" encoding="UTF-8"?>
<svg width="50px" height="50px" viewBox="0 0 50 50" version="1.1" xmlns="http://www.w3.org/2000/svg" xmlns:xlink="http://www.w3.org/1999/xlink">
    <title>icon_weather_fog</title>
    <g id="首页-和-目的地" stroke="none" stroke-width="1" fill="none" fill-rule="evenodd">
        <path d="M12.3742898,41.187017 C10.1006627,41.187017 7.99966848,39.9743319 6.86280353,38.0053428 C5.72593858,36.0363537 5.72593858,33.6104077 6.86280353,31.6414186 C7.99966848,29.6724295 10.1006627,28.4595662 12.3742898,28.4597443 L25.647017,28.4597443 C27.2651046,23.8831017 32.0603231,21.2496927 36.7905542,22.3400045 C41.5207852,23.4303162 44.6794241,27.8970783 44.1308682,32.7202465 C43.5823123,37.5434148 39.5012796,41.1867835 34.647017,41.187017 L12.3742898,41.187017 Z M9.19246952,34.8233807 C9.19246952,35.6672513 9.5276979,36.4765592 10.1244046,37.0732659 C10.7211112,37.6699726 11.5304191,38.0051989 12.3742898,38.0051989 L34.647017,38.0051989 C37.8832466,38.0051989 40.6040036,35.5761514 40.9696957,32.3606497 C41.3353877,29.145148 39.2295358,26.1672819 36.0759749,25.4404837 C32.922414,24.7136854 29.7256061,26.4694524 28.647017,29.5206534 L27.8979261,31.6433807 L12.3742898,31.6433807 C11.5297887,31.6433801 10.7199292,31.9791055 10.1231179,32.5765989 C9.52630663,33.1740923 9.19150645,33.9843347 9.19246952,34.8288352 L9.19246952,34.8233807 Z M7.6015625,25.2779262 C7.03312605,25.2780152 6.507831,24.9748091 6.22358706,24.4825436 C5.93934312,23.990278 5.93934312,23.3837561 6.22358706,22.8914905 C6.507831,22.399225 7.03312605,22.0960189 7.6015625,22.0961079 L20.3288352,22.0961079 C20.8972717,22.0960189 21.4225667,22.399225 21.7068107,22.8914905 C21.9910546,23.3837561 21.9910546,23.990278 21.7068107,24.4825436 C21.4225667,24.9748091 20.8972717,25.2780152 20.3288352,25.2779262 L7.6015625,25.2779262 Z M7.6015625,18.9142898 C7.03312605,18.9143788 6.507831,18.6111728 6.22358706,18.1189072 C5.93934312,17.6266416 5.93934312,17.0201197 6.22358706,16.5278542 C6.507831,16.0355886 7.03312605,15.7323825 7.6015625,15.7324716 L42.6015625,15.7324716 C43.4801,15.7326093 44.1922223,16.4448432 44.1922223,17.3233807 C44.1922223,18.2019182 43.4801,18.9141521 42.6015625,18.9142898 L7.6015625,18.9142898 Z M7.6015625,12.5506534 C6.72302503,12.5505157 6.01090269,11.8382818 6.01090269,10.9597443 C6.01090269,10.0812068 6.72302503,9.3689729 7.6015625,9.36883523 L42.6015625,9.36883523 C43.4801,9.3689729 44.1922223,10.0812068 44.1922223,10.9597443 C44.1922223,11.8382818 43.4801,12.5505157 42.6015625,12.5506534 L7.6015625,12.5506534 Z" id="形状" fill="#FFFFFF" fill-rule="nonzero"></path>
    </g>
</svg>