<?xml version="1.0" encoding="UTF-8"?>
<svg width="50px" height="50px" viewBox="0 0 50 50" version="1.1" xmlns="http://www.w3.org/2000/svg" xmlns:xlink="http://www.w3.org/1999/xlink">
    <title>icon_weather_snow</title>
    <defs>
        <filter id="filter-1">
            <feColorMatrix in="SourceGraphic" type="matrix" values="0 0 0 0 1.000000 0 0 0 0 1.000000 0 0 0 0 1.000000 0 0 0 1.000000 0"></feColorMatrix>
        </filter>
    </defs>
    <g id="首页-和-目的地" stroke="none" stroke-width="1" fill="none" fill-rule="evenodd">
        <g filter="url(#filter-1)" id="小雪">
            <g transform="translate(5.000000, 6.000000)">
                <path d="M31.0450267,36.0645286 L31.0450267,35.3149866 L30.513915,35.8425971 C30.2735228,36.0897489 29.9196102,36.188084 29.587073,36.1001214 C29.2555083,36.0141628 28.9962972,35.7543738 28.909794,35.4213323 C28.8232908,35.0882908 28.923075,34.7342788 29.1705149,34.4963527 L29.697461,33.9708358 L28.9476563,33.9708358 C28.4254229,33.9708358 28.0020692,33.5452661 28.0020692,33.0202993 C28.0020692,32.4953325 28.4254229,32.0697628 28.9476563,32.0697628 L29.697461,32.0697628 L29.1705149,31.5442458 C28.9079631,31.3109278 28.7956816,30.9505525 28.8789242,30.6083652 C28.9671356,30.2650994 29.235825,29.9983073 29.5783631,29.9138652 C29.9209012,29.8294232 30.2818936,29.9409869 30.5180806,30.2042825 L31.0491923,30.731893 L31.0491923,29.9823511 C31.0491923,29.452759 31.4762761,29.0234398 32.0031106,29.0234398 C32.529945,29.0234398 32.9570288,29.452759 32.9570288,29.9823511 L32.9570288,30.7297993 L33.4860577,30.2042825 C33.7215964,29.9395522 34.0831819,29.8269954 34.4263307,29.911588 C34.7694795,29.9961806 35.0382377,30.2641289 35.1252141,30.6083652 C35.2094319,30.9505831 35.0969935,31.311462 34.8336234,31.5442458 L34.3066773,32.0697628 L35.056482,32.0697628 C35.3943078,32.0697627 35.7064717,32.2509339 35.8753845,32.545031 C36.0442974,32.839128 36.0442974,33.2014705 35.8753845,33.4955676 C35.7064717,33.7896646 35.3943078,33.9708358 35.056482,33.9708358 L34.3066773,33.9708358 L34.8336234,34.4963527 C35.0810633,34.7342788 35.1808475,35.0882908 35.0943443,35.4213323 C35.0078411,35.7543738 34.74863,36.0141628 34.4170652,36.1001214 C34.0838845,36.1884416 33.7291861,36.0901091 33.4881405,35.8425971 L32.9591116,35.3170803 L32.9591116,36.0645286 C32.9591116,36.5941206 32.5320278,37.0234398 32.0051934,37.0234398 C31.4783589,37.0234398 31.0512752,36.5941206 31.0512751,36.0645286 L31.0450267,36.0645286 Z M19.0442347,36.0989707 L19.0442347,35.3409398 L18.5132613,35.8745258 C18.2729316,36.1244767 17.9191111,36.2239255 17.5866605,36.1349666 C17.255182,36.0480345 16.9960384,35.7853033 16.9095577,35.44849 C16.823077,35.1116767 16.9228352,34.7536553 17.1702107,34.5130346 L17.6970197,33.9815659 L16.9474102,33.9815659 C16.4253128,33.9815659 16.0020692,33.5511765 16.0020692,33.0202641 C16.0020692,32.4893518 16.4253128,32.0589624 16.9474102,32.0589624 L17.6970197,32.0589624 L17.1702107,31.5274937 C16.9072546,31.291872 16.7955922,30.9267223 16.8807781,30.5810138 C16.9682089,30.2338112 17.236459,29.9637184 17.5787454,29.878252 C17.9210318,29.7927855 18.2817953,29.9058182 18.5174258,30.1723547 L19.0483992,30.7059407 L19.0483992,29.9479098 C19.0721939,29.4304986 19.4916515,29.0234398 20.0010281,29.0234398 C20.5104046,29.0234398 20.9298622,29.4304986 20.9536569,29.9479098 L20.9536569,30.7059407 L21.4846304,30.1723547 C21.7201078,29.9046262 22.0815992,29.7907946 22.4246587,29.8763453 C22.7677183,29.9618959 23.0364065,30.2328788 23.1233603,30.5810138 C23.2080553,30.9267081 23.0964715,31.2916005 22.8339277,31.5274937 L22.3071187,32.0589624 L23.0567282,32.0589624 C23.5788256,32.0589624 24.0020692,32.4893518 24.0020692,33.0202641 C24.0020692,33.5511765 23.5788256,33.9815659 23.0567282,33.9815659 L22.3071187,33.9815659 L22.8339277,34.5130346 C23.0826727,34.7530621 23.1833537,35.1116661 23.0967242,35.4490591 C23.0100946,35.7864521 22.7498659,36.0492328 22.4174779,36.1349666 C22.0850302,36.2234677 21.7314355,36.1240824 21.4908772,35.8745258 L20.9599037,35.3409398 L20.9599037,36.0989707 C20.9361084,36.6163815 20.516651,37.0234398 20.0072748,37.0234398 C19.4978987,37.0234398 19.0784412,36.6163815 19.054646,36.0989707 L19.0442347,36.0989707 Z M7.04710961,36.0640263 L7.04710961,35.3140918 L6.51599788,35.8419787 C6.2765342,36.089524 5.9234601,36.1888793 5.5910373,36.1022633 C5.2586145,36.0156473 4.99791868,35.7563682 4.90808334,35.4230209 C4.82172861,35.0899975 4.92226574,34.7360904 5.17051494,34.4992188 L5.69746104,33.9734267 L4.9476563,33.9734267 C4.42542296,33.9734267 4.0020692,33.5476342 4.0020692,33.0223924 C4.0020692,32.4971506 4.42542296,32.0713581 4.9476563,32.0713581 L5.69746104,32.0713581 L5.17051494,31.545566 C4.90707573,31.3127313 4.79530488,30.951225 4.88100701,30.6091952 C4.96846052,30.265701 5.23678045,29.998493 5.57915597,29.9139394 C5.9215315,29.8293858 6.2823889,29.9412111 6.5180807,30.2049008 L7.04919234,30.7327878 L7.04919234,29.9828532 C7.04919237,29.4529838 7.4762761,29.0234398 8.00311056,29.0234398 C8.52994503,29.0234398 8.95702876,29.4529838 8.95702879,29.9828532 L8.95702879,30.7327878 L9.48814052,30.2049008 C9.72452461,29.9406238 10.0863767,29.8287053 10.429562,29.9137251 C10.7719728,29.9974379 11.039926,30.2653209 11.1252142,30.6091952 C11.2104187,30.9516219 11.0978208,31.313202 10.8336235,31.545566 L10.3066774,32.0713581 L11.0564821,32.0713581 C11.5787154,32.0713581 12.0020692,32.4971506 12.0020692,33.0223924 C12.0020692,33.5476342 11.5787154,33.9734267 11.0564821,33.9734267 L10.3066774,33.9734267 L10.8336235,34.4992188 C11.0822709,34.7358474 11.1828756,35.0899922 11.0960551,35.4230209 C11.0062197,35.7563682 10.7455239,36.0156473 10.4131011,36.1022633 C10.0806783,36.1888793 9.7276042,36.089524 9.48814052,35.8419787 L8.95702879,35.3140918 L8.95702879,36.0640263 C8.95702876,36.5938958 8.52994503,37.0234398 8.00311056,37.0234398 C7.4762761,37.0234398 7.04919237,36.5938958 7.04919234,36.0640263 L7.04710961,36.0640263 Z M0.0327272656,18.3897727 C-0.347709178,13.8100002 2.85284313,9.70585558 7.38727273,8.95886363 C9.26726987,3.60586843 14.3223787,0.0234397622 19.9959091,0.0234397622 C25.6694395,0.0234397622 30.7245483,3.60586843 32.6045455,8.95886363 C37.1418332,9.70590302 40.3398821,13.8190975 39.9455344,18.4005316 C39.5511867,22.9819656 35.6972974,26.4881634 31.0990909,26.4488636 L8.88181816,26.4488636 C4.28737753,26.4658641 0.443683294,22.9649197 0.0327272656,18.3888636 L0.0327272656,18.3897727 Z M10.5381818,10.0261364 L9.90181816,11.8825 L7.95,12.2134091 C5.12370051,12.6918292 3.13764375,15.2592002 3.38463573,18.115045 C3.63162771,20.9708898 6.02898273,23.159155 8.89545453,23.1452273 L31.1018182,23.1452273 C33.9800909,23.1774048 36.3966565,20.9855634 36.6446779,18.1178161 C36.8926993,15.2500688 34.8883312,12.6758765 32.0472727,12.2134091 L30.0963636,11.8825 L29.46,10.0261364 C28.0493547,6.01134574 24.2576768,3.32467784 20.0022727,3.32467784 C15.7468687,3.32467784 11.9551907,6.01134574 10.5445455,10.0261364 L10.5381818,10.0261364 Z" id="形状" fill="#000000" fill-rule="nonzero"></path>
            </g>
        </g>
    </g>
</svg>