<?xml version="1.0" encoding="UTF-8"?>
<svg width="50px" height="50px" viewBox="0 0 50 50" version="1.1" xmlns="http://www.w3.org/2000/svg" xmlns:xlink="http://www.w3.org/1999/xlink">
    <title>icon_weather_sand</title>
    <g id="首页-和-目的地" stroke="none" stroke-width="1" fill="none" fill-rule="evenodd">
        <path d="M43.9178879,34.8738148 C44.6576016,34.8737132 45.3411688,35.2682874 45.711055,35.9088814 C46.0809412,36.5494754 46.0809412,37.338749 45.711055,37.979343 C45.3411688,38.619937 44.6576016,39.0145112 43.9178879,39.0144096 L43.9178879,39.0144096 L21.8035126,39.0144096 C21.0637989,39.0145112 20.3802317,38.619937 20.0103455,37.979343 C19.6404593,37.338749 19.6404593,36.5494754 20.0103455,35.9088814 C20.3802317,35.2682874 21.0637989,34.8737132 21.8035126,34.8738148 L21.8035126,34.8738148 Z M9.63521265,33.9038331 C10.197633,33.5790829 10.8905909,33.5790829 11.4530113,33.9038331 C12.0154316,34.2285832 12.361852,34.8287363 12.3617568,35.4781817 C12.361852,36.1276271 12.0154316,36.7277801 11.4530113,37.0525303 C10.8905909,37.3772805 10.197633,37.3772805 9.63521265,37.0525303 C9.0727923,36.7277801 8.72637198,36.1276271 8.72646717,35.4781817 C8.72637198,34.8287363 9.0727923,34.2285832 9.63521265,33.9038331 Z M39.7782019,26.593534 C40.5179157,26.5934324 41.2014828,26.9880066 41.5713691,27.6286006 C41.9412553,28.2691946 41.9412553,29.0584682 41.5713691,29.6990622 C41.2014828,30.3396562 40.5179157,30.7342304 39.7782019,30.7341288 L39.7782019,30.7341288 L19.4805626,30.7341288 C18.7408488,30.7342304 18.0572816,30.3396562 17.6873954,29.6990622 C17.3175092,29.0584682 17.3175092,28.2691946 17.6873954,27.6286006 C18.0572816,26.9880066 18.7408488,26.5934324 19.4805626,26.593534 L19.4805626,26.593534 Z M7.81756785,26.6332539 C8.3799882,26.3085037 9.07294614,26.3085037 9.63536649,26.6332539 C10.1977868,26.9580041 10.5442072,27.5581571 10.544112,28.2076025 C10.5442072,28.8570479 10.1977868,29.457201 9.63536649,29.7819512 C9.07294614,30.1067014 8.3799882,30.1067014 7.81756785,29.7819512 C7.25514749,29.457201 6.90872718,28.8570479 6.90882236,28.2076025 C6.90872718,27.5581571 7.25514749,26.9580041 7.81756785,26.6332539 Z M43.9178879,18.3123443 C45.0611705,18.3125014 45.9879009,19.2393591 45.9879009,20.3826417 C45.9879009,21.5259244 45.0611705,22.4527821 43.9178879,22.4529391 L43.9178879,22.4529391 L25.6914548,22.4529391 C24.5481722,22.4527821 23.6214418,21.5259244 23.6214418,20.3826417 C23.6214418,19.2393591 24.5481722,18.3125014 25.6914548,18.3123443 L25.6914548,18.3123443 Z M16.9057918,18.4538524 C17.4682121,18.1291022 18.1611701,18.1291022 18.7235904,18.4538524 C19.2860108,18.7786026 19.6324311,19.3787556 19.6323359,20.028201 C19.6324311,20.6776464 19.2860108,21.2777995 18.7235904,21.6025496 C18.1611701,21.9272998 17.4682121,21.9272998 16.9057918,21.6025496 C16.3433714,21.2777995 15.9969511,20.6776464 15.9970463,20.028201 C15.9969511,19.3787556 16.3433714,18.7786026 16.9057918,18.4538524 Z M43.9178879,10.0311547 C44.6576016,10.0310531 45.3411688,10.4256273 45.711055,11.0662213 C46.0809412,11.7068153 46.0809412,12.4960889 45.711055,13.1366829 C45.3411688,13.7772769 44.6576016,14.1718511 43.9178879,14.1717495 L29.4276237,14.1717495 C28.6879099,14.1718511 28.0043427,13.7772769 27.6344565,13.1366829 C27.2645703,12.4960889 27.2645703,11.7068153 27.6344565,11.0662213 C28.0043427,10.4256273 28.6879099,10.0310531 29.4276237,10.0311547 L43.9178879,10.0311547 Z M20.5410814,10.2744508 C21.1035017,9.94970064 21.7964597,9.94970064 22.35888,10.2744508 C22.9213004,10.599201 23.2677207,11.1993541 23.2676255,11.8487995 C23.2677207,12.4982449 22.9213004,13.0983979 22.35888,13.4231481 C21.7964597,13.7478983 21.1035017,13.7478983 20.5410814,13.4231481 C19.978661,13.0983979 19.6322407,12.4982449 19.6323359,11.8487995 C19.6322407,11.1993541 19.978661,10.599201 20.5410814,10.2744508 Z M13.2705022,10.2744508 C13.8329226,9.94970064 14.5258805,9.94970064 15.0883009,10.2744508 C15.6507212,10.599201 15.9971415,11.1993541 15.9970463,11.8487995 C15.9971415,12.4982449 15.6507212,13.0983979 15.0883009,13.4231481 C14.5258805,13.7478983 13.8329226,13.7478983 13.2705022,13.4231481 C12.7080819,13.0983979 12.3616616,12.4982449 12.3617567,11.8487995 C12.3616616,11.1993541 12.7080819,10.599201 13.2705022,10.2744508 Z" id="形状结合" fill="#FFFFFF" fill-rule="nonzero"></path>
    </g>
</svg>