<?xml version="1.0" encoding="UTF-8"?>
<svg width="50px" height="50px" viewBox="0 0 50 50" version="1.1" xmlns="http://www.w3.org/2000/svg" xmlns:xlink="http://www.w3.org/1999/xlink">
    <title>icon_weather_overcast</title>
    <defs>
        <filter id="filter-1">
            <feColorMatrix in="SourceGraphic" type="matrix" values="0 0 0 0 1.000000 0 0 0 0 1.000000 0 0 0 0 1.000000 0 0 0 1.000000 0"></feColorMatrix>
        </filter>
    </defs>
    <g id="首页-和-目的地" stroke="none" stroke-width="1" fill="none" fill-rule="evenodd">
        <g filter="url(#filter-1)" id="阴天">
            <g transform="translate(6.000000, 10.000000)">
                <path d="M16.6309091,29.0121592 C15.0011329,29.0121592 13.4299007,28.4045589 12.2245455,27.3076136 L8.8609091,27.3076136 C4.22020601,27.1771194 0.418950883,23.5796578 0.0331970679,18.9531745 C-0.352556747,14.3266911 2.80044242,10.1493874 7.35545453,9.2521591 C9.07621938,3.83001207 14.0716616,0.115823166 19.7596533,0.0294446888 C25.4476449,-0.0569337882 30.5535658,3.50385468 32.4381818,8.87125 C37.3306387,10.23248 40.4912082,14.967988 39.8712645,20.0083006 C39.2513209,25.0486132 35.0374074,28.8770814 29.9609091,29.0121592 L16.6309091,29.0121592 Z M13.3,22.1939773 C13.2782831,24.0553784 14.7695108,25.5820146 16.6309091,25.6039773 L29.9536364,25.6039773 C33.3785862,25.568058 36.2281738,22.9612886 36.5681818,19.5530682 C36.9753201,16.1430017 34.7789311,12.9635972 31.4454545,12.1376136 C28.1143639,11.3754621 24.7490633,13.267411 23.6690909,16.5094318 L22.8854545,18.7821591 L16.6309091,18.7821591 C15.7367916,18.7924647 14.883424,19.1576915 14.2586922,19.7974278 C13.6339604,20.4371641 13.289086,21.2989579 13.3,22.1930682 L13.3,22.1939773 Z M10.5036364,10.3567045 L9.86727273,12.2730682 L7.91545453,12.6139773 C5.05623439,13.1630585 3.07167752,15.7804376 3.31473808,18.6817393 C3.55779865,21.583041 5.95018513,23.8337356 8.8609091,23.8994318 L10.1818182,23.8994318 C10.0418984,23.3417557 9.97136486,22.7689381 9.97181816,22.1939773 C9.92939655,18.4718814 12.911558,15.4197238 16.6336364,15.3757955 L20.5318182,15.3757955 C21.7525764,11.7734192 24.9003576,9.16732796 28.6672727,8.6403409 C26.7759326,5.14249744 22.9768201,3.11405783 19.0180372,3.48837663 C15.0592543,3.86269542 11.7076667,6.56726239 10.5054545,10.3576136 L10.5036364,10.3567045 Z" id="形状" fill="#000000" fill-rule="nonzero"></path>
            </g>
        </g>
    </g>
</svg>