<?xml version="1.0" encoding="UTF-8"?>
<svg width="50px" height="50px" viewBox="0 0 50 50" version="1.1" xmlns="http://www.w3.org/2000/svg" xmlns:xlink="http://www.w3.org/1999/xlink">
    <title>icon_weather_cloudy</title>
    <defs>
        <filter id="filter-1">
            <feColorMatrix in="SourceGraphic" type="matrix" values="0 0 0 0 1.000000 0 0 0 0 1.000000 0 0 0 0 1.000000 0 0 0 1.000000 0"></feColorMatrix>
        </filter>
    </defs>
    <g id="首页-和-目的地" stroke="none" stroke-width="1" fill="none" fill-rule="evenodd">
        <g filter="url(#filter-1)" id="晴转多云备份">
            <g transform="translate(5.000000, 5.000000)">
                <path d="M31.7763636,35.457642 L11.2727273,35.457642 C7.32554338,35.4551703 3.93918479,32.6432682 3.21133413,28.7637708 C2.48348347,24.8842734 4.62032138,21.0361385 8.29818184,19.6030966 C6.00723551,15.7689827 7.20573722,10.806597 10.9940841,8.44073728 C14.7824309,6.07487753 19.7674135,7.17561665 22.2072727,10.916733 C28.2336273,10.2439497 33.8518152,14.0615551 35.4454545,19.9121875 C38.8477642,21.6143868 40.6340743,25.4317848 39.7609871,29.1346097 C38.8879,32.8374347 35.584364,35.4547005 31.78,35.457642 L31.7763636,35.457642 Z M6.14999926,27.2521875 C6.1494978,30.0835471 8.44409503,32.3793653 11.2754545,32.3803697 L31.7745455,32.3803697 C34.1542846,32.3812585 36.2220774,30.7451641 36.7685079,28.4290094 C37.3149384,26.1128547 36.1964689,23.7250528 34.0672727,22.6621875 L32.8390909,22.0449148 L32.4754545,20.716733 C31.4151926,16.8212972 27.9454633,14.0675782 23.9110249,13.9196516 C19.8765865,13.7717249 16.2145095,16.2639493 14.8718182,20.0712784 L14.1445455,22.1230966 L11.2727273,22.1230966 C8.44186975,22.1251043 6.14849325,24.4213297 6.14999926,27.2521875 L6.14999926,27.2521875 Z M11.9736364,19.046733 C13.1440202,15.7352472 15.6731784,13.0813843 18.9245455,11.7530966 C16.9197162,9.86140482 13.7781262,9.8929131 11.8116415,11.8244348 C9.84515679,13.7559565 9.7573014,16.8964759 11.6127273,18.9349148 L11.4954545,19.0440057 L11.9736364,19.046733 Z M1.53727273,16.9949148 C0.702074435,16.9746122 0.035584018,16.2917234 0.035584018,15.4562784 C0.035584018,14.6208334 0.702074435,13.9379446 1.53727273,13.917642 L3.58727273,13.917642 C4.42247103,13.9379446 5.08896145,14.6208334 5.08896145,15.4562784 C5.08896145,16.2917234 4.42247103,16.9746122 3.58727273,16.9949148 L1.53727273,16.9949148 Z M22.6236364,8.2030966 C22.0233493,7.60217584 22.0233493,6.62856279 22.6236364,6.02764203 L24.0736364,4.5730966 C24.6787801,3.99984807 25.6304163,4.01292351 26.2195818,4.6025818 C26.8087473,5.19224008 26.821027,6.14388689 26.2472727,6.74855113 L24.7972727,8.2030966 C24.5091126,8.49149302 24.1181417,8.65353231 23.7104546,8.65353231 C23.3027674,8.65353231 22.9117965,8.49149302 22.6236364,8.2030966 L22.6236364,8.2030966 Z M5.95272727,8.2030966 L4.50272727,6.74855113 C4.09667816,6.36390361 3.93142142,5.78916032 4.07115208,5.24758398 C4.21088273,4.70600764 4.63357684,4.28295997 5.17503616,4.14277654 C5.71649548,4.00259312 6.29137674,4.16736925 6.67636363,4.5730966 L8.12636363,6.02764203 C8.53241252,6.4122896 8.69766909,6.98703278 8.55793841,7.52860899 C8.41820773,8.0701852 7.99551374,8.49323277 7.45405455,8.63341623 C6.91259537,8.77359969 6.33771421,8.60882373 5.95272727,8.2030966 L5.95272727,8.2030966 Z M13.8372727,3.65764203 L13.8372727,1.60582387 C13.8236968,1.04753276 14.1137806,0.525741264 14.595139,0.242602994 C15.0764975,-0.0405352756 15.6735025,-0.0405352756 16.154861,0.242602994 C16.6362194,0.525741264 16.9263032,1.04753276 16.9127273,1.60582387 L16.9127273,3.65673297 C16.9263032,4.21502407 16.6362194,4.73681557 16.154861,5.01995384 C15.6735025,5.30309211 15.0764975,5.30309211 14.595139,5.01995384 C14.1137806,4.73681557 13.8236968,4.21502407 13.8372727,3.65673297 L13.8372727,3.65764203 Z" id="形状" fill="#000000" fill-rule="nonzero"></path>
            </g>
        </g>
    </g>
</svg>