<?xml version="1.0" encoding="UTF-8"?>
<svg width="85px" height="33px" viewBox="0 0 85 33" version="1.1" xmlns="http://www.w3.org/2000/svg" xmlns:xlink="http://www.w3.org/1999/xlink">
    <title>icon_age_all</title>
    <g id="首页-和-目的地" stroke="none" stroke-width="1" fill="none" fill-rule="evenodd">
        <g id="目的地景点-详情" transform="translate(-281.000000, -1042.000000)" fill="#4D4D4D" fill-rule="nonzero">
            <g id="icon_age_all" transform="translate(281.000000, 1042.000000)">
                <g id="编组-9">
                    <path d="M11.25,0 C17.4632034,0 22.5,5.03679656 22.5,11.25 C22.5,17.4632034 17.4632034,22.5 11.25,22.5 C5.03679656,22.5 0,17.4632034 0,11.25 C0,5.03679656 5.03679656,0 11.25,0 Z M11.25,1 C5.58908131,1 1,5.58908131 1,11.25 C1,16.9109187 5.58908131,21.5 11.25,21.5 C16.9109187,21.5 21.5,16.9109187 21.5,11.25 C21.5,5.58908131 16.9109187,1 11.25,1 Z" id="椭圆形"></path>
                    <path d="M9,6.1875 C9,7.43014069 10.0073593,8.4375 11.25,8.4375 C12.4926407,8.4375 13.5,7.43014069 13.5,6.1875 C13.5,4.94485931 12.4926407,3.9375 11.25,3.9375 C10.0073593,3.9375 9,4.94485931 9,6.1875 Z" id="路径"></path>
                    <path d="M17.0815597,8.2097208 L14.3915609,10.8682121 C14.2127244,11.0449539 14.1113838,11.2850282 14.1113838,11.5354124 L14.1113838,18.8893443 C14.1113838,19.0189549 14.0040819,19.125 13.8729351,19.125 L11.9653459,19.125 C11.8341992,19.125 11.7268973,19.0189549 11.7268973,18.8893443 L11.7268973,14.8831967 L10.7731027,14.8831967 L10.7731027,18.8893443 C10.7731027,19.0189549 10.6658008,19.125 10.5346541,19.125 L8.62706489,19.125 C8.49591813,19.125 8.38861624,19.0189549 8.38861624,18.8893443 L8.38861624,11.5339395 C8.38861624,11.2835553 8.28876587,11.043481 8.10843908,10.8667392 L5.41844029,8.2097208 C4.95495573,7.75166496 4.94005269,7.00493084 5.39757603,6.54245645 C5.63155377,6.30680072 5.94153701,6.1875 6.25002994,6.1875 C6.55554227,6.1875 6.8610546,6.30238217 7.09354203,6.53214652 L9.20381255,8.6176998 C9.29323079,8.7060707 9.41394542,8.75614754 9.54062127,8.75614754 L12.9563981,8.75614754 C13.083074,8.75614754 13.2037886,8.7060707 13.2932068,8.6176998 L15.406458,6.53214652 C15.6389454,6.30238217 15.9444577,6.1875 16.2499701,6.1875 C16.5599533,6.1875 16.8684462,6.30532787 17.102424,6.54245645 C17.5599473,7.00493084 17.5450443,7.75166496 17.0815597,8.2097208 Z" id="路径"></path>
                </g>
                <g id="女性,女人,母亲,妇女,女生,女士备份" transform="translate(31.000000, 0.000000)">
                    <path d="M11.25,0 C17.4632034,0 22.5,5.03679656 22.5,11.25 C22.5,17.4632034 17.4632034,22.5 11.25,22.5 C5.03679656,22.5 0,17.4632034 0,11.25 C0,5.03679656 5.03679656,0 11.25,0 Z M11.25,1 C5.58908131,1 1,5.58908131 1,11.25 C1,16.9109187 5.58908131,21.5 11.25,21.5 C16.9109187,21.5 21.5,16.9109187 21.5,11.25 C21.5,5.58908131 16.9109187,1 11.25,1 Z" id="蒙版"></path>
                    <path d="M9.5625,3.09375 C9.5625,4.1810606 10.4439394,5.0625 11.53125,5.0625 C12.6185606,5.0625 13.5,4.1810606 13.5,3.09375 C13.5,2.0064394 12.6185606,1.125 11.53125,1.125 C10.4439394,1.125 9.5625,2.0064394 9.5625,3.09375 Z" id="路径" transform="translate(11.531250, 3.093750) scale(-1, 1) translate(-11.531250, -3.093750) "></path>
                    <path d="M15.6686752,14.5336614 L14.2274404,9.20140475 C14.2004594,9.10100661 14.0498155,9.12108624 14.0498155,9.22371544 C14.0506735,14.7976296 14.051317,18.9780652 14.051746,21.7650223 C14.051852,22.4535245 11.8935844,22.6155286 11.8935844,22.0080285 C11.8935844,21.0049757 11.8935844,19.5003965 11.8935844,17.4942909 C11.8935844,17.4452073 11.8531129,17.4050481 11.8036477,17.4050481 L11.2640278,17.4050481 C11.2145627,17.4050481 11.1740912,17.4452073 11.1740912,17.4942909 C11.1740912,19.5143122 11.1740912,21.0293282 11.1740912,22.0393388 C11.1740912,22.6364022 9.01347184,22.2056475 9.01336322,21.5 C9.01293599,18.7244731 9.01293599,14.6323783 9.01336322,9.22371544 C9.01336322,9.11885517 8.86271934,9.10100661 8.83573834,9.20140475 L7.39450355,14.5336614 C7.26634383,15.0088792 6.77169227,15.2922251 6.29277961,15.1650541 C5.89031311,15.0579627 5.625,14.6965294 5.625,14.3038612 C5.625,14.2280048 5.63399366,14.1499174 5.65647783,14.0718299 L7.21912709,8.27104868 C7.64407775,6.71153095 9.06957363,5.625 10.697427,5.625 L12.3680002,5.625 C13.9958535,5.625 15.4235978,6.71153095 15.8440517,8.27327975 L17.4067009,14.074061 C17.5348606,14.5492788 17.2515602,15.0378831 16.7703991,15.1650541 C16.2914865,15.2922251 15.7968349,15.0088792 15.6686752,14.5336614 Z" id="路径" transform="translate(11.531250, 14.004639) scale(-1, 1) translate(-11.531250, -14.004639) "></path>
                </g>
                <g id="编组-7" transform="translate(62.000000, 0.000000)">
                    <path d="M11.25,0 C17.4632034,0 22.5,5.03679656 22.5,11.25 C22.5,17.4632034 17.4632034,22.5 11.25,22.5 C5.03679656,22.5 0,17.4632034 0,11.25 C0,5.03679656 5.03679656,0 11.25,0 Z M11.25,1 C5.58908131,1 1,5.58908131 1,11.25 C1,16.9109187 5.58908131,21.5 11.25,21.5 C16.9109187,21.5 21.5,16.9109187 21.5,11.25 C21.5,5.58908131 16.9109187,1 11.25,1 Z" id="椭圆形备份-2"></path>
                    <path d="M15.5977043,13.1854518 C15.3532538,13.1854518 15.1279433,13.2332743 14.9174039,13.3211198 C14.8993041,13.306342 14.8928548,13.2893066 14.8755872,13.2732973 L10.5470457,9.02633645 C10.2593889,8.7455805 9.84140256,8.63822075 9.4514915,8.74494347 L9.44296174,8.73652837 C9.43443198,8.74494347 9.41924485,8.74494347 9.41071509,8.75356383 C9.26415704,8.795919 9.12870436,8.8692485 9.01376914,8.96845693 C6.35373201,10.5457764 4.52857123,14.3450946 4.52857123,17.4911132 C4.52857123,17.9293145 4.46428596,18.1380502 4.52857123,18.5625 L12.8671406,18.5625 L12.8671406,14.4167257 L13.2813541,14.8263977 C13.3531289,14.8963868 13.4284405,14.9524191 13.5087451,15.002294 C13.5461928,15.3920571 13.8674111,15.6960272 14.263941,15.7165518 C14.6602628,15.7370765 15.0118554,15.4677931 15.0902876,15.0837768 L15.1075551,15.0837768 L15.1075551,14.9228636 C15.1075551,14.6630215 15.3210072,14.4524385 15.5843896,14.4524385 C15.8477719,14.4524385 16.061224,14.6630215 16.061224,14.9228636 L16.061224,18.5625 L17.3423525,18.5625 L17.3423525,14.9226583 C17.3490098,14.4627009 17.1678044,14.0195736 16.8397207,13.692616 C16.5114784,13.3659761 16.0639217,13.1832211 15.5977043,13.1854518 Z M17.9831247,5.41646075 C17.916759,5.16872821 17.1128811,4.8395128 16.8628135,4.9039602 L16.7074054,4.94542 L15.9455521,4.0973414 C15.8660797,4.00846966 15.460604,3.60085008 15.1514522,3.42536431 C14.7137298,3.17763177 11.3165965,3.89004242 10.8776259,4.55257817 C10.6930918,4.84053903 10.611539,5.17714331 10.5697223,5.33497788 L10.3023872,6.63931948 L10.1469791,6.67831632 C9.89691146,6.74296897 9.36806628,7.42377166 9.43339177,7.67129896 C9.46471216,7.79256586 9.54500696,7.8958872 9.65558164,7.95720735 C9.76597989,8.01842178 9.89655287,8.03371151 10.0184085,7.99969338 L11.0398994,7.73492538 C11.2912153,9.04049845 12.4493904,9.98483767 13.7964685,9.9823877 C14.5387897,9.98462048 15.2515802,9.6957044 15.7778859,9.1792448 C16.3041916,8.6627852 16.6008549,7.96113223 16.6025517,7.22878747 C16.6025517,6.90798717 16.545548,6.59785969 16.4404863,6.31010407 L17.6421424,5.98827754 C17.7655118,5.95892729 17.8714057,5.88154935 17.935691,5.77379493 C17.9995601,5.66604051 18.0168277,5.5371457 17.9831247,5.41646075 L17.9831247,5.41646075 Z M15.8573419,3.99369191 L15.9855298,4.12284836 C16.0334505,4.16960754 16.0073936,4.14231029 15.8573419,3.99369191 Z" id="形状"></path>
                </g>
                <path d="M7.296,30.104 L7.296,25.488 L6.704,25.488 L6.704,30.104 L7.296,30.104 Z M10.184,29.432 L10.728,29.152 C10.136,28.112 9.456,27.152 8.672,26.28 L8.152,26.512 C8.896,27.36 9.576,28.336 10.184,29.432 Z M3.952,29.528 C4.632,28.864 5.184,27.896 5.608,26.624 L5.048,26.408 C4.696,27.536 4.168,28.44 3.464,29.112 L3.952,29.528 Z M3.912,32.808 C6.672,32.264 8.52,31.064 9.448,29.208 L8.944,28.896 C8.064,30.624 6.28,31.744 3.576,32.256 L3.912,32.808 Z M17.544,32.56 C17.872,32.56 18.112,32.472 18.256,32.312 C18.432,32.12 18.544,31.584 18.608,30.704 L18.064,30.528 C18.032,31.248 17.96,31.672 17.856,31.816 C17.776,31.936 17.632,32 17.44,32 L16.616,32 C16.344,32 16.216,31.848 16.216,31.56 L16.216,25.656 L15.64,25.656 L15.64,31.68 C15.64,32.264 15.904,32.56 16.44,32.56 L17.544,32.56 Z M11.912,32.792 C13.184,31.864 13.832,30.4 13.864,28.4 L13.864,25.672 L13.28,25.672 L13.28,28.4 C13.264,30.232 12.656,31.568 11.464,32.4 L11.912,32.792 Z" id="少儿"></path>
                <path d="M34.296,32.856 L34.296,30.128 L36.592,30.128 L36.592,30.632 L37.168,30.632 L37.168,26.872 L34.296,26.872 L34.296,25.432 L33.704,25.432 L33.704,26.872 L30.84,26.872 L30.84,30.632 L31.416,30.632 L31.416,30.128 L33.704,30.128 L33.704,32.856 L34.296,32.856 Z M33.704,29.568 L31.416,29.568 L31.416,27.432 L33.704,27.432 L33.704,29.568 Z M36.592,29.568 L34.296,29.568 L34.296,27.432 L36.592,27.432 L36.592,29.568 Z M45.512,28.504 L45.512,28.016 L42.296,28.016 L42.296,27.456 L44.872,27.456 L44.872,26.992 L42.296,26.992 L42.296,26.448 L45.184,26.448 L45.184,25.968 L42.296,25.968 L42.296,25.448 L41.704,25.448 L41.704,25.968 L38.832,25.968 L38.832,26.448 L41.704,26.448 L41.704,26.992 L39.144,26.992 L39.144,27.456 L41.704,27.456 L41.704,28.016 L38.488,28.016 L38.488,28.504 L45.512,28.504 Z M40.008,32.8 L40.008,31.504 L44.008,31.504 L44.008,31.896 C44.008,32.136 43.88,32.264 43.632,32.264 L42.784,32.24 L42.92,32.752 L43.808,32.752 C44.32,32.752 44.576,32.504 44.576,32.016 L44.576,28.984 L39.44,28.984 L39.44,32.8 L40.008,32.8 Z M44.008,30.04 L40.008,30.04 L40.008,29.456 L44.008,29.456 L44.008,30.04 Z M44.008,31.064 L40.008,31.064 L40.008,30.488 L44.008,30.488 L44.008,31.064 Z M50.752,32.824 L50.752,31.04 L53.52,31.04 L53.52,30.48 L50.752,30.48 L50.752,28.752 L52.984,28.752 L52.984,28.2 L50.752,28.2 L50.752,26.92 L53.264,26.92 L53.264,26.36 L48.296,26.36 C48.408,26.088 48.512,25.808 48.6,25.504 L48,25.392 C47.72,26.432 47.176,27.256 46.368,27.864 L46.752,28.344 C47.264,27.96 47.68,27.488 48.016,26.92 L50.168,26.92 L50.168,28.2 L47.792,28.2 L47.792,30.48 L46.472,30.48 L46.472,31.04 L50.168,31.04 L50.168,32.824 L50.752,32.824 Z M50.168,30.48 L48.368,30.48 L48.368,28.752 L50.168,28.752 L50.168,30.48 Z" id="中青年"></path>
                <path d="M72.08,32.68 C72.48,32.68 72.768,32.616 72.952,32.488 C73.168,32.336 73.312,31.92 73.384,31.232 L72.84,31.056 C72.792,31.568 72.696,31.88 72.552,31.992 C72.432,32.08 72.24,32.128 71.976,32.128 L69.256,32.128 C69.024,32.128 68.912,32.008 68.912,31.776 L68.912,30.984 C70.4,30.848 71.776,30.6 73.056,30.232 L72.864,29.688 C71.72,30.064 70.4,30.32 68.912,30.464 L68.912,29.952 C69.6,29.616 70.2,29.264 70.712,28.912 L71.088,28.632 L73.584,28.632 L73.584,28.08 L71.736,28.08 C72.28,27.576 72.784,26.992 73.264,26.336 L72.808,26 C72.248,26.776 71.608,27.472 70.872,28.08 L69.856,28.08 L69.856,27.008 L71.808,27.008 L71.808,26.448 L69.856,26.448 L69.856,25.44 L69.272,25.44 L69.272,26.448 L67.072,26.448 L67.072,27.008 L69.272,27.008 L69.272,28.08 L66.448,28.08 L66.448,28.632 L70.136,28.632 C70.112,28.648 70.088,28.664 70.056,28.688 C68.928,29.456 67.688,30.024 66.344,30.392 L66.592,30.928 C67.216,30.696 67.792,30.464 68.336,30.224 L68.336,31.896 C68.336,32.416 68.584,32.68 69.08,32.68 L72.08,32.68 Z M78.752,32.824 L78.752,31.04 L81.52,31.04 L81.52,30.48 L78.752,30.48 L78.752,28.752 L80.984,28.752 L80.984,28.2 L78.752,28.2 L78.752,26.92 L81.264,26.92 L81.264,26.36 L76.296,26.36 C76.408,26.088 76.512,25.808 76.6,25.504 L76,25.392 C75.72,26.432 75.176,27.256 74.368,27.864 L74.752,28.344 C75.264,27.96 75.68,27.488 76.016,26.92 L78.168,26.92 L78.168,28.2 L75.792,28.2 L75.792,30.48 L74.472,30.48 L74.472,31.04 L78.168,31.04 L78.168,32.824 L78.752,32.824 Z M78.168,30.48 L76.368,30.48 L76.368,28.752 L78.168,28.752 L78.168,30.48 Z" id="老年"></path>
            </g>
        </g>
    </g>
</svg>