<?xml version="1.0" encoding="UTF-8"?>
<svg width="54px" height="33px" viewBox="0 0 54 33" version="1.1" xmlns="http://www.w3.org/2000/svg" xmlns:xlink="http://www.w3.org/1999/xlink">
    <title>icon_age_noold</title>
    <g id="首页-和-目的地" stroke="none" stroke-width="1" fill="none" fill-rule="evenodd">
        <g id="目的地景点-详情" transform="translate(-281.000000, -990.000000)" fill="#4D4D4D" fill-rule="nonzero">
            <g id="icon_age_noold" transform="translate(281.000000, 990.000000)">
                <g id="编组-9">
                    <path d="M11.25,0 C17.4632034,0 22.5,5.03679656 22.5,11.25 C22.5,17.4632034 17.4632034,22.5 11.25,22.5 C5.03679656,22.5 0,17.4632034 0,11.25 C0,5.03679656 5.03679656,0 11.25,0 Z M11.25,1 C5.58908131,1 1,5.58908131 1,11.25 C1,16.9109187 5.58908131,21.5 11.25,21.5 C16.9109187,21.5 21.5,16.9109187 21.5,11.25 C21.5,5.58908131 16.9109187,1 11.25,1 Z" id="椭圆形"></path>
                    <path d="M9,6.1875 C9,7.43014069 10.0073593,8.4375 11.25,8.4375 C12.4926407,8.4375 13.5,7.43014069 13.5,6.1875 C13.5,4.94485931 12.4926407,3.9375 11.25,3.9375 C10.0073593,3.9375 9,4.94485931 9,6.1875 Z" id="路径"></path>
                    <path d="M17.0815597,8.2097208 L14.3915609,10.8682121 C14.2127244,11.0449539 14.1113838,11.2850282 14.1113838,11.5354124 L14.1113838,18.8893443 C14.1113838,19.0189549 14.0040819,19.125 13.8729351,19.125 L11.9653459,19.125 C11.8341992,19.125 11.7268973,19.0189549 11.7268973,18.8893443 L11.7268973,14.8831967 L10.7731027,14.8831967 L10.7731027,18.8893443 C10.7731027,19.0189549 10.6658008,19.125 10.5346541,19.125 L8.62706489,19.125 C8.49591813,19.125 8.38861624,19.0189549 8.38861624,18.8893443 L8.38861624,11.5339395 C8.38861624,11.2835553 8.28876587,11.043481 8.10843908,10.8667392 L5.41844029,8.2097208 C4.95495573,7.75166496 4.94005269,7.00493084 5.39757603,6.54245645 C5.63155377,6.30680072 5.94153701,6.1875 6.25002994,6.1875 C6.55554227,6.1875 6.8610546,6.30238217 7.09354203,6.53214652 L9.20381255,8.6176998 C9.29323079,8.7060707 9.41394542,8.75614754 9.54062127,8.75614754 L12.9563981,8.75614754 C13.083074,8.75614754 13.2037886,8.7060707 13.2932068,8.6176998 L15.406458,6.53214652 C15.6389454,6.30238217 15.9444577,6.1875 16.2499701,6.1875 C16.5599533,6.1875 16.8684462,6.30532787 17.102424,6.54245645 C17.5599473,7.00493084 17.5450443,7.75166496 17.0815597,8.2097208 Z" id="路径"></path>
                </g>
                <g id="女性,女人,母亲,妇女,女生,女士备份" transform="translate(31.000000, 0.000000)">
                    <path d="M11.25,0 C17.4632034,0 22.5,5.03679656 22.5,11.25 C22.5,17.4632034 17.4632034,22.5 11.25,22.5 C5.03679656,22.5 0,17.4632034 0,11.25 C0,5.03679656 5.03679656,0 11.25,0 Z M11.25,1 C5.58908131,1 1,5.58908131 1,11.25 C1,16.9109187 5.58908131,21.5 11.25,21.5 C16.9109187,21.5 21.5,16.9109187 21.5,11.25 C21.5,5.58908131 16.9109187,1 11.25,1 Z" id="蒙版"></path>
                    <path d="M9.5625,3.09375 C9.5625,4.1810606 10.4439394,5.0625 11.53125,5.0625 C12.6185606,5.0625 13.5,4.1810606 13.5,3.09375 C13.5,2.0064394 12.6185606,1.125 11.53125,1.125 C10.4439394,1.125 9.5625,2.0064394 9.5625,3.09375 Z" id="路径" transform="translate(11.531250, 3.093750) scale(-1, 1) translate(-11.531250, -3.093750) "></path>
                    <path d="M15.6686752,14.5336614 L14.2274404,9.20140475 C14.2004594,9.10100661 14.0498155,9.12108624 14.0498155,9.22371544 C14.0506735,14.7976296 14.051317,18.9780652 14.051746,21.7650223 C14.051852,22.4535245 11.8935844,22.6155286 11.8935844,22.0080285 C11.8935844,21.0049757 11.8935844,19.5003965 11.8935844,17.4942909 C11.8935844,17.4452073 11.8531129,17.4050481 11.8036477,17.4050481 L11.2640278,17.4050481 C11.2145627,17.4050481 11.1740912,17.4452073 11.1740912,17.4942909 C11.1740912,19.5143122 11.1740912,21.0293282 11.1740912,22.0393388 C11.1740912,22.6364022 9.01347184,22.2056475 9.01336322,21.5 C9.01293599,18.7244731 9.01293599,14.6323783 9.01336322,9.22371544 C9.01336322,9.11885517 8.86271934,9.10100661 8.83573834,9.20140475 L7.39450355,14.5336614 C7.26634383,15.0088792 6.77169227,15.2922251 6.29277961,15.1650541 C5.89031311,15.0579627 5.625,14.6965294 5.625,14.3038612 C5.625,14.2280048 5.63399366,14.1499174 5.65647783,14.0718299 L7.21912709,8.27104868 C7.64407775,6.71153095 9.06957363,5.625 10.697427,5.625 L12.3680002,5.625 C13.9958535,5.625 15.4235978,6.71153095 15.8440517,8.27327975 L17.4067009,14.074061 C17.5348606,14.5492788 17.2515602,15.0378831 16.7703991,15.1650541 C16.2914865,15.2922251 15.7968349,15.0088792 15.6686752,14.5336614 Z" id="路径" transform="translate(11.531250, 14.004639) scale(-1, 1) translate(-11.531250, -14.004639) "></path>
                </g>
                <path d="M7.296,30.104 L7.296,25.488 L6.704,25.488 L6.704,30.104 L7.296,30.104 Z M10.184,29.432 L10.728,29.152 C10.136,28.112 9.456,27.152 8.672,26.28 L8.152,26.512 C8.896,27.36 9.576,28.336 10.184,29.432 Z M3.952,29.528 C4.632,28.864 5.184,27.896 5.608,26.624 L5.048,26.408 C4.696,27.536 4.168,28.44 3.464,29.112 L3.952,29.528 Z M3.912,32.808 C6.672,32.264 8.52,31.064 9.448,29.208 L8.944,28.896 C8.064,30.624 6.28,31.744 3.576,32.256 L3.912,32.808 Z M17.544,32.56 C17.872,32.56 18.112,32.472 18.256,32.312 C18.432,32.12 18.544,31.584 18.608,30.704 L18.064,30.528 C18.032,31.248 17.96,31.672 17.856,31.816 C17.776,31.936 17.632,32 17.44,32 L16.616,32 C16.344,32 16.216,31.848 16.216,31.56 L16.216,25.656 L15.64,25.656 L15.64,31.68 C15.64,32.264 15.904,32.56 16.44,32.56 L17.544,32.56 Z M11.912,32.792 C13.184,31.864 13.832,30.4 13.864,28.4 L13.864,25.672 L13.28,25.672 L13.28,28.4 C13.264,30.232 12.656,31.568 11.464,32.4 L11.912,32.792 Z" id="少儿"></path>
                <path d="M34.296,32.856 L34.296,30.128 L36.592,30.128 L36.592,30.632 L37.168,30.632 L37.168,26.872 L34.296,26.872 L34.296,25.432 L33.704,25.432 L33.704,26.872 L30.84,26.872 L30.84,30.632 L31.416,30.632 L31.416,30.128 L33.704,30.128 L33.704,32.856 L34.296,32.856 Z M33.704,29.568 L31.416,29.568 L31.416,27.432 L33.704,27.432 L33.704,29.568 Z M36.592,29.568 L34.296,29.568 L34.296,27.432 L36.592,27.432 L36.592,29.568 Z M45.512,28.504 L45.512,28.016 L42.296,28.016 L42.296,27.456 L44.872,27.456 L44.872,26.992 L42.296,26.992 L42.296,26.448 L45.184,26.448 L45.184,25.968 L42.296,25.968 L42.296,25.448 L41.704,25.448 L41.704,25.968 L38.832,25.968 L38.832,26.448 L41.704,26.448 L41.704,26.992 L39.144,26.992 L39.144,27.456 L41.704,27.456 L41.704,28.016 L38.488,28.016 L38.488,28.504 L45.512,28.504 Z M40.008,32.8 L40.008,31.504 L44.008,31.504 L44.008,31.896 C44.008,32.136 43.88,32.264 43.632,32.264 L42.784,32.24 L42.92,32.752 L43.808,32.752 C44.32,32.752 44.576,32.504 44.576,32.016 L44.576,28.984 L39.44,28.984 L39.44,32.8 L40.008,32.8 Z M44.008,30.04 L40.008,30.04 L40.008,29.456 L44.008,29.456 L44.008,30.04 Z M44.008,31.064 L40.008,31.064 L40.008,30.488 L44.008,30.488 L44.008,31.064 Z M50.752,32.824 L50.752,31.04 L53.52,31.04 L53.52,30.48 L50.752,30.48 L50.752,28.752 L52.984,28.752 L52.984,28.2 L50.752,28.2 L50.752,26.92 L53.264,26.92 L53.264,26.36 L48.296,26.36 C48.408,26.088 48.512,25.808 48.6,25.504 L48,25.392 C47.72,26.432 47.176,27.256 46.368,27.864 L46.752,28.344 C47.264,27.96 47.68,27.488 48.016,26.92 L50.168,26.92 L50.168,28.2 L47.792,28.2 L47.792,30.48 L46.472,30.48 L46.472,31.04 L50.168,31.04 L50.168,32.824 L50.752,32.824 Z M50.168,30.48 L48.368,30.48 L48.368,28.752 L50.168,28.752 L50.168,30.48 Z" id="中青年"></path>
            </g>
        </g>
    </g>
</svg>