<?xml version="1.0" encoding="UTF-8"?>
<svg width="50px" height="50px" viewBox="0 0 50 50" version="1.1" xmlns="http://www.w3.org/2000/svg" xmlns:xlink="http://www.w3.org/1999/xlink">
    <title>icon_downcoat</title>
    <g id="首页-和-目的地" stroke="none" stroke-width="1" fill="none" fill-rule="evenodd">
        <g id="羽绒服备份" transform="translate(2.000000, 6.000000)" fill="#4D4D4D" fill-rule="nonzero">
            <path d="M46.3395022,26.0319018 L43.3773873,20.872638 L43.002436,20.2224294 C43.002436,20.2224294 43.002436,20.2177178 42.9977491,20.2177178 L42.9930622,20.2130061 L39.5200762,14.1679509 L39.1498119,13.508319 L39.1498119,13.5036074 L39.1498119,13.4988957 L35.4284207,6.8790184 C35.2128237,6.49266258 34.8425593,6.20525153 34.4160523,6.09688344 L29.6073024,4.81531288 L29.6073024,1.64907975 C29.6073024,0.739730061 28.8714606,0 27.9668907,0 L18.5931093,0 C17.6885394,0 16.9526976,0.739730061 16.9526976,1.64907975 L16.9526976,4.81531288 L12.1439477,6.09688344 C11.7174407,6.20996319 11.3471763,6.49737423 11.1315793,6.8790184 L7.03992376,14.1585276 L0.220497801,26.0319018 C3.91331422e-05,26.413546 -0.0560287498,26.8564417 0.0564566267,27.2852025 C0.168942003,27.7092515 0.440781663,28.0673374 0.820419809,28.2887853 L5.56824008,31.0451043 C6.35095082,31.4974233 7.35394543,31.2288589 7.80857383,30.4420123 L11.0940842,24.7361963 L11.0940842,37.6932515 C11.0940842,38.084319 11.4081059,38.4 11.7971178,38.4 L34.7628822,38.4 C35.1518941,38.4 35.4659158,38.084319 35.4659158,37.6932515 L35.4659158,24.7361963 L38.7514262,30.4373006 C39.2060546,31.2241472 40.2090492,31.4927117 40.9917599,31.0403926 L45.7395802,28.2840736 C46.1192183,28.0626258 46.391058,27.7092515 46.5035434,27.2804908 C46.6160287,26.8564417 46.5599609,26.413546 46.3395022,26.0319018 Z M18.5931093,1.41349693 L27.9668907,1.41349693 C28.0981236,1.41349693 28.2012352,1.51715337 28.2012352,1.64907975 L28.2012352,4.2404908 L18.3587648,4.2404908 L18.3587648,1.64907975 C18.3587648,1.51715337 18.4618764,1.41349693 18.5931093,1.41349693 Z M6.56186091,29.7305521 C6.49624444,29.8436319 6.35563772,29.8813252 6.24315234,29.815362 L1.49064518,27.0590429 C1.41565493,27.016638 1.39222047,26.9506748 1.38284669,26.9176933 C1.37347291,26.8847117 1.36409913,26.8140368 1.40628115,26.7386503 L4.37308295,21.5793865 L4.57461925,21.2307239 L9.73957279,24.2273374 L6.56186091,29.7305521 Z M11.0940842,21.9186258 L10.4707277,23.0023067 L5.3057742,20.0056933 L8.25851534,14.8652761 C8.25851534,14.8652761 8.25851534,14.8605644 8.26320223,14.8605644 L8.45536474,14.5166135 L11.0940842,16.0479018 L11.0940842,21.9186258 L11.0940842,21.9186258 Z M12.0970788,15.0066258 L9.12090322,13.2821595 L12.3314233,7.57634356 C12.3642316,7.51980368 12.4157874,7.48211043 12.476717,7.4632638 L19.2727085,5.65398773 L22.5300975,5.65398773 L22.5300975,14.9359509 L10.3394948,14.9359509 C10.2316963,14.9359509 12.1908166,14.9642209 12.0970788,15.0066258 L12.0970788,15.0066258 Z M22.5300975,25.961227 L12.5001514,25.961227 L12.5001514,16.3494479 L22.5300975,16.3494479 L22.5300975,25.961227 Z M21.4521126,36.9865031 L12.5001514,36.9865031 L12.5001514,27.3747239 L22.5300975,27.3747239 L22.5300975,36.9865031 L21.4521126,36.9865031 Z M34.0598486,36.9865031 L23.9361647,36.9865031 L23.9361647,27.3747239 L34.0598486,27.3747239 L34.0598486,36.9865031 Z M34.0598486,22.107092 L34.0598486,25.961227 L23.9361647,25.961227 L23.9361647,16.3494479 L34.0598486,16.3494479 L34.0598486,22.107092 Z M35.198763,14.9642209 C35.1378334,14.9453742 37.8843514,14.9359509 37.8187349,14.9359509 L23.9361647,14.9359509 L23.9361647,5.65398773 L27.2497964,5.65398773 L34.0504748,7.4632638 C34.1114044,7.47739877 34.1629602,7.51980368 34.1957684,7.57634356 L37.5750166,13.5884172 L35.198763,14.9642209 L35.198763,14.9642209 Z M35.4659158,21.9186258 L35.4659158,16.3494479 C35.5784012,16.3447362 35.6955734,16.3164663 35.798685,16.2552147 L38.2780502,14.8181595 L38.3014847,14.8605644 C38.3014847,14.8605644 38.3014847,14.8652761 38.3061716,14.8652761 L41.4323276,20.3072393 L36.2626872,23.3038528 L35.4659158,21.9186258 Z M45.1396582,26.9176933 C45.1302844,26.9506748 45.1021631,27.016638 45.0318597,27.0590429 L40.2793525,29.815362 C40.1668672,29.8813252 40.0262604,29.8436319 39.960644,29.7305521 L36.9610339,24.5288834 L42.1259875,21.5322699 L45.1162237,26.7386503 C45.1584057,26.8093252 45.149032,26.88 45.1396582,26.9176933 L45.1396582,26.9176933 Z" id="形状"></path>
        </g>
    </g>
</svg>