<?xml version="1.0" encoding="UTF-8"?>
<svg width="50px" height="50px" viewBox="0 0 50 50" version="1.1" xmlns="http://www.w3.org/2000/svg" xmlns:xlink="http://www.w3.org/1999/xlink">
    <title>icon_indoor</title>
    <g id="首页-和-目的地" stroke="none" stroke-width="1" fill="none" fill-rule="evenodd">
        <path d="M29.5937244,28.6359691 L29.5937244,19.0414658 C29.5937244,18.465405 29.1249268,18 28.5446669,18 L7.45205479,18 C6.87179487,18 6.40299731,18.465405 6.40299731,19.0414658 L6.40299731,28.5350771 C5.00316122,29.0362825 4,30.367406 4,31.9296046 L4,40.7006991 C4,41.1303038 4.26554268,41.5143443 4.66549584,41.6705641 C4.83596769,41.7356557 5.01627444,41.7551832 5.18674628,41.7324012 C5.41950591,41.7226374 6.27514343,41.7193828 7.57335207,41.7193828 L7.57335207,43.9585342 C7.57335207,44.534595 8.04214963,45 8.62240955,45 C9.20266948,45 9.67146704,44.534595 9.67146704,43.9585342 L9.67146704,41.725892 C13.910315,41.7389103 20.4472544,41.7812199 26.3252547,41.826784 L26.3252547,43.9585342 C26.3252547,44.534595 26.7940522,45 27.3743121,45 C27.9545721,45 28.4233696,44.534595 28.4233696,43.9585342 L28.4233696,41.8430569 C29.2888421,41.8495661 30.1313664,41.8560752 30.9411076,41.8625844 L30.9509425,41.8625844 C31.2263201,41.8625844 31.4918628,41.7551832 31.6885611,41.5599084 C31.8885376,41.3646336 32,41.097758 32,40.8211186 L32,31.9881871 C32,30.4390068 30.9935605,29.1176471 29.5937244,28.6359691 Z M27,20 L27,28.3197446 C25.478426,28.7188114 24.3536417,30.0756385 24.3536417,31.6814833 L24.3536417,33 L10.7644115,33 L10.7644115,31.6208251 C10.7644115,29.9607073 9.58387988,28.5655697 8,28.1856582 L8,20 L27,20 Z M4.965,41.03 C4.985,41.01 5.015,40.99 5.035,40.97 C5.005,40.99 4.985,41.01 4.965,41.03 Z M4.95,41.045 C4.98636364,41.015 5.02272727,40.985 5.05,40.955 C5.02272727,40.985 4.98636364,41.015 4.95,41.045 Z M4.955,41.035 C4.985,41.015 5.015,40.985 5.045,40.965 C5.015,40.985 4.985,41.005 4.955,41.035 Z M30,40 C27.8845889,39.9843587 22.9398155,39.9468196 18.0380113,39.9186653 C14.2534086,39.8967675 11.2323371,39.8811262 9.06073544,39.8748697 C8.31703622,39.8717414 7.6724969,39.8717414 7.12711748,39.8717414 C6.72386724,39.8717414 6.3768076,39.8717414 6.08593858,39.8748697 L6,39.8748697 L6,32.464025 C6,31.6569343 6.69411927,31 7.54689437,31 C8.39966947,31 9.09378873,31.6569343 9.09378873,32.464025 L9.09378873,34.8164755 C9.09378873,35.3701773 9.5664509,35.8175182 10.1514943,35.8175182 L25.9674976,35.8175182 C26.552541,35.8175182 27.0252031,35.3701773 27.0252031,34.8164755 L27.0252031,32.5203337 C27.0252031,31.7445255 27.6928798,31.1126173 28.5126016,31.1126173 C29.3323234,31.1126173 30,31.7445255 30,32.5203337 L30,40 Z" id="形状备份-2" fill="#4D4D4D" fill-rule="nonzero" transform="translate(18.000000, 31.500000) scale(-1, 1) translate(-18.000000, -31.500000) "></path>
        <path d="M31,44 L31,43.0666667 L37,43.066 L37,15 L29.8318091,15 L29.8318091,15 C29.2833957,15 28.9186118,14.555 29.0156235,14.014 L30.6410652,4.98599999 C30.7380769,4.441 31.2622373,4 31.8111456,4 L43.1882475,4 C43.7366608,4 44.2618111,4.44500001 44.3588228,4.98599999 L45.9842645,14.014 C46.0817712,14.559 45.7159974,15 45.167584,15 L38,15 L38,43.066 L44,43.0666667 L44,44 L31,44 Z M41.5,16 L41.5,18.8 L40.5,18.8 L40.5,16 L41.5,16 Z M43.1877525,5.00000001 L31.8111456,5.00000001 C31.7408616,5.00000001 31.6265263,5.09600001 31.6141524,5.16500001 L30.0238527,14 L44.9755404,14 L43.3847457,5.16500001 C43.3723718,5.098 43.2565517,5.00000001 43.1877525,5.00000001 Z" id="形状结合" stroke="#4D4D4D" fill="#4D4D4D" fill-rule="nonzero"></path>
    </g>
</svg>