<?xml version="1.0" encoding="UTF-8"?>
<svg width="50px" height="50px" viewBox="0 0 50 50" version="1.1" xmlns="http://www.w3.org/2000/svg" xmlns:xlink="http://www.w3.org/1999/xlink">
    <title>icon_umbrella</title>
    <defs>
        <filter id="filter-1">
            <feColorMatrix in="SourceGraphic" type="matrix" values="0 0 0 0 0.300243 0 0 0 0 0.300243 0 0 0 0 0.300243 0 0 0 1.000000 0"></feColorMatrix>
        </filter>
    </defs>
    <g id="首页-和-目的地" stroke="none" stroke-width="1" fill="none" fill-rule="evenodd">
        <g filter="url(#filter-1)" id="伞备份">
            <g transform="translate(3.000000, 3.000000)">
                <path d="M42.4633789,26.1025391 C41.7529297,26.1025391 41.1733398,25.5263672 41.1733398,24.815918 C41.1733398,24.7548828 41.1728516,24.6928711 41.1723633,24.6323242 C41.0761719,22.5893555 39.3837891,20.956543 37.3173828,20.956543 C35.1889648,20.956543 33.4575195,22.6879883 33.4575195,24.815918 C33.4575195,25.5263672 32.8813477,26.1025391 32.1708984,26.1025391 C31.4604492,26.1025391 30.8818359,25.5263672 30.8818359,24.815918 C30.8818359,22.6879883 29.1503906,20.956543 27.0224609,20.956543 C24.8945312,20.956543 23.1630859,22.6879883 23.1630859,24.815918 C23.1630859,25.5263672 22.5869141,26.1025391 21.8764648,26.1025391 C21.1660156,26.1025391 20.5874023,25.5263672 20.5874023,24.815918 C20.5874023,22.6879883 18.855957,20.956543 16.7280273,20.956543 C14.6000977,20.956543 12.8686523,22.6879883 12.8686523,24.815918 C12.8686523,25.5263672 12.2924805,26.1025391 11.5820313,26.1025391 C10.871582,26.1025391 10.2929688,25.5263672 10.2929688,24.815918 C10.2929688,22.6879883 8.56152344,20.956543 6.43359375,20.956543 C4.3671875,20.956543 2.67480469,22.5893555 2.57861328,24.6323242 C2.578125,24.6933594 2.57763672,24.7553711 2.57763672,24.815918 C2.57763672,25.5263672 2.00146484,26.1025391 1.29101563,26.1025391 C0.580566406,26.1025391 0,25.5263672 0,24.815918 C0,24.7314453 0.00146484375,24.6469727 0.0048828125,24.5634766 C0.141601563,12.6196289 9.89941406,2.94433594 21.875,2.94433594 C33.8505859,2.94433594 43.6083984,12.6196289 43.7451172,24.5634766 C43.7485352,24.6474609 43.75,24.7314453 43.75,24.815918 C43.75,25.5263672 43.1738281,26.1025391 42.4633789,26.1025391 L42.4633789,26.1025391 Z M6.43310547,18.3828125 C8.53564453,18.3828125 10.4057617,19.3969727 11.5805664,20.9614258 C12.7553711,19.3969727 14.6254883,18.3828125 16.7280273,18.3828125 C18.8305664,18.3828125 20.7006836,19.3969727 21.8754883,20.9614258 C23.050293,19.3969727 24.9204102,18.3828125 27.0229492,18.3828125 C29.1254883,18.3828125 30.9956055,19.3964844 32.1704102,20.9614258 C33.3452148,19.3964844 35.215332,18.3828125 37.3178711,18.3828125 C38.4003906,18.3828125 39.421875,18.6518555 40.3178711,19.1259766 C37.8833008,11.2539062 30.5366211,5.51757812 21.875,5.51757812 C13.2133789,5.51757812 5.86669922,11.2539062 3.43261719,19.1259766 C4.32910156,18.6518555 5.35009766,18.3828125 6.43310547,18.3828125 Z" id="形状" fill="#333333" fill-rule="nonzero"></path>
                <path d="M21.875,5.51757812 C21.1645508,5.51757812 20.5883789,4.94140625 20.5883789,4.23095703 L20.5883789,1.29003906 C20.5883789,0.579589844 21.1645508,0.00341796875 21.875,0.00341796875 C22.5854492,0.00341796875 23.1616211,0.579589844 23.1616211,1.29003906 L23.1616211,4.23095703 C23.1616211,4.94140625 22.5854492,5.51757812 21.875,5.51757812 L21.875,5.51757812 Z M24.815918,43.746582 C22.4848633,43.746582 20.5883789,41.8500977 20.5883789,39.519043 L20.5883789,24.815918 C20.5883789,24.1054688 21.1645508,23.5292969 21.875,23.5292969 C22.5854492,23.5292969 23.1616211,24.1054687 23.1616211,24.815918 L23.1616211,39.519043 C23.1616211,40.4311523 23.9038086,41.1728516 24.8154297,41.1728516 C25.7275391,41.1728516 26.4692383,40.4306641 26.4692383,39.519043 C26.4692383,38.8085938 27.0454102,38.2324219 27.7558594,38.2324219 C28.4663086,38.2324219 29.0424806,38.8085938 29.0424806,39.519043 C29.0429688,41.8500977 27.1469727,43.746582 24.815918,43.746582 L24.815918,43.746582 Z" id="形状" fill="#333333" fill-rule="nonzero"></path>
            </g>
        </g>
    </g>
</svg>