<?xml version="1.0" encoding="UTF-8"?>
<svg width="64px" height="38px" viewBox="0 0 64 38" version="1.1" xmlns="http://www.w3.org/2000/svg" xmlns:xlink="http://www.w3.org/1999/xlink">
    <title>编组 4</title>
    <g id="首页-和-目的地" stroke="none" stroke-width="1" fill="none" fill-rule="evenodd">
        <g id="目的地天气" transform="translate(-31.000000, -875.000000)">
            <g id="编组-4" transform="translate(31.000000, 875.000000)">
                <g id="编组-9" transform="translate(30.000000, 2.000000)" fill="#4D4D4D" fill-rule="nonzero">
                    <path d="M17,0 C26.3888407,0 34,7.38730163 34,16.5 C34,25.6126984 26.3888407,33 17,33 C7.61115925,33 0,25.6126984 0,16.5 C0,7.38730163 7.61115925,0 17,0 Z M17,1.46666667 C8.44572288,1.46666667 1.51111111,8.19731926 1.51111111,16.5 C1.51111111,24.8026807 8.44572288,31.5333333 17,31.5333333 C25.5542771,31.5333333 32.4888889,24.8026807 32.4888889,16.5 C32.4888889,8.19731926 25.5542771,1.46666667 17,1.46666667 Z" id="椭圆形"></path>
                    <path d="M14,9.5 C14,11.4329966 15.5670034,13 17.5,13 C19.4329966,13 21,11.4329966 21,9.5 C21,7.56700338 19.4329966,6 17.5,6 C15.5670034,6 14,7.56700338 14,9.5 Z" id="路径"></path>
                    <path d="M26.4535058,11.9698315 L22.3234067,15.8740893 C22.0488294,16.1336521 21.8932357,16.486225 21.8932357,16.853939 L21.8932357,27.6539162 C21.8932357,27.8442623 21.7284893,28 21.5271327,28 L18.5983089,28 C18.3969523,28 18.2322059,27.8442623 18.2322059,27.6539162 L18.2322059,21.7704918 L16.7677941,21.7704918 L16.7677941,27.6539162 C16.7677941,27.8442623 16.6030477,28 16.4016911,28 L13.4728673,28 C13.2715107,28 13.1067643,27.8442623 13.1067643,27.6539162 L13.1067643,16.851776 C13.1067643,16.4840619 12.9534587,16.1314891 12.6765933,15.8719262 L8.54649418,11.9698315 C7.83488153,11.2971311 7.81200009,10.2004781 8.51446017,9.52128871 C8.87369871,9.17520492 9.34963258,9 9.8232783,9 C10.2923477,9 10.7614172,9.16871585 11.1183676,9.50614754 L14.3583789,12.5689891 C14.4956675,12.6987705 14.6810071,12.7723133 14.8754993,12.7723133 L20.1199244,12.7723133 C20.3144166,12.7723133 20.4997562,12.6987705 20.6370448,12.5689891 L23.8816324,9.50614754 C24.2385828,9.16871585 24.7076523,9 25.1767217,9 C25.6526556,9 26.1263013,9.17304189 26.4855398,9.52128871 C27.1879999,10.2004781 27.1651185,11.2971311 26.4535058,11.9698315 Z" id="路径"></path>
                </g>
                <circle id="椭圆形" fill="#FFFFFF" cx="19" cy="19" r="19"></circle>
                <path d="M19,2 C28.3888407,2 36,9.61115925 36,19 C36,28.3888407 28.3888407,36 19,36 C9.61115925,36 2,28.3888407 2,19 C2,9.61115925 9.61115925,2 19,2 Z M19,3.51111111 C10.4457229,3.51111111 3.51111111,10.4457229 3.51111111,19 C3.51111111,27.5542771 10.4457229,34.4888889 19,34.4888889 C27.5542771,34.4888889 34.4888889,27.5542771 34.4888889,19 C34.4888889,10.4457229 27.5542771,3.51111111 19,3.51111111 Z" id="蒙版" fill="#4D4D4D" fill-rule="nonzero"></path>
                <path d="M16,7 C16,8.65685425 17.3431458,10 19,10 C20.6568542,10 22,8.65685425 22,7 C22,5.34314575 20.6568542,4 19,4 C17.3431458,4 16,5.34314575 16,7 Z" id="路径" fill="#4D4D4D" fill-rule="nonzero" transform="translate(19.000000, 7.000000) scale(-1, 1) translate(-19.000000, -7.000000) "></path>
                <path d="M25.3046479,24.2800533 L23.1084806,16.3313111 C23.0673667,16.1816486 22.8378141,16.2115811 22.8378141,16.3645695 L22.8378141,20.7546697 C22.8378141,21.3998814 22.9371727,22.0384415 23.1358899,22.6537207 L24.807855,27.8686276 C24.9174921,28.2111885 24.6536779,28.560401 24.2836528,28.560401 L22.9782866,28.560401 C22.9029111,28.560401 22.8412403,28.620266 22.8412403,28.6934344 C22.8412403,31.5178885 22.8412403,33.636229 22.8412403,35.0484561 C22.8412403,36.0785712 19.5521286,36.3556334 19.5521286,35.4640493 C19.5521286,33.9594682 19.5521286,31.7025965 19.5521286,28.6934344 C19.5521286,28.620266 19.4904577,28.560401 19.4150823,28.560401 L18.5928043,28.560401 C18.5174289,28.560401 18.455758,28.620266 18.455758,28.6934344 C18.455758,31.661481 18.455758,33.8875161 18.455758,35.3715394 C18.455758,36.2939601 15.1666463,35.8350303 15.1666463,34.6831446 C15.1666463,33.3520979 15.1666463,31.3555278 15.1666463,28.6934344 C15.1666463,28.620266 15.1049755,28.560401 15.0296,28.560401 L13.7173815,28.560401 C13.3473564,28.560401 13.0835422,28.2111885 13.1931793,27.8686276 L14.8651444,22.6537207 C15.0638616,22.0384415 15.1632202,21.3998814 15.1632202,20.7546697 L15.1632202,16.3645695 C15.1632202,16.2082553 14.9336676,16.1816486 14.8925537,16.3313111 L12.6963864,24.2800533 C12.5010954,24.9884558 11.7473406,25.4108367 11.0175689,25.2212642 C10.4042866,25.0616241 10,24.5228391 10,23.9374924 C10,23.8244141 10.0137046,23.7080099 10.0479662,23.5916057 L12.429146,14.9444386 C13.0766899,12.6196809 15.2488741,11 17.7294125,11 L20.2750479,11 C22.7555863,11 24.9311967,12.6196809 25.5718882,14.9477644 L27.9530681,23.5949316 C28.1483591,24.3033341 27.7166632,25.0316916 26.9834654,25.2212642 C26.2536937,25.4108367 25.4999389,24.9884558 25.3046479,24.2800533 Z" id="路径" fill="#4D4D4D" fill-rule="nonzero" transform="translate(19.000000, 23.500000) scale(-1, 1) translate(-19.000000, -23.500000) "></path>
            </g>
        </g>
    </g>
</svg>