<?xml version="1.0" encoding="UTF-8"?>
<svg width="50px" height="50px" viewBox="0 0 50 50" version="1.1" xmlns="http://www.w3.org/2000/svg" xmlns:xlink="http://www.w3.org/1999/xlink">
    <title>icon_frozenroad</title>
    <g id="首页-和-目的地" stroke="none" stroke-width="1" fill="none" fill-rule="evenodd">
        <path d="M27.5012321,27 L27.7097961,27.1113515 L35.5309453,31.333487 L27.6933681,36.1343665 L42,43.2317813 L36.5130531,47 L36.3852005,46.9113444 L22,36.8556686 L30.3361309,31.0058158 C27.7042492,27.8473365 27.3693513,27.4419675 27.3798418,27.2774169 L27.3836161,27.2547638 C27.387474,27.240419 27.3937131,27.2271998 27.4005214,27.2127735 L27.4005214,27.2127735 L27.5012321,27 Z M28.4390557,28.0120926 C29.0854612,28.8014823 30.0861398,30.0086173 30.8346845,30.9065215 L30.8346845,30.9065215 L30.9889647,31.0909252 L22.7749723,36.8556686 L36.5151959,46.4602645 L41.1250312,43.2927763 L26.7748295,36.1762119 L34.6388343,31.3590198 Z M11.9461205,24.0962541 L20.4970151,29.3633571 L10.756607,34.6289854 L25.0662231,42.1786962 L19.7163064,46 L6,34.2094751 L16.4277791,29.1760888 C16.4277791,29.1760888 11.8542299,24.0498057 11.9461205,24.0962541 L11.9461205,24.0962541 Z M20.4047438,4.32530265 C20.4047438,4.31719261 21.4821073,2.54625459 23.8054212,3.16925318 C24.7036078,3.40987341 27.1829868,4.14328067 29.6232529,4.87260273 L30.2073362,5.04730719 C32.9218108,5.85985424 35.4246213,6.61741468 35.4393554,6.62191877 L35.450871,6.62514123 C35.6482145,6.68325283 38.3144782,7.53021702 38.5028592,9.40071368 L38.5028592,9.40071368 L38.5028592,9.41398466 L39.0118944,16.24426 C39.7448517,16.509516 40.1526699,17.3062126 39.9467189,18.0704938 L39.9467189,18.0704938 L38.2376976,24.3911647 C38.0170673,25.1932777 37.2037937,25.6648498 36.4143557,25.4484191 L36.4143557,25.4484191 L36.0952709,25.3555223 L35.438289,28.5029554 C35.3993053,28.6906582 35.2883011,28.8546926 35.1299839,28.9585473 C34.9716667,29.062402 34.7791753,29.0974581 34.5953551,29.0559128 L34.5953551,29.0559128 L32.3132836,28.5641494 C31.9316228,28.4805489 31.6882821,28.098061 31.7691752,27.7089087 L31.7691752,27.7089087 L32.4717407,24.3299708 L18.1823839,20.2889586 L17.5087604,23.5167549 C17.4704003,23.7041768 17.3601798,23.8682304 17.2025828,23.9724736 C17.0449859,24.0767167 16.853062,24.1125178 16.6694443,24.071924 L16.6694443,24.071924 L14.3902669,23.5801606 C14.008958,23.4953804 13.7646417,23.1149007 13.8410937,22.72492 L13.8410937,22.72492 L14.5610243,19.2634071 L14.2072092,19.1660866 C13.4177792,18.9412524 12.9537379,18.1100706 13.1674702,17.3037263 L13.1674702,17.3037263 L14.8757679,10.982318 C15.0007204,10.5313358 15.3226175,10.1641666 15.7483672,9.98699484 L15.7483672,9.98699484 Z M35.3218025,17.9796981 C34.6014906,17.6764009 33.7728032,17.8451478 33.2222109,18.4072413 C32.6716186,18.9693347 32.5075702,19.8140605 32.8065722,20.5474681 C33.1055742,21.2808757 33.8087328,21.7585077 34.5881196,21.7576145 C35.6511573,21.7543659 36.5115678,20.8759826 36.5127583,19.7927715 C36.5121725,18.9985969 36.0421143,18.2829953 35.3218025,17.9796981 Z M18.579612,13.3578193 C18.0688485,13.3584089 17.5792438,13.5657714 17.2185546,13.9342721 C16.8578653,14.3027727 16.6556523,14.8022104 16.6564182,15.3226645 C16.6570072,16.116973 17.1272226,16.8326671 17.8477121,17.1358771 C18.5682016,17.439087 19.3970019,17.2700691 19.9474796,16.7076698 C20.4979573,16.1452705 20.6616477,15.3003035 20.3621896,14.566944 C20.0627315,13.8335845 19.3591294,13.3563316 18.579612,13.3578193 Z M23.5442202,4.18890651 C21.9603728,3.76054889 21.2780667,4.89153096 21.2737254,4.89153096 L21.2737254,4.89153096 L21.2664899,4.90848831 L16.9928704,10.0069013 L37.9511725,15.937553 L37.4725263,9.49655962 C37.3343286,8.27710438 35.1448712,7.63272477 35.1448712,7.63272477 C35.1144822,7.62461473 25.478265,4.70500002 23.5442202,4.18890651 Z" id="形状结合" fill="#4D4D4D" fill-rule="nonzero"></path>
    </g>
</svg>