<?xml version="1.0" encoding="UTF-8"?>
<svg width="33px" height="34px" viewBox="0 0 33 34" version="1.1" xmlns="http://www.w3.org/2000/svg" xmlns:xlink="http://www.w3.org/1999/xlink">
    <title>女性,女人,母亲,妇女,女生,女士备份</title>
    <g id="首页-和-目的地" stroke="none" stroke-width="1" fill="none" fill-rule="evenodd">
        <g id="目的地天气" transform="translate(-47.000000, -815.000000)" fill="#4D4D4D" fill-rule="nonzero">
            <g id="女性,女人,母亲,妇女,女生,女士备份" transform="translate(47.000000, 815.000000)">
                <path d="M16.5,0 C25.6126984,0 33,7.61115925 33,17 C33,26.3888407 25.6126984,34 16.5,34 C7.38730163,34 0,26.3888407 0,17 C0,7.61115925 7.38730163,0 16.5,0 Z M16.5,1.51111111 C8.19731926,1.51111111 1.46666667,8.44572288 1.46666667,17 C1.46666667,25.5542771 8.19731926,32.4888889 16.5,32.4888889 C24.8026807,32.4888889 31.5333333,25.5542771 31.5333333,17 C31.5333333,8.44572288 24.8026807,1.51111111 16.5,1.51111111 Z" id="蒙版"></path>
                <path d="M14,6 C14,7.65685425 15.3431458,9 17,9 C18.6568542,9 20,7.65685425 20,6 C20,4.34314575 18.6568542,3 17,3 C15.3431458,3 14,4.34314575 14,6 Z" id="路径" transform="translate(17.000000, 6.000000) scale(-1, 1) translate(-17.000000, -6.000000) "></path>
                <path d="M22.6041315,22.757582 L21.1338309,15.1215637 C21.0972852,14.9777893 20.8932385,15.0065442 20.8932385,15.1535136 C21.2475582,22.7496223 21.4250086,28.5431972 21.4255897,32.5342382 C21.4257332,33.5202027 18.5023655,33.7521995 18.5023655,32.8822335 C18.5023655,31.4458192 18.1651706,29.0785972 17.490781,25.7805676 C17.490781,25.7102779 17.4359624,25.6527681 17.368962,25.6527681 L16.6380483,25.6527681 C16.5710479,25.6527681 16.5162293,25.7102779 16.5162293,25.7805676 C15.7563449,29.0985251 15.3764027,31.480693 15.3764027,32.9270712 C15.3764027,33.7820913 12.4498495,33.1652323 12.4497023,32.1547151 C12.4491237,28.1800425 12.602728,22.5129754 12.9105153,15.1535136 C12.9105153,15.0033492 12.7064685,14.9777893 12.6699228,15.1215637 L11.3967879,22.757582 C11.2231959,23.4381142 10.5531916,23.8438775 9.90450572,23.6617633 C9.35936591,23.5084039 9,22.9908161 9,22.4284984 C9,22.3198689 9.0121819,22.2080443 9.04263663,22.0962198 L9.69002741,13.7924493 C10.265622,11.5591535 10.2447793,10 12.4497023,10 L21.2789847,10 C23.4839077,10 23.7311221,11.5559585 24.3006257,13.7924493 L24.9582827,22.0994148 C25.1318747,22.7799469 24.748145,23.479649 24.0964136,23.6617633 C23.4477277,23.8438775 22.7777235,23.4381142 22.6041315,22.757582 Z" id="路径" transform="translate(17.000000, 21.710520) scale(-1, 1) translate(-17.000000, -21.710520) "></path>
            </g>
        </g>
    </g>
</svg>