<?xml version="1.0" encoding="UTF-8"?>
<svg width="50px" height="50px" viewBox="0 0 50 50" version="1.1" xmlns="http://www.w3.org/2000/svg" xmlns:xlink="http://www.w3.org/1999/xlink">
    <title>icon_mask</title>
    <g id="首页-和-目的地" stroke="none" stroke-width="1" fill="none" fill-rule="evenodd">
        <path d="M40.50675,17.0924822 C40.3553528,16.1647255 39.6622601,15.4224622 38.7545,15.2159212 L33.08475,13.8991958 C28.0346035,12.7342875 22.7933069,12.7008303 17.7290002,13.801174 L11.2540003,15.2181949 C10.340487,15.4219219 9.63835842,16.1616581 9.4750003,17.0924822 C6.3777215,17.3604061 3.99893057,19.9797227 4,23.1210735 L4,27.0515443 C3.99946098,30.2112207 6.40605071,32.8387594 9.5235003,33.0821566 C9.74681241,33.910908 10.407238,34.5456804 11.2375003,34.7295791 L17.4680002,36.141042 C19.9995903,36.713058 22.5858985,37.001118 25.1800001,37 C27.9291461,37.0013643 30.6690422,36.6782466 33.344,36.0372097 L38.77175,34.7318528 C39.5906069,34.5370239 40.2377752,33.904088 40.45725,33.0834198 C43.582843,32.8497571 46.0005543,30.2186925 46,27.0515443 L46,23.1210735 C46.0005132,19.9731165 43.6113603,17.3511301 40.50675,17.0924822 L40.50675,17.0924822 Z M6,26.9616422 L6,23.0381056 C6.00024927,21.5423478 7.26449397,20.2620448 9,20 L9,30 C7.26444788,29.7378442 6.00022589,28.457458 6,26.9616422 Z M32.1737143,33.1209065 C27.3861005,34.2599248 22.4040151,34.2925163 17.6020728,33.2162307 L12,31.9526199 L12,18.0046104 L17.8419115,16.7321966 C22.4901993,15.7266009 27.3010917,15.7571635 31.9363765,16.8217359 L37,17.9920346 L37,31.9659502 L32.1737143,33.1209065 Z M43,26.9605867 C42.9997815,28.4629023 41.7328246,29.7465042 40,30 L40,20 C41.7327148,20.2534797 42.9996378,21.5369409 43,23.0391613 L43,26.9598307 L43,26.9605867 Z M19,17.9296339 L19.9187467,20.9782458 C22.9529857,19.9819293 26.1708305,19.9894704 29.2014968,21 L30,17.9065029 C26.408981,16.6900084 22.5871084,16.6980451 19,17.9296339 L19,17.9296339 Z" id="形状备份" fill="#4D4D4D" fill-rule="nonzero"></path>
    </g>
</svg>