<?xml version="1.0" encoding="UTF-8"?>
<svg width="50px" height="50px" viewBox="0 0 50 50" version="1.1" xmlns="http://www.w3.org/2000/svg" xmlns:xlink="http://www.w3.org/1999/xlink">
    <title>icon_outdoor</title>
    <g id="首页-和-目的地" stroke="none" stroke-width="1" fill="none" fill-rule="evenodd">
        <path d="M17.5162059,41 C18.505402,41 19,41.4991182 19,42.4973545 L19,42.5026455 C19,43.5008818 18.505402,44 17.5162059,44 L9.4837941,44 C8.49459803,44 8,43.5008818 8,42.5026455 L8,42.4973545 C8,41.4991182 8.49459803,41 9.4837941,41 L17.5162059,41 Z M41.238314,10.9161227 C43.0422446,8.63236232 46.2860098,11.0612087 44.4600127,13.3718369 C40.9349006,17.8318866 35.9809871,19.5299296 30.7677931,18.0898172 C29.153266,20.6404641 27.5865495,23.21977 26.0676435,25.8277348 C28.2211999,26.9078323 30.2754268,28.1662964 32.2076276,29.5892226 C33.9012261,30.7928986 36.0692528,35.5377467 37.3270393,37.9182311 C38.6841247,40.4760428 34.2763554,42.3299189 32.9137534,39.7828543 C31.7883655,37.6871683 29.8961691,33.5172904 28.7928476,32.6951367 C27.6895262,31.872983 24.0706317,29.5623548 21.312328,28.6918391 C21.1833711,28.6514963 21.0579289,28.6011831 20.9371986,28.5413796 C16.9924965,32.8574966 10.5276947,33.9832584 5.29209998,31.2657714 C2.31864854,29.6966936 5.01075295,25.8277348 7.99523758,27.3968126 C12.1271766,29.583849 16.435647,26.7949745 18.3830094,23.2967909 C20.3303718,19.7986074 21.7095236,17.3375197 23.2872734,14.8603113 C20.2034899,13.9736749 17.3734703,14.7850815 15.1668273,17.5900767 C13.3628966,19.8738371 9.14269195,17.6868007 10.968689,15.3761725 C15.2606096,9.94350949 21.6598742,8.60012099 28.070172,12.0338219 C28.3349692,12.1789079 29.5375896,12.7753724 29.81342,12.9204583 L30.0741466,13.05599 C33.9991355,15.0297484 38.5399734,14.3382588 41.238314,10.9161227 Z M18.5162059,36 C19.505402,36 20,36.4991182 20,37.4973545 L20,37.5026455 C20,38.5008818 19.505402,39 18.5162059,39 L10.4837941,39 C9.49459803,39 9,38.5008818 9,37.5026455 L9,37.4973545 C9,36.4991181 9.49459803,36 10.4837941,36 L18.5162059,36 Z M43.4961131,33 C44.5076025,32.9984444 45.420361,33.6065518 45.8085217,34.5405996 C46.1966823,35.4746474 45.983748,36.5505574 45.2690678,37.2663408 C44.5543876,37.9821242 43.4788077,38.1967174 42.5441629,37.8099973 C41.609518,37.4232773 41,36.5114572 41,35.4999662 C40.9989803,34.8372892 41.2615111,34.2014035 41.7297334,33.7324584 C42.1979558,33.2635133 42.8334356,33 43.4961131,33 Z M32.4945584,6 C33.9106435,5.99782222 35.1885054,6.84917252 35.7319303,8.15683943 C36.2753552,9.46450635 35.9772472,10.9707803 34.9766949,11.9728771 C33.9761426,12.9749738 32.4703308,13.2754043 31.161828,12.7339963 C29.8533252,12.1925882 29,10.9160401 29,9.49995267 C28.9985725,8.57220486 29.3661155,7.6819649 30.0216268,7.02544175 C30.6771381,6.36891861 31.5668099,6 32.4945584,6 Z" id="形状结合备份" fill="#4D4D4D" fill-rule="nonzero"></path>
    </g>
</svg>