<?xml version="1.0" encoding="UTF-8"?>
<svg width="35px" height="35px" viewBox="0 0 35 35" version="1.1" xmlns="http://www.w3.org/2000/svg" xmlns:xlink="http://www.w3.org/1999/xlink">
    <title>编组 7</title>
    <g id="首页-和-目的地" stroke="none" stroke-width="1" fill="none" fill-rule="evenodd">
        <g id="目的地天气" transform="translate(-48.000000, -939.000000)" fill="#4D4D4D" fill-rule="nonzero">
            <g id="编组-7" transform="translate(48.000000, 939.000000)">
                <path d="M17,0 C26.3888407,0 34,7.61115925 34,17 C34,26.3888407 26.3888407,34 17,34 C7.61115925,34 0,26.3888407 0,17 C0,7.61115925 7.61115925,0 17,0 Z M17,1.51111111 C8.44572288,1.51111111 1.51111111,8.44572288 1.51111111,17 C1.51111111,25.5542771 8.44572288,32.4888889 17,32.4888889 C25.5542771,32.4888889 32.4888889,25.5542771 32.4888889,17 C32.4888889,8.44572288 25.5542771,1.51111111 17,1.51111111 Z" id="椭圆形备份-2"></path>
                <path d="M24.2630956,19.8569805 C23.8828393,19.8569805 23.5323563,19.929403 23.2048505,20.0624365 C23.1766953,20.040057 23.166663,20.0142585 23.1398024,19.9900141 L16.4065155,13.5584025 C15.9590494,13.1332248 15.3088484,12.9706388 14.7023201,13.1322601 L14.6890516,13.1195162 C14.6757831,13.1322601 14.6521587,13.1322601 14.6388901,13.1453148 C14.4109109,13.2094576 14.2002068,13.320508 14.0214187,13.4707496 C9.88358313,15.8594474 7.04444414,21.6131474 7.04444414,26.3774883 C7.04444414,27.0411018 6.94444483,27.3572118 7.04444414,28 L20.0155521,28 L20.0155521,21.7216257 L20.6598842,22.3420344 C20.7715339,22.448026 20.8886852,22.5328815 21.0136034,22.6084123 C21.0718555,23.1986708 21.5715284,23.6590041 22.1883526,23.6900867 C22.8048532,23.7211693 23.351775,23.3133656 23.4737807,22.7318102 L23.5006413,22.7318102 L23.5006413,22.4881226 C23.5006413,22.0946169 23.8326779,21.7757094 24.2423838,21.7757094 C24.6520897,21.7757094 24.9841262,22.0946169 24.9841262,22.4881226 L24.9841262,28 L26.9769927,28 L26.9769927,22.4878118 C26.9873486,21.7912507 26.7054736,21.1201774 26.1951211,20.6250316 C25.6845219,20.1303671 24.9883226,19.8536023 24.2630956,19.8569805 Z M27.9737496,8.09159488 C27.8705141,7.7164279 26.6200373,7.217863 26.2310432,7.31546236 L25.9892973,7.37824922 L24.8041922,6.0939162 C24.6805684,5.95932854 24.0498285,5.34202811 23.5689256,5.07627188 C22.8880242,4.7011049 17.6035946,5.77998194 16.9207514,6.78332826 C16.6336984,7.21941713 16.5068384,7.72917177 16.4417903,7.96819696 L16.0259356,9.94349617 L15.7841897,10.0025531 C15.3951956,10.1004633 14.5725476,11.1314731 14.674165,11.5063293 C14.7228856,11.6899763 14.8477886,11.8464465 15.0197937,11.9393099 C15.1915243,12.0320132 15.3946378,12.0551681 15.5841911,12.0036509 L17.1731769,11.6026853 C17.5641127,13.5798495 19.3657184,15.0099599 21.4611732,15.0062497 C22.6158951,15.009631 23.7246803,14.5720956 24.543378,13.7899674 C25.3620758,13.0078393 25.8235521,11.9452538 25.8261916,10.8361884 C25.8261916,10.3503674 25.7375191,9.88070932 25.5740898,9.44493127 L27.4433326,8.95755611 C27.6352406,8.91310799 27.7999644,8.79592659 27.8999637,8.63274294 C27.9993158,8.46955929 28.0261764,8.27436057 27.9737496,8.09159488 L27.9737496,8.09159488 Z M24.6669763,5.93694907 L24.8663797,6.13254401 C24.940923,6.20335627 24.9003901,6.16201722 24.6669763,5.93694907 Z" id="形状"></path>
            </g>
        </g>
    </g>
</svg>