<?xml version="1.0" encoding="UTF-8"?>
<svg width="50px" height="50px" viewBox="0 0 50 50" version="1.1" xmlns="http://www.w3.org/2000/svg" xmlns:xlink="http://www.w3.org/1999/xlink">
    <title>icon_UVprotection</title>
    <defs>
        <filter id="filter-1">
            <feColorMatrix in="SourceGraphic" type="matrix" values="0 0 0 0 0.300243 0 0 0 0 0.300243 0 0 0 0 0.300243 0 0 0 1.000000 0"></feColorMatrix>
        </filter>
    </defs>
    <g id="首页-和-目的地" stroke="none" stroke-width="1" fill="none" fill-rule="evenodd">
        <g filter="url(#filter-1)" id="美妆-防晒霜备份">
            <g transform="translate(7.000000, 2.000000)">
                <path d="M0,0 L2.20314084,34.8391081 L18.567434,34.8391081 L20.7705748,0 L0,0 Z M16.3311133,32.4375643 L4.45273345,32.4375643 L3.57678589,18.6303602 L10.3852874,18.6303602 L10.3852874,16.2221269 L3.41752269,16.2221269 L3.09899631,11.1581475 L8.22859833,11.1581475 L8.22859833,8.74991424 L2.94636908,8.74991424 L2.5482111,2.41492281 L18.2223637,2.41492281 L16.3311133,32.4375643 L16.3311133,32.4375643 Z M3.80904471,43.2746141 C3.80904471,45.2212693 5.38176875,46.8 7.306199,46.8 L13.4643758,46.8 C15.395442,46.8 16.9615301,45.2145798 16.9615301,43.2746141 L16.9615301,37.7891938 L3.80904471,37.7891938 L3.80904471,43.2746141 Z M6.19799261,40.1907376 L14.5792182,40.1907376 L14.5792182,43.2679245 C14.5792182,43.8833619 14.0815207,44.3850772 13.4710118,44.3850772 L7.31283497,44.3850772 C6.70232606,44.3850772 6.20462858,43.8833619 6.20462858,43.2679245 L6.20462858,40.1907376 L6.19799261,40.1907376 Z M22.2172155,19.3862779 L21.8256935,21.7610635 C24.1217378,22.1423671 25.9864444,23.7746141 26.6832209,26.0089194 C27.6985237,29.2667238 25.9001768,32.745283 22.6750972,33.7687822 C21.9584128,33.9962264 21.2151846,34.0898799 20.4719563,34.0497427 L20.332601,36.4512864 C20.4985002,36.457976 20.6643993,36.4646655 20.8236625,36.4646655 C21.6929741,36.4646655 22.5490138,36.3308748 23.3851456,36.0632933 C25.5551066,35.374271 27.3335456,33.8691252 28.3886642,31.835506 C29.4437829,29.8018868 29.6428619,27.473928 28.9593573,25.2797599 C27.9905062,22.1825043 25.4024794,19.9214408 22.2172155,19.3862779 L22.2172155,19.3862779 Z M25.9532646,40.2643225 C25.7541856,39.6288165 25.083953,39.2809605 24.4535362,39.4749571 C23.8231194,39.6756432 23.4780491,40.3512864 23.6704921,40.9867925 L25.2233083,45.9504288 C25.3825715,46.4655232 25.8537251,46.7933105 26.3646945,46.7933105 C26.4841419,46.7933105 26.6035893,46.7732419 26.7230367,46.7397942 C27.3534535,46.5391081 27.6985237,45.8634648 27.5060807,45.2279588 L25.9532646,40.2643225 L25.9532646,40.2643225 Z M37.7254689,35.3876501 L33.1466521,32.9794168 C32.5626871,32.6716981 31.8393668,32.8991424 31.5341123,33.4945111 C31.2288578,34.0831904 31.4544807,34.8123499 32.0450817,35.1200686 L36.6238985,37.5283019 C36.8030696,37.6219554 36.9888767,37.6620926 37.1746837,37.6620926 C37.6060216,37.6620926 38.0240874,37.4279588 38.2364384,37.0132075 C38.5416928,36.4245283 38.309434,35.6953688 37.7254689,35.3876501 Z M39.5437237,21.9283019 C39.3446447,21.2927959 38.6744121,20.94494 38.0439953,21.1389365 L33.1201083,22.7042882 C32.4896915,22.9049743 32.1446212,23.5806175 32.3370642,24.2161235 C32.4963274,24.7312178 32.967481,25.0590051 33.4784505,25.0590051 C33.5978979,25.0590051 33.7173452,25.0389365 33.8367926,25.0054889 L38.7606797,23.4401372 C39.3977325,23.2327616 39.7428027,22.5571184 39.5437237,21.9283019 Z M29.8883926,10.3219554 C29.3044276,10.0142367 28.5811073,10.241681 28.2758528,10.8370497 L25.8869049,15.4528302 C25.5816504,16.0415094 25.8072733,16.770669 26.3978743,17.0783877 C26.5770454,17.1720412 26.7628525,17.2121784 26.9486595,17.2121784 C27.3799973,17.2121784 27.7980632,16.9780446 28.0104141,16.5632933 L30.399362,11.9475129 C30.7046165,11.3588336 30.4789936,10.6296741 29.8883926,10.3219554 Z" id="形状" fill="#000000" fill-rule="nonzero"></path>
            </g>
        </g>
    </g>
</svg>