<?xml version="1.0" encoding="UTF-8"?>
<svg width="50px" height="50px" viewBox="0 0 50 50" version="1.1" xmlns="http://www.w3.org/2000/svg" xmlns:xlink="http://www.w3.org/1999/xlink">
    <title>icon_dontoutdoor</title>
    <g id="首页-和-目的地" stroke="none" stroke-width="1" fill="none" fill-rule="evenodd">
        <path d="M41.6484018,20.9691418 L41.6484018,7.46576663 C41.6484018,6.65501446 40.9954338,6 40.1872146,6 L10.8082192,6 C10,6 9.34703196,6.65501446 9.34703196,7.46576663 L9.34703196,20.8271456 C7.39726027,21.5325458 6,23.4059788 6,25.6046287 L6,37.9491321 C6,38.5537608 6.36986301,39.0942623 6.92694064,39.3141273 C7.16438356,39.4057377 7.41552511,39.4332208 7.65296804,39.4011572 C7.97716895,39.3874156 9.16894977,39.3828351 10.9771689,39.3828351 L10.9771689,42.5342334 C10.9771689,43.3449855 11.630137,44 12.4383562,44 C13.2465753,44 13.8995434,43.3449855 13.8995434,42.5342334 L13.8995434,39.3919961 C19.803653,39.4103182 28.9086758,39.469865 37.0958904,39.5339923 L37.0958904,42.5342334 C37.0958904,43.3449855 37.7488584,44 38.5570776,44 C39.3652968,44 40.0182648,43.3449855 40.0182648,42.5342334 L40.0182648,39.5568949 C41.2237443,39.5660559 42.3972603,39.575217 43.5251142,39.584378 L43.5388128,39.584378 C43.9223744,39.584378 44.2922374,39.4332208 44.56621,39.1583896 C44.8447489,38.8835583 45,38.5079556 45,38.1186114 L45,25.6870781 C45,23.5067502 43.5981735,21.6470588 41.6484018,20.9691418 Z M38,9 L38,21.1596267 C35.917846,21.7428782 34.3786676,23.7259332 34.3786676,26.0729371 L34.3786676,28 L15.7828788,28 L15.7828788,25.9842829 C15.7828788,23.5579568 14.1674146,21.5189096 12,20.9636542 L12,9 L38,9 Z M7.965,39.03 C7.985,39.01 8.015,38.99 8.035,38.97 C8.005,38.99 7.985,39.01 7.965,39.03 Z M7.95,39.045 C7.98636364,39.015 8.02272727,38.985 8.05,38.955 C8.02272727,38.985 7.98636364,39.015 7.95,39.045 Z M7.955,39.035 C7.985,39.015 8.015,38.985 8.045,38.965 C8.015,38.985 7.985,39.005 7.955,39.035 Z M42,37 C39.0913097,36.977407 32.2922462,36.9231839 25.5522655,36.8825165 C20.3484369,36.8508863 16.1944636,36.8282934 13.2085112,36.8192562 C12.1859248,36.8147376 11.2996832,36.8147376 10.5497865,36.8147376 C9.99531745,36.8147376 9.51811045,36.8147376 9.11816554,36.8192562 L9,36.8192562 L9,26.1147028 C9,24.9489051 9.95441399,24 11.1269798,24 C12.2995455,24 13.2539595,24.9489051 13.2539595,26.1147028 L13.2539595,29.5126868 C13.2539595,30.3124783 13.90387,30.9586375 14.7083046,30.9586375 L36.4553092,30.9586375 C37.2597438,30.9586375 37.9096543,30.3124783 37.9096543,29.5126868 L37.9096543,26.1960375 C37.9096543,25.0754258 38.8277097,24.1626694 39.9548272,24.1626694 C41.0819446,24.1626694 42,25.0754258 42,26.1960375 L42,37 Z" id="形状备份-2" fill="#4D4D4D" fill-rule="nonzero"></path>
    </g>
</svg>