<?xml version="1.0" encoding="UTF-8"?>
<svg width="24px" height="24px" viewBox="0 0 24 24" version="1.1" xmlns="http://www.w3.org/2000/svg" xmlns:xlink="http://www.w3.org/1999/xlink">
    <title>icon_clinic</title>
    <g id="首页-和-目的地" stroke="none" stroke-width="1" fill="none" fill-rule="evenodd">
        <g id="icon_clinic" transform="translate(0.000000, 0.000000)" fill-rule="nonzero">
            <path d="M12,0 C5.37257812,0 0,5.37257812 0,12 C0,18.6274219 5.37257812,24 12,24 C18.6274219,24 24,18.6274219 24,12 C24,5.37257812 18.6274219,0 12,0 Z" id="路径" fill="#016F7E"></path>
            <path d="M18.644287,15.6639073 L18.6452883,16.3500776 C19.4493042,16.5911374 19.9969962,17.3073152 20,18.1185166 C20,19.1427708 19.1309019,19.9719766 18.0595482,19.9719766 C16.9881945,19.9719766 16.1210989,19.1417705 16.1210989,18.1185166 C16.1210989,17.2993132 16.676801,16.6061412 17.4457726,16.3610804 L17.4457726,15.6639073 C17.4457726,14.8977171 16.7949503,14.2735622 15.9919357,14.2735622 L15.8207193,14.2735622 C15.0187059,14.2735622 14.3668823,14.8977172 14.3668823,15.6639073 L14.3668823,17.4643542 C14.3598735,18.869703 13.172373,20.0049848 11.7135297,20 L11.5433146,20 C10.0814675,20 8.8909633,18.861701 8.8909633,17.4643542 L8.8909633,14.0925173 L8.84090003,14.0925173 C8.56314045,14.0919657 8.33826438,13.8668705 8.33826494,13.5893924 C5.26037591,13.394344 4.65360923,11.2017998 4.1980336,8.60715583 L4.09390202,8.01300837 C3.88363634,6.85872187 4.02381346,5.57840409 4.54146754,4.9692529 C4.89391286,4.55114914 5.41256821,4.29208484 5.97127415,4.25307515 L6.89644313,4.25307515 C7.05760716,4.09010689 7.2779046,3.9991912 7.50721487,4.00101259 C7.96979936,4 8.34727631,4.36010172 8.34927886,4.80521219 C8.34595501,5.1307548 8.14743042,5.42252218 7.84564249,5.54539591 C7.54019684,5.67395921 7.18803528,5.61642663 6.93949755,5.39735916 L6.0103235,5.39735916 C5.79479901,5.42724805 5.59849628,5.53726597 5.46062894,5.70543562 C5.18528102,6.04351953 5.13121271,7.02576332 5.27439362,7.81595946 L5.38052772,8.41610842 C5.89317547,11.3468358 6.42885232,12.2570617 8.33826494,12.4411074 C8.33826494,12.1790424 8.55153442,11.9659895 8.81386588,11.9659895 L10.1205169,11.9659895 C10.3768408,11.9659895 10.5841026,12.1730409 10.5841026,12.4291044 C12.413414,12.1750414 13.0111693,11.2918222 13.5148057,8.41710866 L13.6209398,7.81695971 C13.7661233,7.0147606 13.6359588,6.02651532 13.349597,5.69143216 C13.2127352,5.53112684 13.0217972,5.42650228 12.8129188,5.39735916 L11.8817423,5.39735916 C11.6336193,5.61636472 11.2819531,5.67426853 10.9765986,5.54639615 C10.6748106,5.42352242 10.4762861,5.13175504 10.4729622,4.80621244 C10.4729622,4.59215931 10.5630761,4.38610817 10.7202747,4.23607092 C10.8804643,4.08344347 11.0936626,3.99882444 11.3150262,4 C11.5453172,4 11.7655955,4.09203519 11.9237954,4.25307515 L12.8479631,4.25307515 C13.4024236,4.28898946 13.9188076,4.54727998 14.2797723,4.9692529 C14.7974263,5.57940434 15.0106958,6.85872187 14.8004301,8.01300837 L14.6962986,8.60615558 C14.2467305,11.1727926 13.5748816,13.3173249 10.5851039,13.5823907 L10.5851039,13.5973944 C10.5851039,13.8708432 10.3632045,14.0925173 10.0894777,14.0925173 L10.0894777,17.4633539 C10.0894777,18.2305444 10.7413013,18.853699 11.5433146,18.853699 L11.714531,18.853699 C12.5165444,18.853699 13.168368,18.2305444 13.168368,17.4633539 L13.168368,15.6629071 C13.1753768,14.2585585 14.3628773,13.124277 15.8217206,13.128278 L15.9919357,13.128278 C17.454784,13.128278 18.644287,14.2665605 18.644287,15.6639073 L18.644287,15.6639073 Z M18,19 C18.5522847,19 19,18.5522847 19,18 C19,17.4477153 18.5522847,17 18,17 C17.4477152,17 17,17.4477153 17,18 C17,18.5522847 17.4477152,19 18,19 L18,19 Z" id="形状" fill="#FFFFFF"></path>
        </g>
    </g>
</svg>