<?xml version="1.0" encoding="UTF-8"?>
<svg width="39px" height="44px" viewBox="0 0 39 44" version="1.1" xmlns="http://www.w3.org/2000/svg" xmlns:xlink="http://www.w3.org/1999/xlink">
    <title>icon_bus</title>
    <g id="首页-和-目的地" stroke="none" stroke-width="1" fill="none" fill-rule="evenodd">
        <g id="目的地景点-详情" transform="translate(-249.000000, -383.000000)" fill-rule="nonzero">
            <g id="icon_bus" transform="translate(249.000000, 383.000000)">
                <circle id="椭圆形备份-3" fill="#FFFFFF" cx="19.5" cy="18.5" r="17.5"></circle>
                <path d="M19.4117647,0 C30.132605,0 38.8235294,8.6185 38.8235294,19.25 C38.8235294,27.979875 32.9639496,35.35125 24.9316387,37.71075 C23.7669328,38.053125 21.9255882,40.15 19.4117647,44 C16.9811345,40.161 15.2007983,38.082 14.0693697,37.761625 C5.94554622,35.459875 -1.28252964e-12,28.0445 -1.28252964e-12,19.25 C-1.28252964e-12,8.6185 8.69092437,0 19.4117647,0 Z M31.0491935,12.1635179 L7.77418431,12.1635179 C7.13003221,12.1635179 6.56625692,12.7273311 6.56625692,13.3714832 L6.56625692,13.3714832 L6.56625692,22.4721507 C6.56625692,23.1164545 7.13003221,23.680116 7.77418431,23.680116 L7.77418431,23.680116 L9.22384881,23.680116 C9.22384881,25.3714419 10.5930228,26.6600494 12.2037063,26.6600494 C13.8143899,26.6600494 15.1836397,25.2909134 15.1836397,23.680116 L15.1836397,23.680116 L24.042608,23.680116 C24.042608,25.3714419 25.4117061,26.6600494 27.0223897,26.6600494 C28.7137534,26.6600494 30.002361,25.2909134 30.002361,23.680116 L30.002361,23.680116 L31.0492314,23.680116 C31.6130446,23.680116 32.0962155,23.3580021 32.2573484,22.7943405 L32.2573484,22.7943405 L32.2573484,13.2909927 C32.2573484,12.7273311 31.6934972,12.1635179 31.0491935,12.1635179 L31.0491935,12.1635179 Z M12.3816018,22.7434401 C13.3049573,22.7434401 13.9765101,23.4868801 13.9765101,24.3128382 C13.9765101,25.2214309 13.3049573,25.8823529 12.3816018,25.8823529 C11.4582068,25.8823529 10.7866935,25.138874 10.7866935,24.3128382 C10.7866935,23.4043232 11.5422596,22.7434401 12.3816018,22.7434401 Z M27.5863788,22.7434401 C28.3341733,22.7434401 28.8780181,23.4868801 28.877986,24.3128382 C28.9460546,25.2214309 28.3341413,25.8823529 27.5863788,25.8823529 C26.8386163,25.8823529 26.2949315,25.138874 26.2949315,24.3128382 C26.2949315,23.4043232 26.9066849,22.7434401 27.5863788,22.7434401 Z M31.0588235,14.2352941 L31.0588235,20.5130811 L30.0409724,20.5130811 L28.2960212,18.6132608 L28.2960212,14.2352941 L31.0588235,14.2352941 Z M15.4035499,14.3178122 L15.4035499,18.6958955 L12.0459044,18.6958955 L12.0459044,14.3178122 L15.4035499,14.3178122 Z M11.122549,14.3178122 L11.122549,18.6958955 L7.76470588,18.6958955 L7.76470588,14.3178122 L11.122549,14.3178122 Z M23.2941176,14.3178122 L23.2941176,18.6958955 L20.272209,18.6958955 L20.272209,14.3178122 L23.2941176,14.3178122 Z M19.6006562,14.2352941 L19.6006562,18.6958955 L16.5786686,18.6958955 L16.5786686,14.2352941 L19.6006562,14.2352941 Z M27.4962933,14.3178122 L27.4962933,18.6958955 L24.5882353,18.6958955 L24.5882353,14.3178122 L27.4962933,14.3178122 Z" id="形状结合" fill="#016F7E"></path>
            </g>
        </g>
    </g>
</svg>