<?xml version="1.0" encoding="UTF-8"?>
<svg width="24px" height="24px" viewBox="0 0 24 24" version="1.1" xmlns="http://www.w3.org/2000/svg" xmlns:xlink="http://www.w3.org/1999/xlink">
    <title>编组 33</title>
    <g id="首页-和-目的地" stroke="none" stroke-width="1" fill="none" fill-rule="evenodd">
        <g id="编组-33" transform="translate(0.000000, 0.000000)" fill-rule="nonzero">
            <path d="M12,0 C5.37257812,0 0,5.37257812 0,12 C0,18.6274219 5.37257812,24 12,24 C18.6274219,24 24,18.6274219 24,12 C24,5.37257812 18.6274219,0 12,0 Z" id="路径" fill="#016F7E"></path>
            <path d="M14.5,5 C15.462,5 16.288,5.24332599 16.9733333,5.73131126 C17.6586667,6.21796324 18,6.80727879 18,7.5005912 L18,7.5005912 L18,14.5010466 C18,15.1783595 17.6746667,15.7570087 17.02,16.2369942 C16.3666667,16.7163131 15.5706667,16.9676388 14.6333333,16.9943047 L14.6333333,16.9943047 L16.2966667,18.5709238 C16.3765818,18.6373236 16.4022388,18.7489555 16.3593333,18.8435822 C16.3173333,18.9469124 16.2386667,18.9995775 16.1233333,18.9995775 L16.1233333,18.9995775 L7.87666667,18.9995775 C7.77227247,19.0058088 7.67622712,18.9425944 7.64066667,18.8442489 C7.59617988,18.7495742 7.6220447,18.636763 7.70333333,18.5709238 L7.70333333,18.5709238 L9.36666667,16.9943047 C8.42933333,16.9683055 7.63333333,16.7143131 6.98,16.2369942 C6.32533333,15.7570087 6,15.1796928 6,14.5010466 L6,14.5010466 L6,7.50192449 C6,6.80661214 6.34133333,6.21796324 7.02666667,5.7333112 C7.712,5.24865916 8.536,5.00199994 9.5,5.00199994 L9.5,5.00199994 Z M8.06801362,13.5516027 C7.78436481,13.548453 7.511782,13.6639769 7.31349767,13.8713757 C7.103466,14.0861138 7.00016238,14.3434493 7.00016238,14.6433824 C6.99509938,14.9340626 7.10862709,15.2137762 7.31349767,15.415389 C7.51097009,15.6240113 7.78409198,15.7397637 8.06801362,15.735162 C8.35180487,15.7390673 8.62466743,15.6234249 8.82252956,15.415389 C9.03256123,15.2006509 9.13529412,14.9433154 9.13529412,14.6433824 C9.13529412,14.3434493 9.02913681,14.0861138 8.82252956,13.8713757 C8.62505715,13.6627534 8.35193526,13.547001 8.06801362,13.5516027 Z M16.0679934,13.5516027 C15.7843392,13.548453 15.5117513,13.6639769 15.3134632,13.8713757 C15.1034275,14.0861138 15.0001219,14.3434493 15.0001219,14.6433824 C14.9957486,14.9339281 15.1091689,15.2133718 15.3134632,15.415389 C15.5109393,15.6240113 15.7840664,15.7397637 16.0679934,15.735162 C16.35179,15.7390673 16.6246578,15.6234249 16.8225236,15.415389 C17.0325593,15.2006509 17.1352941,14.9433154 17.1352941,14.6433824 C17.1352941,14.3434493 17.0291348,14.0861138 16.8225236,13.8713757 C16.6250475,13.6627534 16.3519204,13.547001 16.0679934,13.5516027 Z M11.75,7 L7,7 L7,12 L11.75,12 L11.75,7 Z M17,7 L12.25,7 L12.25,12 L17,12 L17,7 Z" id="形状结合" fill="#FFFFFF"></path>
        </g>
    </g>
</svg>