<?xml version="1.0" encoding="UTF-8"?>
<svg width="24px" height="24px" viewBox="0 0 24 24" version="1.1" xmlns="http://www.w3.org/2000/svg" xmlns:xlink="http://www.w3.org/1999/xlink">
    <title>编组 31</title>
    <g id="首页-和-目的地" stroke="none" stroke-width="1" fill="none" fill-rule="evenodd">
        <g id="目的地景点-详情" transform="translate(-15.000000, -927.000000)" fill-rule="nonzero">
            <g id="编组-31" transform="translate(15.000000, 927.000000)">
                <path d="M12,0 C5.37257812,0 0,5.37257812 0,12 C0,18.6274219 5.37257812,24 12,24 C18.6274219,24 24,18.6274219 24,12 C24,5.37257812 18.6274219,0 12,0 Z" id="路径" fill="#016F7E"></path>
                <path d="M12.523955,5.00079526 C13.9611193,5.00874589 14.9080468,5.07628289 15.3640921,5.20210526 C16.112173,5.405 16.7388375,5.84552632 17.2433025,6.52289474 C17.7477675,7.20105263 18,8.07736842 18,9.15105263 C18,9.97921053 17.8543005,10.6755263 17.5636848,11.24 C17.2730691,11.8044737 16.903337,12.2473684 16.4552718,12.5702632 C16.0072066,12.8915789 15.5505248,13.1047368 15.0883597,13.2097368 C14.4585618,13.3384211 13.5475482,13.4023684 12.3545355,13.4023684 L12.3545355,13.4023684 L10.6359079,13.4023684 L10.6359079,20 L8,20 L8,5 Z M11.8698399,7.00082457 L10.5,7 L10.5,11 L12.0526537,11 C13.1697557,11 13.9161752,10.9257885 14.2935973,10.7790146 C14.6701769,10.6305916 14.9650379,10.400536 15.1798652,10.0863739 C15.3930076,9.77221192 15.5,9.40692641 15.5,8.99134199 C15.5,8.47763348 15.3500421,8.05545248 15.0501264,7.72150072 C14.7493682,7.38837353 14.3694187,7.17975675 13.910278,7.09729953 C13.5716091,7.03298289 12.8917439,7.00082457 11.8698399,7.00082457 L11.8698399,7.00082457 Z" id="形状结合" fill="#FFFFFF"></path>
            </g>
        </g>
    </g>
</svg>