<?xml version="1.0" encoding="UTF-8"?>
<svg width="24px" height="24px" viewBox="0 0 24 24" version="1.1" xmlns="http://www.w3.org/2000/svg" xmlns:xlink="http://www.w3.org/1999/xlink">
    <title>编组 10</title>
    <g id="首页-和-目的地" stroke="none" stroke-width="1" fill="none" fill-rule="evenodd">
        <g id="目的地景点-详情" transform="translate(-15.000000, -971.000000)" fill-rule="nonzero">
            <g id="编组-10" transform="translate(15.000000, 971.000000)">
                <path d="M12,0 C5.37257812,0 0,5.37257812 0,12 C0,18.6274219 5.37257812,24 12,24 C18.6274219,24 24,18.6274219 24,12 C24,5.37257812 18.6274219,0 12,0 Z" id="路径" fill="#016F7E"></path>
                <path d="M19.9409063,14.0910469 C19.8412969,14.4394922 19.5426094,14.6386172 19.1940703,14.6386172 L18.5469141,14.6386172 C18.5469141,15.6343828 17.7503203,16.4807578 16.70475,16.4807578 C15.7090547,16.4807578 14.8627031,15.6841641 14.8627031,14.6386172 L9.38625,14.6386172 C9.38625,15.6343828 8.53980468,16.4807578 7.54410938,16.4807578 C6.54841407,16.4807578 5.70201563,15.6841641 5.70201563,14.6386172 L4.80585939,14.6386172 C4.40765628,14.6386172 4.05914064,14.2901719 4.05914064,13.891875 L4.05914064,8.26600781 C4.05914064,7.86780469 4.40765628,7.51926562 4.80585939,7.51926562 L19.1940469,7.51926562 C19.5923437,7.51926562 19.9409063,7.86780469 19.9409063,8.21625001 L19.9409063,14.0910469 L19.9409063,14.0910469 Z" id="路径" fill="#FFFFFF"></path>
                <path d="M17.639328,8.76190476 L17.639328,11.4826036 L18.7693917,12.6632519 L19.4285714,12.6632519 L19.4285714,8.76190476 L17.639328,8.76190476 Z M15.2380952,8.81318582 L17.121409,8.81318582 L17.121409,11.5339572 L15.2380952,11.5339572 L15.2380952,8.81318582 Z M16.9753505,14.0493144 C16.581437,14.0493144 16.2268981,14.3651322 16.2268981,14.7992865 C16.2268981,15.1940263 16.5419881,15.5493144 16.9753505,15.5493144 C17.4087129,15.5493144 17.7633445,15.2334779 17.7238956,14.7992865 C17.7239142,14.4045839 17.4087314,14.0493144 16.9753505,14.0493144 Z" id="形状" fill="#016F7E"></path>
                <path d="M7.57793562,8.81318582 L9.63709772,8.81318582 L9.63709772,11.5339572 L7.57793562,11.5339572 L7.57793562,8.81318582 Z M7.55569227,14.0493144 C7.16099455,14.0493144 6.80569228,14.3651322 6.80569228,14.7992865 C6.80569228,15.1940263 7.12146903,15.5493144 7.55569227,15.5493144 C7.98989693,15.5493144 8.30569228,15.2334779 8.30569228,14.7992865 C8.30569228,14.4045839 7.98989695,14.0493144 7.55569227,14.0493144 Z M4.95238095,8.81318582 L7.01166422,8.81318582 L7.01166422,11.5339572 L4.95238095,11.5339572 L4.95238095,8.81318582 Z M12.6229276,8.81318582 L14.4761905,8.81318582 L14.4761905,11.5339572 L12.6229276,11.5339572 L12.6229276,8.81318582 Z M10.3577693,8.76190476 L12.2110807,8.76190476 L12.2110807,11.5339572 L10.3577693,11.5339572 L10.3577693,8.76190476 Z" id="形状" fill="#016F7E"></path>
            </g>
        </g>
    </g>
</svg>