<?xml version="1.0" encoding="UTF-8"?>
<svg width="40px" height="44px" viewBox="0 0 40 44" version="1.1" xmlns="http://www.w3.org/2000/svg" xmlns:xlink="http://www.w3.org/1999/xlink">
    <title>icon_parking</title>
    <g id="首页-和-目的地" stroke="none" stroke-width="1" fill="none" fill-rule="evenodd">
        <g id="目的地景点-详情" transform="translate(-172.000000, -246.000000)" fill-rule="nonzero">
            <g id="icon_parking" transform="translate(172.000000, 246.000000)">
                <circle id="椭圆形备份" fill="#FFFFFF" cx="19.5" cy="19.5" r="17.5"></circle>
                <path d="M19.5555556,44 C17.1069206,40.161 15.3133968,38.082 14.1735873,37.761625 C5.9895873,35.459875 0,28.0445 0,19.25 C0,8.6185 8.75530159,0 19.5555556,0 C30.3558095,0 39.1111111,8.6185 39.1111111,19.25 C39.1111111,27.979875 33.208127,35.35125 25.1163175,37.71075 C23.9429841,38.053125 22.088,40.15 19.5555556,44 Z M12.2222222,33 L16.7325535,33 L16.7325535,21.7107193 L19.6733163,21.7107193 C21.7146935,21.7107193 23.2735391,21.6012982 24.3511933,21.3811053 C25.1420092,21.2014386 25.9234425,20.8367018 26.6901318,20.2868947 C27.4568211,19.734386 28.0894738,18.9765439 28.5867495,18.0106667 C29.0840253,17.0447895 29.3333333,15.8533158 29.3333333,14.4362456 C29.3333333,12.5990526 28.9017355,11.0995789 28.0385399,9.93917544 C27.1753442,8.78012281 26.1030515,8.02633333 24.8230021,7.67915789 C23.9906348,7.44950877 22.2025867,7.33333333 19.4601981,7.33333333 L12.2222222,7.33333333 L12.2222222,33 Z M17.1125527,11.0012598 L19.4550594,11.0012598 C21.2036507,11.0012598 22.3669756,11.0503905 22.9464757,11.1486521 C23.7321164,11.2746284 24.3822522,11.5933485 24.8968829,12.1022928 C25.4100721,12.6124969 25.6666667,13.2574956 25.6666667,14.042328 C25.6666667,14.6772487 25.4835908,15.2353238 25.1188805,15.7152935 C24.7512871,16.1952633 24.2467472,16.5467372 23.6023776,16.7734946 C22.9565665,16.9977324 21.6793597,17.1111111 19.7678742,17.1111111 L17.1111111,17.1111111 L17.1111111,11 L17.1125527,11.0012598 Z" id="形状备份" fill="#016F7E"></path>
            </g>
        </g>
    </g>
</svg>