<?xml version="1.0" encoding="UTF-8"?>
<svg width="39px" height="44px" viewBox="0 0 39 44" version="1.1" xmlns="http://www.w3.org/2000/svg" xmlns:xlink="http://www.w3.org/1999/xlink">
    <title>icon_metro</title>
    <g id="首页-和-目的地" stroke="none" stroke-width="1" fill="none" fill-rule="evenodd">
        <g id="目的地景点-详情" transform="translate(-146.000000, -347.000000)" fill-rule="nonzero">
            <g id="icon_metro" transform="translate(146.000000, 347.000000)">
                <circle id="椭圆形" fill="#FFFFFF" cx="19.5" cy="19.5" r="17.5"></circle>
                <path d="M19.4117647,44 C16.9811345,40.161 15.2007983,38.082 14.0693697,37.761625 C5.94554622,35.459875 -1.27897692e-12,28.0445 -1.27897692e-12,19.25 C-1.27897692e-12,8.6185 8.69092437,0 19.4117647,0 C30.132605,0 38.8235294,8.6185 38.8235294,19.25 C38.8235294,27.979875 32.9639496,35.35125 24.9316387,37.71075 C23.7669328,38.053125 21.9255882,40.15 19.4117647,44 Z M24.6421569,6.47058824 L15.4754902,6.4742856 C13.7081569,6.4742856 12.1974902,6.93029425 10.9410458,7.82628962 C9.68460131,8.72228499 9.05882353,9.81054346 9.05882353,11.0959949 L9.05882353,24.0355483 C9.05882353,25.2901883 9.65526797,26.3574951 10.8554902,27.2448632 C12.053268,28.1273016 13.5126013,28.5968673 15.2310458,28.644933 L12.1816013,31.559691 C12.0325721,31.6814105 11.9851533,31.8899691 12.0667124,32.0649979 C12.1319066,32.2468132 12.3079897,32.3636801 12.4993791,32.3521601 L27.618268,32.3521601 C27.8297124,32.3521601 27.9739346,32.2547961 28.0509346,32.0637654 C28.1295947,31.8888253 28.0825569,31.682447 27.9360458,31.559691 L24.8866013,28.644933 C26.6050458,28.5956348 28.0643791,28.130999 29.2621569,27.2448632 C30.4623791,26.3574951 31.0588235,25.2877234 31.0588235,24.0355483 L31.0588235,11.09353 C31.0588235,9.81177592 30.4330458,8.72228499 29.1766013,7.82259225 C27.9201569,6.9204346 26.4058235,6.47058824 24.6421569,6.47058824 Z M10.9229369,25.3136327 C10.550445,24.9552099 10.344031,24.4579413 10.3532364,23.9411765 C10.3532364,23.4079622 10.5410612,22.9504768 10.9229369,22.5687202 C11.2834539,22.2000112 11.779059,21.9946354 12.2947841,22.0002349 C12.8110053,21.9920541 13.3075905,22.1978361 13.6666313,22.5687202 C14.0422808,22.9504768 14.2352941,23.4079622 14.2352941,23.9411765 C14.2352941,24.4743908 14.0485071,24.9318762 13.6666313,25.3136327 C13.306882,25.6834743 12.8107682,25.8890608 12.2947841,25.882118 C11.778563,25.8902989 11.2819777,25.6845169 10.9229369,25.3136327 L10.9229369,25.3136327 Z M19.4117647,18.1176471 L10.3529412,18.1176471 L10.3529412,10.3529412 L19.4117647,10.3529412 L19.4117647,18.1176471 Z M29.7647059,18.1176471 L20.7058824,18.1176471 L20.7058824,10.3529412 L29.7647059,10.3529412 L29.7647059,18.1176471 Z M26.452286,25.3136327 C26.0808419,24.9544911 25.8746231,24.4577023 25.8825747,23.9411765 C25.8825747,23.4079622 26.070403,22.9504768 26.452286,22.5687202 C26.8128098,22.2000112 27.3084243,21.9946354 27.8241591,22.0002349 C28.3403901,21.9920541 28.8369847,22.1978361 29.1960323,22.5687202 C29.5716889,22.9504768 29.7647059,23.4079622 29.7647059,23.9411765 C29.7647059,24.4743908 29.5779153,24.9318762 29.1960323,25.3136327 C28.8362761,25.6834743 28.340153,25.8890608 27.8241591,25.882118 C27.3079282,25.8902989 26.8113335,25.6845169 26.452286,25.3136327 L26.452286,25.3136327 Z" id="形状" fill="#016F7E"></path>
            </g>
        </g>
    </g>
</svg>