<?xml version="1.0" encoding="UTF-8"?>
<svg width="24px" height="24px" viewBox="0 0 24 24" version="1.1" xmlns="http://www.w3.org/2000/svg" xmlns:xlink="http://www.w3.org/1999/xlink">
    <title>icon_drugstore</title>
    <g id="首页-和-目的地" stroke="none" stroke-width="1" fill="none" fill-rule="evenodd">
        <g id="icon_drugstore" transform="translate(0.000000, 0.000000)">
            <path d="M12,0 C5.37257812,0 0,5.37257812 0,12 C0,18.6274219 5.37257812,24 12,24 C18.6274219,24 24,18.6274219 24,12 C24,5.37257812 18.6274219,0 12,0 Z" id="路径备份-47" fill="#016F7E" fill-rule="nonzero"></path>
            <path d="M12.0119312,6.19891648 C13.6105925,4.60036117 16.2024222,4.60036117 17.8010835,6.19891648 C19.3996388,7.79757782 19.3996388,10.3894075 17.8010835,11.9880688 L17.8010835,11.9880688 L12.0119312,17.7772212 C10.9806498,18.8254379 9.46639462,19.2400056 8.04499607,18.8632756 C6.62359752,18.4865455 5.51345445,17.3764025 5.1367244,15.9550039 C4.75999436,14.5336054 5.17456215,13.0193502 6.22277881,11.9880688 L6.22277881,11.9880688 Z M17.3311438,6.66912563 C16.1426107,5.48066183 14.215642,5.48066183 13.0271089,6.66912563 L13.0271089,6.66912563 L10.4444444,9.25108036 L14.7490881,13.5555556 L17.3311438,10.9723835 C18.5192484,9.78396656 18.5192484,7.85754258 17.3311438,6.66912563 Z" id="形状结合" fill="#FFFFFF"></path>
        </g>
    </g>
</svg>