<?xml version="1.0" encoding="UTF-8"?>
<svg width="16px" height="16px" viewBox="0 0 16 16" version="1.1" xmlns="http://www.w3.org/2000/svg" xmlns:xlink="http://www.w3.org/1999/xlink">
    <title>路径</title>
    <g id="首页-和-目的地" stroke="none" stroke-width="1" fill="none" fill-rule="evenodd">
        <g id="目的地疫情" transform="translate(-295.000000, -717.000000)" fill="#4D4D4D" fill-rule="nonzero">
            <g id="编组-8" transform="translate(295.000000, 716.000000)">
                <path d="M16,8.986451 C15.8875771,8.17614869 14.4814046,7.81574885 13.9138154,7.70936975 C13.5506608,7.64121921 12.3941128,7.60939445 10.5220873,7.62679566 C10.3987073,7.41118868 10.0820496,6.85945897 9.68286685,6.16647508 C9.88960503,5.98075013 10.4738659,5.4492159 10.6735843,5.19780971 C11.0395327,4.73709141 10.5477192,4.51925118 10.2065169,4.51990481 C9.86023543,4.52035872 8.88676867,4.51990481 8.7317863,4.51990481 C8.00170484,3.26094922 7.27144186,2.01268055 6.99464248,1.57765556 C6.36729567,0.591607127 5.14819629,1.05780508 5.20213045,1.57765556 C5.25069495,2.04524974 6.47329604,6.76186037 6.71862187,7.70501582 C6.66630151,7.70661178 6.6170127,7.70770117 6.56434746,7.70936975 C5.13099822,7.75182698 3.92180309,7.91601465 2.94155258,8.11340519 C2.64094928,7.79139914 1.64865432,6.72466491 1.06096438,6.05987811 C0.346285668,5.25142596 -0.040126494,5.87889019 0.00330437053,6.14949329 C0.127935061,6.92608437 0.621289718,8.59252332 0.66199947,8.72924018 C0.390985429,8.7966463 0.220311662,8.89208429 0.21869786,8.99842708 C0.217735755,8.99884468 0.216902529,8.99955278 0.21597673,9.00002304 C0.216902529,9.00047696 0.217862826,9.00136482 0.218734166,9.00192767 C0.220765485,9.10810706 0.391312182,9.2034016 0.662017623,9.27066246 C0.621453112,9.40716144 0.127953232,11.0738183 0.00332252345,11.850482 C-0.0401083411,12.1210488 0.346303821,12.7485493 1.06098253,11.9401335 C1.64867248,11.275274 2.64095109,10.208558 2.94157073,9.88657008 C3.92182122,10.0840332 5.13101638,10.2481846 6.56436561,10.2906418 C6.61703087,10.2922741 6.66631969,10.2933635 6.71864002,10.2949595 C6.47331417,11.2381331 5.25071311,15.9547618 5.2021486,16.4223197 C5.14821446,16.9422247 6.36731382,17.4083863 6.99466063,16.4223197 C7.27147998,15.9873474 8.00172481,14.7390624 8.73180445,13.4801249 C8.88678683,13.4801249 9.86025178,13.4796347 10.2065351,13.4801249 C10.5477555,13.4807604 11.0395509,13.2629202 10.6736025,12.8022019 C10.4738659,12.5508138 9.88962318,12.0193141 9.682885,11.8334639 C10.0820677,11.1405181 10.3987255,10.5888066 10.5221054,10.3732341 C12.3941309,10.390599 13.550679,10.3587361 13.9138336,10.2906237 C14.4814046,10.184259 15.916315,9.74077856 16,8.986451" id="路径"></path>
            </g>
        </g>
    </g>
</svg>