<?xml version="1.0" encoding="UTF-8"?>
<svg width="238px" height="18px" viewBox="0 0 238 18" version="1.1" xmlns="http://www.w3.org/2000/svg" xmlns:xlink="http://www.w3.org/1999/xlink">
    <title>编组 5</title>
    <g id="首页-和-目的地" stroke="none" stroke-width="1" fill="none" fill-rule="evenodd">
        <g id="目的地疫情" transform="translate(-25.000000, -717.000000)">
            <g id="编组-5" transform="translate(25.400000, 717.000000)">
                <g id="编组-26" transform="translate(118.100000, 13.000000) rotate(-270.000000) translate(-118.100000, -13.000000) translate(113.600000, -105.000000)">
                    <rect id="矩形" fill="#CC1E1E" x="9.09494702e-13" y="-2.18278728e-11" width="9" height="30"></rect>
                    <rect id="矩形备份-18" fill="#F04141" x="9.09494702e-13" y="29" width="9" height="30"></rect>
                    <rect id="矩形备份-19" fill="#FF7050" x="9.09494702e-13" y="59" width="9" height="30"></rect>
                    <rect id="矩形备份-20" fill="#FFAA80" x="9.09494702e-13" y="88" width="9" height="30"></rect>
                    <rect id="矩形备份-21" fill="#FFC89E" x="9.09494702e-13" y="118" width="9" height="30"></rect>
                    <rect id="矩形备份-22" fill="#FFDAB3" x="9.09494702e-13" y="147" width="9" height="30"></rect>
                    <rect id="矩形备份-23" fill="#FFE7B8" x="9.09494702e-13" y="177" width="9" height="30"></rect>
                    <rect id="矩形备份-24" fill="#E2EBF4" x="9.09494702e-13" y="206" width="9" height="30"></rect>
                </g>
                <g id="编组-4" transform="translate(27.000000, 0.176000)" fill="#4D4D4D" fill-rule="nonzero">
                    <path d="M2,5.936 C2.68,5.936 3.192,5.632 3.544,5.032 C3.848,4.52 4,3.832 4,2.968 C4,2.104 3.848,1.416 3.544,0.904 C3.192,0.296 2.68,3.41060513e-13 2,3.41060513e-13 C1.312,3.41060513e-13 0.8,0.296 0.456,0.904 C0.152,1.416 0,2.104 0,2.968 C0,3.832 0.152,4.52 0.456,5.032 C0.8,5.632 1.312,5.936 2,5.936 Z M2,5.376 C1.488,5.376 1.12,5.096 0.896,4.552 C0.736,4.16 0.656,3.632 0.656,2.968 C0.656,2.296 0.736,1.768 0.896,1.384 C1.12,0.832 1.488,0.56 2,0.56 C2.512,0.56 2.88,0.832 3.104,1.384 C3.264,1.768 3.352,2.296 3.352,2.968 C3.352,3.632 3.264,4.16 3.104,4.552 C2.88,5.096 2.512,5.376 2,5.376 Z" id="0"></path>
                    <path d="M30.952,5.824 L30.952,0.112 L30.44,0.112 C30.248,0.328 30.024,0.52 29.752,0.696 C29.48,0.856 29.208,0.968 28.952,1.04 L28.952,1.696 C29.488,1.536 29.936,1.28 30.296,0.912 L30.296,5.824 L30.952,5.824 Z M34.208,5.936 C34.888,5.936 35.4,5.632 35.752,5.032 C36.056,4.52 36.208,3.832 36.208,2.968 C36.208,2.104 36.056,1.416 35.752,0.904 C35.4,0.296 34.888,3.41060513e-13 34.208,3.41060513e-13 C33.52,3.41060513e-13 33.008,0.296 32.664,0.904 C32.36,1.416 32.208,2.104 32.208,2.968 C32.208,3.832 32.36,4.52 32.664,5.032 C33.008,5.632 33.52,5.936 34.208,5.936 Z M34.208,5.376 C33.696,5.376 33.328,5.096 33.104,4.552 C32.944,4.16 32.864,3.632 32.864,2.968 C32.864,2.296 32.944,1.768 33.104,1.384 C33.328,0.832 33.696,0.56 34.208,0.56 C34.72,0.56 35.088,0.832 35.312,1.384 C35.472,1.768 35.56,2.296 35.56,2.968 C35.56,3.632 35.472,4.16 35.312,4.552 C35.088,5.096 34.72,5.376 34.208,5.376 Z" id="10"></path>
                    <path d="M58.952,5.936 C59.512,5.936 59.992,5.76 60.376,5.416 C60.784,5.048 60.992,4.576 60.992,4 C60.992,3.384 60.816,2.904 60.48,2.552 C60.144,2.208 59.704,2.04 59.16,2.04 C58.896,2.04 58.656,2.08 58.432,2.176 C58.184,2.272 57.976,2.416 57.816,2.608 L57.784,2.608 L57.976,0.696 L60.76,0.696 L60.76,0.112 L57.44,0.112 L57.136,3.264 L57.76,3.264 C57.872,3.04 58.048,2.864 58.272,2.752 C58.488,2.632 58.728,2.576 59,2.576 C59.416,2.576 59.744,2.696 59.976,2.952 C60.216,3.2 60.344,3.552 60.344,4.008 C60.344,4.408 60.208,4.736 59.952,4.992 C59.688,5.248 59.36,5.376 58.96,5.376 C58.608,5.376 58.312,5.288 58.088,5.12 C57.832,4.928 57.688,4.648 57.656,4.288 L57.008,4.288 C57.048,4.808 57.264,5.224 57.664,5.528 C58.016,5.8 58.448,5.936 58.952,5.936 Z M63.8,5.936 C64.48,5.936 64.992,5.632 65.344,5.032 C65.648,4.52 65.8,3.832 65.8,2.968 C65.8,2.104 65.648,1.416 65.344,0.904 C64.992,0.296 64.48,3.41060513e-13 63.8,3.41060513e-13 C63.112,3.41060513e-13 62.6,0.296 62.256,0.904 C61.952,1.416 61.8,2.104 61.8,2.968 C61.8,3.832 61.952,4.52 62.256,5.032 C62.6,5.632 63.112,5.936 63.8,5.936 Z M63.8,5.376 C63.288,5.376 62.92,5.096 62.696,4.552 C62.536,4.16 62.456,3.632 62.456,2.968 C62.456,2.296 62.536,1.768 62.696,1.384 C62.92,0.832 63.288,0.56 63.8,0.56 C64.312,0.56 64.68,0.832 64.904,1.384 C65.064,1.768 65.152,2.296 65.152,2.968 C65.152,3.632 65.064,4.16 64.904,4.552 C64.68,5.096 64.312,5.376 63.8,5.376 Z" id="50"></path>
                    <path d="M86.952,5.824 L86.952,0.112 L86.44,0.112 C86.248,0.328 86.024,0.52 85.752,0.696 C85.48,0.856 85.208,0.968 84.952,1.04 L84.952,1.696 C85.488,1.536 85.936,1.28 86.296,0.912 L86.296,5.824 L86.952,5.824 Z M90.208,5.936 C90.888,5.936 91.4,5.632 91.752,5.032 C92.056,4.52 92.208,3.832 92.208,2.968 C92.208,2.104 92.056,1.416 91.752,0.904 C91.4,0.296 90.888,3.41060513e-13 90.208,3.41060513e-13 C89.52,3.41060513e-13 89.008,0.296 88.664,0.904 C88.36,1.416 88.208,2.104 88.208,2.968 C88.208,3.832 88.36,4.52 88.664,5.032 C89.008,5.632 89.52,5.936 90.208,5.936 Z M90.208,5.376 C89.696,5.376 89.328,5.096 89.104,4.552 C88.944,4.16 88.864,3.632 88.864,2.968 C88.864,2.296 88.944,1.768 89.104,1.384 C89.328,0.832 89.696,0.56 90.208,0.56 C90.72,0.56 91.088,0.832 91.312,1.384 C91.472,1.768 91.56,2.296 91.56,2.968 C91.56,3.632 91.472,4.16 91.312,4.552 C91.088,5.096 90.72,5.376 90.208,5.376 Z M95.008,5.936 C95.688,5.936 96.2,5.632 96.552,5.032 C96.856,4.52 97.008,3.832 97.008,2.968 C97.008,2.104 96.856,1.416 96.552,0.904 C96.2,0.296 95.688,3.41060513e-13 95.008,3.41060513e-13 C94.32,3.41060513e-13 93.808,0.296 93.464,0.904 C93.16,1.416 93.008,2.104 93.008,2.968 C93.008,3.832 93.16,4.52 93.464,5.032 C93.808,5.632 94.32,5.936 95.008,5.936 Z M95.008,5.376 C94.496,5.376 94.128,5.096 93.904,4.552 C93.744,4.16 93.664,3.632 93.664,2.968 C93.664,2.296 93.744,1.768 93.904,1.384 C94.128,0.832 94.496,0.56 95.008,0.56 C95.52,0.56 95.888,0.832 96.112,1.384 C96.272,1.768 96.36,2.296 96.36,2.968 C96.36,3.632 96.272,4.16 96.112,4.552 C95.888,5.096 95.52,5.376 95.008,5.376 Z" id="100"></path>
                    <path d="M114.952,5.936 C115.512,5.936 115.992,5.76 116.376,5.416 C116.784,5.048 116.992,4.576 116.992,4 C116.992,3.384 116.816,2.904 116.48,2.552 C116.144,2.208 115.704,2.04 115.16,2.04 C114.896,2.04 114.656,2.08 114.432,2.176 C114.184,2.272 113.976,2.416 113.816,2.608 L113.784,2.608 L113.976,0.696 L116.76,0.696 L116.76,0.112 L113.44,0.112 L113.136,3.264 L113.76,3.264 C113.872,3.04 114.048,2.864 114.272,2.752 C114.488,2.632 114.728,2.576 115,2.576 C115.416,2.576 115.744,2.696 115.976,2.952 C116.216,3.2 116.344,3.552 116.344,4.008 C116.344,4.408 116.208,4.736 115.952,4.992 C115.688,5.248 115.36,5.376 114.96,5.376 C114.608,5.376 114.312,5.288 114.088,5.12 C113.832,4.928 113.688,4.648 113.656,4.288 L113.008,4.288 C113.048,4.808 113.264,5.224 113.664,5.528 C114.016,5.8 114.448,5.936 114.952,5.936 Z M119.8,5.936 C120.48,5.936 120.992,5.632 121.344,5.032 C121.648,4.52 121.8,3.832 121.8,2.968 C121.8,2.104 121.648,1.416 121.344,0.904 C120.992,0.296 120.48,3.41060513e-13 119.8,3.41060513e-13 C119.112,3.41060513e-13 118.6,0.296 118.256,0.904 C117.952,1.416 117.8,2.104 117.8,2.968 C117.8,3.832 117.952,4.52 118.256,5.032 C118.6,5.632 119.112,5.936 119.8,5.936 Z M119.8,5.376 C119.288,5.376 118.92,5.096 118.696,4.552 C118.536,4.16 118.456,3.632 118.456,2.968 C118.456,2.296 118.536,1.768 118.696,1.384 C118.92,0.832 119.288,0.56 119.8,0.56 C120.312,0.56 120.68,0.832 120.904,1.384 C121.064,1.768 121.152,2.296 121.152,2.968 C121.152,3.632 121.064,4.16 120.904,4.552 C120.68,5.096 120.312,5.376 119.8,5.376 Z M124.6,5.936 C125.28,5.936 125.792,5.632 126.144,5.032 C126.448,4.52 126.6,3.832 126.6,2.968 C126.6,2.104 126.448,1.416 126.144,0.904 C125.792,0.296 125.28,3.41060513e-13 124.6,3.41060513e-13 C123.912,3.41060513e-13 123.4,0.296 123.056,0.904 C122.752,1.416 122.6,2.104 122.6,2.968 C122.6,3.832 122.752,4.52 123.056,5.032 C123.4,5.632 123.912,5.936 124.6,5.936 Z M124.6,5.376 C124.088,5.376 123.72,5.096 123.496,4.552 C123.336,4.16 123.256,3.632 123.256,2.968 C123.256,2.296 123.336,1.768 123.496,1.384 C123.72,0.832 124.088,0.56 124.6,0.56 C125.112,0.56 125.48,0.832 125.704,1.384 C125.864,1.768 125.952,2.296 125.952,2.968 C125.952,3.632 125.864,4.16 125.704,4.552 C125.48,5.096 125.112,5.376 124.6,5.376 Z" id="500"></path>
                    <path d="M142.952,5.824 L142.952,0.112 L142.44,0.112 C142.248,0.328 142.024,0.52 141.752,0.696 C141.48,0.856 141.208,0.968 140.952,1.04 L140.952,1.696 C141.488,1.536 141.936,1.28 142.296,0.912 L142.296,5.824 L142.952,5.824 Z M146.208,5.936 C146.888,5.936 147.4,5.632 147.752,5.032 C148.056,4.52 148.208,3.832 148.208,2.968 C148.208,2.104 148.056,1.416 147.752,0.904 C147.4,0.296 146.888,3.41060513e-13 146.208,3.41060513e-13 C145.52,3.41060513e-13 145.008,0.296 144.664,0.904 C144.36,1.416 144.208,2.104 144.208,2.968 C144.208,3.832 144.36,4.52 144.664,5.032 C145.008,5.632 145.52,5.936 146.208,5.936 Z M146.208,5.376 C145.696,5.376 145.328,5.096 145.104,4.552 C144.944,4.16 144.864,3.632 144.864,2.968 C144.864,2.296 144.944,1.768 145.104,1.384 C145.328,0.832 145.696,0.56 146.208,0.56 C146.72,0.56 147.088,0.832 147.312,1.384 C147.472,1.768 147.56,2.296 147.56,2.968 C147.56,3.632 147.472,4.16 147.312,4.552 C147.088,5.096 146.72,5.376 146.208,5.376 Z M151.008,5.936 C151.688,5.936 152.2,5.632 152.552,5.032 C152.856,4.52 153.008,3.832 153.008,2.968 C153.008,2.104 152.856,1.416 152.552,0.904 C152.2,0.296 151.688,3.41060513e-13 151.008,3.41060513e-13 C150.32,3.41060513e-13 149.808,0.296 149.464,0.904 C149.16,1.416 149.008,2.104 149.008,2.968 C149.008,3.832 149.16,4.52 149.464,5.032 C149.808,5.632 150.32,5.936 151.008,5.936 Z M151.008,5.376 C150.496,5.376 150.128,5.096 149.904,4.552 C149.744,4.16 149.664,3.632 149.664,2.968 C149.664,2.296 149.744,1.768 149.904,1.384 C150.128,0.832 150.496,0.56 151.008,0.56 C151.52,0.56 151.888,0.832 152.112,1.384 C152.272,1.768 152.36,2.296 152.36,2.968 C152.36,3.632 152.272,4.16 152.112,4.552 C151.888,5.096 151.52,5.376 151.008,5.376 Z M155.808,5.936 C156.488,5.936 157,5.632 157.352,5.032 C157.656,4.52 157.808,3.832 157.808,2.968 C157.808,2.104 157.656,1.416 157.352,0.904 C157,0.296 156.488,3.41060513e-13 155.808,3.41060513e-13 C155.12,3.41060513e-13 154.608,0.296 154.264,0.904 C153.96,1.416 153.808,2.104 153.808,2.968 C153.808,3.832 153.96,4.52 154.264,5.032 C154.608,5.632 155.12,5.936 155.808,5.936 Z M155.808,5.376 C155.296,5.376 154.928,5.096 154.704,4.552 C154.544,4.16 154.464,3.632 154.464,2.968 C154.464,2.296 154.544,1.768 154.704,1.384 C154.928,0.832 155.296,0.56 155.808,0.56 C156.32,0.56 156.688,0.832 156.912,1.384 C157.072,1.768 157.16,2.296 157.16,2.968 C157.16,3.632 157.072,4.16 156.912,4.552 C156.688,5.096 156.32,5.376 155.808,5.376 Z" id="1000"></path>
                    <path d="M170.952,5.824 L170.952,0.112 L170.44,0.112 C170.248,0.328 170.024,0.52 169.752,0.696 C169.48,0.856 169.208,0.968 168.952,1.04 L168.952,1.696 C169.488,1.536 169.936,1.28 170.296,0.912 L170.296,5.824 L170.952,5.824 Z M174.208,5.936 C174.888,5.936 175.4,5.632 175.752,5.032 C176.056,4.52 176.208,3.832 176.208,2.968 C176.208,2.104 176.056,1.416 175.752,0.904 C175.4,0.296 174.888,3.41060513e-13 174.208,3.41060513e-13 C173.52,3.41060513e-13 173.008,0.296 172.664,0.904 C172.36,1.416 172.208,2.104 172.208,2.968 C172.208,3.832 172.36,4.52 172.664,5.032 C173.008,5.632 173.52,5.936 174.208,5.936 Z M174.208,5.376 C173.696,5.376 173.328,5.096 173.104,4.552 C172.944,4.16 172.864,3.632 172.864,2.968 C172.864,2.296 172.944,1.768 173.104,1.384 C173.328,0.832 173.696,0.56 174.208,0.56 C174.72,0.56 175.088,0.832 175.312,1.384 C175.472,1.768 175.56,2.296 175.56,2.968 C175.56,3.632 175.472,4.16 175.312,4.552 C175.088,5.096 174.72,5.376 174.208,5.376 Z M179.008,5.936 C179.688,5.936 180.2,5.632 180.552,5.032 C180.856,4.52 181.008,3.832 181.008,2.968 C181.008,2.104 180.856,1.416 180.552,0.904 C180.2,0.296 179.688,3.41060513e-13 179.008,3.41060513e-13 C178.32,3.41060513e-13 177.808,0.296 177.464,0.904 C177.16,1.416 177.008,2.104 177.008,2.968 C177.008,3.832 177.16,4.52 177.464,5.032 C177.808,5.632 178.32,5.936 179.008,5.936 Z M179.008,5.376 C178.496,5.376 178.128,5.096 177.904,4.552 C177.744,4.16 177.664,3.632 177.664,2.968 C177.664,2.296 177.744,1.768 177.904,1.384 C178.128,0.832 178.496,0.56 179.008,0.56 C179.52,0.56 179.888,0.832 180.112,1.384 C180.272,1.768 180.36,2.296 180.36,2.968 C180.36,3.632 180.272,4.16 180.112,4.552 C179.888,5.096 179.52,5.376 179.008,5.376 Z M183.808,5.936 C184.488,5.936 185,5.632 185.352,5.032 C185.656,4.52 185.808,3.832 185.808,2.968 C185.808,2.104 185.656,1.416 185.352,0.904 C185,0.296 184.488,3.41060513e-13 183.808,3.41060513e-13 C183.12,3.41060513e-13 182.608,0.296 182.264,0.904 C181.96,1.416 181.808,2.104 181.808,2.968 C181.808,3.832 181.96,4.52 182.264,5.032 C182.608,5.632 183.12,5.936 183.808,5.936 Z M183.808,5.376 C183.296,5.376 182.928,5.096 182.704,4.552 C182.544,4.16 182.464,3.632 182.464,2.968 C182.464,2.296 182.544,1.768 182.704,1.384 C182.928,0.832 183.296,0.56 183.808,0.56 C184.32,0.56 184.688,0.832 184.912,1.384 C185.072,1.768 185.16,2.296 185.16,2.968 C185.16,3.632 185.072,4.16 184.912,4.552 C184.688,5.096 184.32,5.376 183.808,5.376 Z M188.608,5.936 C189.288,5.936 189.8,5.632 190.152,5.032 C190.456,4.52 190.608,3.832 190.608,2.968 C190.608,2.104 190.456,1.416 190.152,0.904 C189.8,0.296 189.288,3.41060513e-13 188.608,3.41060513e-13 C187.92,3.41060513e-13 187.408,0.296 187.064,0.904 C186.76,1.416 186.608,2.104 186.608,2.968 C186.608,3.832 186.76,4.52 187.064,5.032 C187.408,5.632 187.92,5.936 188.608,5.936 Z M188.608,5.376 C188.096,5.376 187.728,5.096 187.504,4.552 C187.344,4.16 187.264,3.632 187.264,2.968 C187.264,2.296 187.344,1.768 187.504,1.384 C187.728,0.832 188.096,0.56 188.608,0.56 C189.12,0.56 189.488,0.832 189.712,1.384 C189.872,1.768 189.96,2.296 189.96,2.968 C189.96,3.632 189.872,4.16 189.712,4.552 C189.488,5.096 189.12,5.376 188.608,5.376 Z" id="10000"></path>
                </g>
            </g>
        </g>
    </g>
</svg>